<svg width="48" height="48" viewBox="0 0 48 48" fill="none" xmlns="http://www.w3.org/2000/svg">
<path opacity="0.2" d="M24.875 11.1692L24.7257 11H24.5001H23.5001H23.2641L23.1141 11.1822L16.2927 19.4653L13.9866 19.1359L23.9999 7.75686L34.0302 19.1548L32.1915 19.4612L24.875 11.1692ZM28.5 38.5H42.5V40.5H28.5V38.5ZM27.5 38V40.5H20.5V38V37.5V28.5H27.5V37.5V38ZM19.5 38.5V40.5H3.5V38.5H19.5ZM35.5 23.5H39.5V31.5H35.5V23.5ZM8.5 23.5H12.5V31.5H8.5V23.5ZM21.5434 23.5L21.9726 18.3495L24 17.5385L26.0274 18.3495L26.4566 23.5H21.5434Z" fill="#3B4857" stroke="#3B4857"/>
<path d="M16.1464 33.8536C16.3417 34.0488 16.6583 34.0488 16.8536 33.8536C17.0488 33.6583 17.0488 33.3417 16.8536 33.1464L16.1464 33.8536ZM8.49979 35.5L8.77715 35.9161L8.49979 35.5ZM6.99991 38C6.99991 38.2761 7.22377 38.5 7.49991 38.5C7.77606 38.5 7.99991 38.2761 7.99991 38H6.99991ZM11.5 36L11 36L11.5 36ZM5.5 34.9999L5.65805 35.4742L5.5 34.9999ZM3 37.9999C2.99999 38.276 3.22384 38.4999 3.49998 38.4999C3.77613 38.4999 3.99999 38.276 4 37.9999L3 37.9999ZM2.5 41H2V41.5H2.5V41ZM16 40.5V41H17V40.5H16ZM23 12L22.6464 11.6464L22.6282 11.6647L22.6119 11.6847L23 12ZM23 7.5L22.6464 7.14645L22.6341 7.15876L22.6227 7.17191L23 7.5ZM4.5 35V35.5H5.5V35H4.5ZM13.6937 18.5L14.0877 18.8078L13.6937 18.5ZM8 8.5L8.38411 8.82009L8.38411 8.82009L8 8.5ZM9.49824 8L9.49824 8.5H9.49824V8ZM22.5657 8L22.9433 8.3277L22.9433 8.3277L22.5657 8ZM2.29124 16L1.88282 15.7116H1.88282L2.29124 16ZM4.5 12.9663L4.09923 12.6673L4.5 12.9663ZM18.2398 12.9663L18.6208 13.29L18.2398 12.9663ZM2.90787 15.9948L3.19708 15.5869L2.38134 15.0085L2.09213 15.4164L2.90787 15.9948ZM31 40.5V41H32V40.5H31ZM25 12L25.3881 11.6847L25.3718 11.6647L25.3536 11.6464L25 12ZM25 7.5L25.3773 7.17191L25.3659 7.15876L25.3536 7.14645L25 7.5ZM43 41V41.5H43.5V41H43ZM34.3063 18.5L33.9123 18.8078L34.3063 18.5ZM40 8.5L39.6159 8.82009V8.82009L40 8.5ZM38.5018 8V8.5V8ZM25.4343 8L25.0567 8.3277L25.0567 8.3277L25.4343 8ZM45.7088 16L46.1172 15.7116L45.7088 16ZM43.5 12.9663L43.9008 12.6673L43.5 12.9663ZM29.7602 12.9663L29.3792 13.29L29.7602 12.9663ZM45.9079 15.4164L45.6187 15.0085L44.8029 15.5869L45.0921 15.9948L45.9079 15.4164ZM35.5 26C35.2239 26 35 26.2239 35 26.5C35 26.7761 35.2239 27 35.5 27V26ZM39.5 27C39.7761 27 40 26.7761 40 26.5C40 26.2239 39.7761 26 39.5 26V27ZM28 41V41.5H28.5V41H28ZM20 41H19.5V41.5H20V41ZM21 41.5C21.2761 41.5 21.5 41.2761 21.5 41C21.5 40.7239 21.2761 40.5 21 40.5V41.5ZM27 40.5C26.7239 40.5 26.5 40.7239 26.5 41C26.5 41.2761 26.7239 41.5 27 41.5V40.5ZM12.5 27C12.7761 27 13 26.7761 13 26.5C13 26.2239 12.7761 26 12.5 26V27ZM8.5 26C8.22386 26 8 26.2239 8 26.5C8 26.7761 8.22386 27 8.5 27V26ZM1 40.5C0.723858 40.5 0.5 40.7239 0.5 41C0.5 41.2761 0.723858 41.5 1 41.5V40.5ZM47 41.5C47.2761 41.5 47.5 41.2761 47.5 41C47.5 40.7239 47.2761 40.5 47 40.5V41.5ZM26 34.75C26 34.8881 25.8881 35 25.75 35V34C25.3358 34 25 34.3358 25 34.75H26ZM25.75 35C25.6119 35 25.5 34.8881 25.5 34.75H26.5C26.5 34.3358 26.1642 34 25.75 34V35ZM25.5 34.75C25.5 34.6119 25.6119 34.5 25.75 34.5V35.5C26.1642 35.5 26.5 35.1642 26.5 34.75H25.5ZM25.75 34.5C25.8881 34.5 26 34.6119 26 34.75H25C25 35.1642 25.3358 35.5 25.75 35.5V34.5ZM16.8536 33.1464C16.6452 32.9381 16.3548 32.8041 16.0648 32.7187C15.7655 32.6306 15.4207 32.5809 15.0601 32.5708C14.3425 32.5509 13.5081 32.687 12.7764 33.0528L13.2236 33.9472C13.7819 33.6681 14.4474 33.5542 15.0323 33.5704C15.323 33.5785 15.5802 33.6185 15.7824 33.678C15.9939 33.7403 16.1048 33.8119 16.1464 33.8536L16.8536 33.1464ZM8.22243 35.084C6.77794 36.0471 6.99991 37.7662 6.99991 38H7.99991C7.99991 37.5671 7.86838 36.5219 8.77715 35.9161L8.22243 35.084ZM12.7764 33.0528C12.1104 33.3858 11.6226 33.7219 11.3326 34.2274C11.0472 34.7246 11 35.3083 11 36L12 36C12 35.3166 12.0578 34.9728 12.2 34.7251C12.3374 34.4855 12.5996 34.2592 13.2236 33.9472L12.7764 33.0528ZM8.77715 35.9161C9.28574 35.577 9.80521 35.7138 10.3196 35.9996C10.5966 36.1534 10.7608 36.2823 10.979 36.4173C11.0261 36.4465 11.0802 36.4782 11.1357 36.5047C11.1839 36.5278 11.2714 36.5662 11.3774 36.578C11.4949 36.591 11.703 36.5745 11.8601 36.3938C11.9907 36.2436 12 36.0718 12 36L11 36C11 35.9906 10.9976 35.8618 11.1055 35.7377C11.2398 35.5831 11.4142 35.5759 11.4878 35.5841C11.5499 35.591 11.5832 35.6103 11.5676 35.6028C11.5594 35.5989 11.5402 35.5886 11.5053 35.567C11.3953 35.4989 11.0907 35.284 10.8052 35.1254C10.1945 34.7861 9.21386 34.423 8.22243 35.084L8.77715 35.9161ZM8.85334 35.1465C8.21148 34.5047 6.79973 34.0398 5.34195 34.5255L5.65805 35.4742C6.77839 35.101 7.7881 35.4955 8.14624 35.8536L8.85334 35.1465ZM5.34195 34.5255C4.50823 34.8033 3.90775 35.279 3.52353 35.9064C3.14472 36.5249 3.00002 37.2514 3 37.9999L4 37.9999C4.00002 37.3733 4.12188 36.8441 4.37632 36.4286C4.62537 36.022 5.02487 35.6852 5.65805 35.4742L5.34195 34.5255ZM9 23.5H12V22.5H9V23.5ZM12.5 24V31H13.5V24H12.5ZM12 31.5H9V32.5H12V31.5ZM8.5 31V24H7.5V31H8.5ZM9 31.5C8.72386 31.5 8.5 31.2761 8.5 31H7.5C7.5 31.8284 8.17157 32.5 9 32.5V31.5ZM12.5 31C12.5 31.2761 12.2761 31.5 12 31.5V32.5C12.8284 32.5 13.5 31.8284 13.5 31H12.5ZM12 23.5C12.2761 23.5 12.5 23.7239 12.5 24H13.5C13.5 23.1716 12.8284 22.5 12 22.5V23.5ZM9 22.5C8.17157 22.5 7.5 23.1716 7.5 24H8.5C8.5 23.7239 8.72386 23.5 9 23.5V22.5ZM3 41V38.5H2V41H3ZM3 38.5C3 38.5036 2.99978 38.5034 3.00023 38.5001C3.00066 38.4971 3.00144 38.4931 3.00264 38.4889C3.00383 38.4848 3.00506 38.4816 3.00596 38.4797C3.00685 38.4778 3.00698 38.478 3.00577 38.4797C3.00447 38.4815 3.00175 38.4848 2.9973 38.4888C2.9927 38.4928 2.9875 38.4964 2.98236 38.499C2.97719 38.5017 2.97447 38.5022 2.97582 38.5019C2.97734 38.5016 2.98486 38.5 3 38.5V37.5C2.63704 37.5 2.36193 37.6624 2.19423 37.8953C2.04489 38.1028 2 38.3367 2 38.5H3ZM3 38.5H16.5V37.5H3V38.5ZM16 38V40.5H17V38H16ZM17 38V20H16V38H17ZM16.8881 20.3153L23.3881 12.3153L22.6119 11.6847L16.1119 19.6847L16.8881 20.3153ZM23.3536 12.3536C23.4088 12.2983 23.5248 12.2005 23.6638 12.1198C23.8099 12.0348 23.9276 12 24 12V11C23.6724 11 23.3734 11.1318 23.1612 11.2552C22.9418 11.3828 22.7579 11.535 22.6464 11.6464L23.3536 12.3536ZM16.5 19.5H13.5V20.5H16.5V19.5ZM13.5 19.5C13.5036 19.5 13.5034 19.5002 13.5001 19.4998C13.4971 19.4993 13.4931 19.4986 13.4889 19.4974C13.4848 19.4962 13.4816 19.4949 13.4797 19.494C13.4778 19.4932 13.478 19.493 13.4797 19.4942C13.4815 19.4955 13.4848 19.4982 13.4888 19.5027C13.4928 19.5073 13.4964 19.5125 13.499 19.5176C13.5017 19.5228 13.5022 19.5255 13.5019 19.5242C13.5016 19.5227 13.5 19.5151 13.5 19.5H12.5C12.5 19.863 12.6624 20.1381 12.8953 20.3058C13.1028 20.4551 13.3367 20.5 13.5 20.5V19.5ZM23.3536 7.85355C23.4088 7.79832 23.5248 7.70055 23.6638 7.61975C23.8099 7.53482 23.9276 7.5 24 7.5V6.5C23.6724 6.5 23.3734 6.63184 23.1612 6.75525C22.9418 6.88279 22.7579 7.03501 22.6464 7.14645L23.3536 7.85355ZM5.5 35V18.5H4.5V35H5.5ZM13.5 19.5C13.5 19.5576 13.4892 19.6001 13.4845 19.6167C13.479 19.6364 13.4736 19.6494 13.472 19.6532C13.469 19.6603 13.47 19.6567 13.4804 19.6386C13.5006 19.6035 13.5367 19.5471 13.5929 19.4666C13.7039 19.3075 13.8708 19.0855 14.0877 18.8078L13.2997 18.1922C13.0793 18.4743 12.8993 18.7131 12.7728 18.8944C12.7102 18.9841 12.655 19.0679 12.6134 19.1402C12.593 19.1758 12.5705 19.2177 12.5518 19.2618C12.54 19.2894 12.5 19.3828 12.5 19.5H13.5ZM5 19H13.6937V18H5V19ZM5 18H1.5V19H5V18ZM1.5 18C1.50358 18 1.50336 18.0002 1.50011 17.9998C1.49706 17.9993 1.49311 17.9986 1.48892 17.9974C1.48476 17.9962 1.48164 17.9949 1.47971 17.994C1.47781 17.9932 1.47797 17.993 1.47965 17.9942C1.48145 17.9955 1.48482 17.9982 1.48876 18.0027C1.49283 18.0073 1.49639 18.0125 1.49904 18.0176C1.50171 18.0228 1.50222 18.0255 1.50191 18.0242C1.50156 18.0227 1.5 18.0151 1.5 18H0.5C0.5 18.363 0.662433 18.6381 0.895348 18.8058C1.10277 18.9551 1.33665 19 1.5 19V18ZM8.38411 8.82009C8.62901 8.52621 9.05575 8.5 9.49824 8.5L9.49824 7.5C9.14026 7.5 8.20433 7.47378 7.61589 8.17991L8.38411 8.82009ZM22.9433 8.3277C23.0933 8.15484 23.2382 7.98804 23.3773 7.82809L22.6227 7.17191C22.4834 7.33213 22.3382 7.4992 22.188 7.6723L22.9433 8.3277ZM1.5 18C1.5 18.0697 1.48366 18.1177 1.48257 18.1211C1.47888 18.1327 1.47691 18.136 1.48048 18.1281C1.4875 18.1125 1.50286 18.0819 1.53047 18.0331C1.5848 17.9371 1.66868 17.8014 1.78075 17.6291C2.00374 17.2863 2.32229 16.8228 2.69965 16.2884L1.88282 15.7116C1.50283 16.2496 1.17577 16.7252 0.942475 17.0839C0.826405 17.2623 0.729475 17.4181 0.660036 17.5408C0.625757 17.6014 0.593496 17.6622 0.568356 17.7182C0.555856 17.746 0.541673 17.7802 0.529795 17.8174C0.520506 17.8466 0.5 17.9151 0.5 18H1.5ZM2.69965 16.2884C3.33584 15.3876 4.13167 14.2962 4.90077 13.2652L4.09923 12.6673C3.3263 13.7034 2.52517 14.802 1.88282 15.7116L2.69965 16.2884ZM4.90077 13.2652C6.21536 11.503 7.29332 10.129 8.38411 8.82009L7.61589 8.17991C6.51118 9.50556 5.422 10.8941 4.09923 12.6673L4.90077 13.2652ZM14.0877 18.8078C14.9492 17.7051 16.9223 15.289 18.6208 13.29L17.8588 12.6425C16.1542 14.6485 14.172 17.0756 13.2997 18.1922L14.0877 18.8078ZM18.6208 13.29C20.2547 11.3672 21.5922 9.88477 22.9433 8.3277L22.188 7.6723C20.8548 9.2088 19.4942 10.7179 17.8588 12.6425L18.6208 13.29ZM2.09213 15.4164L1.88337 15.7108L2.69911 16.2892L2.90787 15.9948L2.09213 15.4164ZM31.8881 19.6847L25.3881 11.6847L24.6119 12.3153L31.1119 20.3153L31.8881 19.6847ZM25.3536 11.6464C25.2421 11.535 25.0582 11.3828 24.8388 11.2552C24.6266 11.1318 24.3276 11 24 11V12C24.0724 12 24.1901 12.0348 24.3362 12.1198C24.4752 12.2005 24.5912 12.2983 24.6464 12.3536L25.3536 11.6464ZM31.5 20.5H34.5V19.5H31.5V20.5ZM34.5 20.5C34.6633 20.5 34.8972 20.4551 35.1047 20.3058C35.3376 20.1381 35.5 19.863 35.5 19.5H34.5C34.5 19.5151 34.4984 19.5227 34.4981 19.5242C34.4978 19.5255 34.4983 19.5228 34.501 19.5176C34.5036 19.5125 34.5072 19.5073 34.5112 19.5027C34.5152 19.4982 34.5185 19.4955 34.5203 19.4942C34.522 19.493 34.5222 19.4932 34.5203 19.494C34.5184 19.4949 34.5152 19.4962 34.5111 19.4974C34.5069 19.4986 34.5029 19.4993 34.4999 19.4998C34.4966 19.5002 34.4964 19.5 34.5 19.5V20.5ZM25.3536 7.14645C25.2421 7.03501 25.0582 6.88279 24.8388 6.75525C24.6266 6.63184 24.3276 6.5 24 6.5V7.5C24.0724 7.5 24.1901 7.53482 24.3362 7.61975C24.4752 7.70055 24.5912 7.79832 24.6464 7.85355L25.3536 7.14645ZM43.5 41V18.5H42.5V41H43.5ZM35.5 19.5C35.5 19.3828 35.46 19.2894 35.4482 19.2618C35.4295 19.2177 35.407 19.1758 35.3866 19.1402C35.345 19.0679 35.2898 18.9841 35.2272 18.8944C35.1007 18.7131 34.9207 18.4743 34.7003 18.1922L33.9123 18.8078C34.1292 19.0855 34.2961 19.3075 34.4071 19.4666C34.4633 19.5471 34.4994 19.6035 34.5196 19.6386C34.53 19.6567 34.531 19.6603 34.528 19.6532C34.5264 19.6494 34.521 19.6364 34.5155 19.6167C34.5108 19.6 34.5 19.5576 34.5 19.5H35.5ZM43 18H34.3063V19H43V18ZM43 19H46.5V18H43V19ZM46.5 19C46.6633 19 46.8972 18.9551 47.1047 18.8058C47.3376 18.6381 47.5 18.363 47.5 18H46.5C46.5 18.0151 46.4984 18.0227 46.4981 18.0242C46.4978 18.0255 46.4983 18.0228 46.501 18.0176C46.5036 18.0125 46.5072 18.0073 46.5112 18.0027C46.5152 17.9982 46.5185 17.9955 46.5203 17.9942C46.522 17.993 46.5222 17.9932 46.5203 17.994C46.5184 17.9949 46.5152 17.9962 46.5111 17.9974C46.5069 17.9986 46.5029 17.9993 46.4999 17.9998C46.4966 18.0002 46.4964 18 46.5 18V19ZM40.3841 8.17991C39.7957 7.47378 38.8597 7.5 38.5018 7.5V8.5C38.9443 8.5 39.371 8.52621 39.6159 8.82009L40.3841 8.17991ZM25.812 7.6723C25.6618 7.4992 25.5166 7.33213 25.3773 7.17191L24.6227 7.82809C24.7618 7.98804 24.9067 8.15484 25.0567 8.3277L25.812 7.6723ZM47.5 18C47.5 17.9151 47.4795 17.8466 47.4702 17.8174C47.4583 17.7802 47.4441 17.746 47.4316 17.7182C47.4065 17.6622 47.3742 17.6014 47.34 17.5408C47.2705 17.4181 47.1736 17.2623 47.0575 17.0839C46.8242 16.7252 46.4972 16.2496 46.1172 15.7116L45.3003 16.2884C45.6777 16.8228 45.9963 17.2863 46.2193 17.6291C46.3313 17.8014 46.4152 17.9371 46.4695 18.0331C46.4971 18.0819 46.5125 18.1125 46.5195 18.1281C46.5231 18.136 46.5211 18.1327 46.5174 18.1211C46.5163 18.1177 46.5 18.0697 46.5 18H47.5ZM46.1172 15.7116C45.4748 14.802 44.6737 13.7034 43.9008 12.6673L43.0992 13.2652C43.8683 14.2962 44.6642 15.3876 45.3003 16.2884L46.1172 15.7116ZM43.9008 12.6673C42.578 10.8941 41.4888 9.50556 40.3841 8.17991L39.6159 8.82009C40.7067 10.129 41.7846 11.503 43.0992 13.2652L43.9008 12.6673ZM34.7003 18.1922C33.828 17.0756 31.8458 14.6485 30.1412 12.6425L29.3792 13.29C31.0777 15.289 33.0508 17.7051 33.9123 18.8078L34.7003 18.1922ZM30.1412 12.6425C28.5058 10.7179 27.1452 9.2088 25.812 7.6723L25.0567 8.3277C26.4078 9.88477 27.7453 11.3672 29.3792 13.29L30.1412 12.6425ZM45.0921 15.9948L45.3009 16.2892L46.1166 15.7108L45.9079 15.4164L45.0921 15.9948ZM9.49824 8.5H22.5657V7.5H9.49824V8.5ZM31 20V40.5H32V20H31ZM38.5018 7.5H25.4343V8.5H38.5018V7.5ZM39 22.5H36V23.5H39V22.5ZM34.5 24V31H35.5V24H34.5ZM36 32.5H39V31.5H36V32.5ZM40.5 31V24H39.5V31H40.5ZM39 32.5C39.8284 32.5 40.5 31.8284 40.5 31H39.5C39.5 31.2761 39.2761 31.5 39 31.5V32.5ZM34.5 31C34.5 31.8284 35.1716 32.5 36 32.5V31.5C35.7239 31.5 35.5 31.2761 35.5 31H34.5ZM36 22.5C35.1716 22.5 34.5 23.1716 34.5 24H35.5C35.5 23.7239 35.7239 23.5 36 23.5V22.5ZM39 23.5C39.2761 23.5 39.5 23.7239 39.5 24H40.5C40.5 23.1716 39.8284 22.5 39 22.5V23.5ZM35.5 27H39.5V26H35.5V27ZM21 28.5H27V27.5H21V28.5ZM27.5 29V41H28.5V29H27.5ZM20.5 41V29H19.5V41H20.5ZM21 40.5H20V41.5H21V40.5ZM28 40.5H27V41.5H28V40.5ZM27 28.5C27.2761 28.5 27.5 28.7239 27.5 29H28.5C28.5 28.1716 27.8284 27.5 27 27.5V28.5ZM21 27.5C20.1716 27.5 19.5 28.1716 19.5 29H20.5C20.5 28.7239 20.7239 28.5 21 28.5V27.5ZM26.5 20V23H27.5V20H26.5ZM26 23.5H22V24.5H26V23.5ZM21.5 23V20H20.5V23H21.5ZM22 23.5C21.7239 23.5 21.5 23.2761 21.5 23H20.5C20.5 23.8284 21.1716 24.5 22 24.5V23.5ZM26.5 23C26.5 23.2761 26.2761 23.5 26 23.5V24.5C26.8284 24.5 27.5 23.8284 27.5 23H26.5ZM24 17.5C25.3807 17.5 26.5 18.6193 26.5 20H27.5C27.5 18.067 25.933 16.5 24 16.5V17.5ZM24 16.5C22.067 16.5 20.5 18.067 20.5 20H21.5C21.5 18.6193 22.6193 17.5 24 17.5V16.5ZM2.5 41.5H43V40.5H2.5V41.5ZM12.5 26H8.5V27H12.5V26ZM1 41.5H47V40.5H1V41.5Z" fill="#3B4857"/>
</svg>
