<svg width="48" height="48" viewBox="0 0 48 48" fill="none" xmlns="http://www.w3.org/2000/svg">
<g clip-path="url(#clip0)">
<path d="M0.5 47C0.223858 47 0 47.2239 0 47.5C0 47.7761 0.223858 48 0.5 48V47ZM47.5 48C47.7761 48 48 47.7761 48 47.5C48 47.2239 47.7761 47 47.5 47V48ZM6.22086 47.5H5.72086V48H6.22086V47.5ZM6.22086 21.8723H6.72086V20.7297L5.88157 21.505L6.22086 21.8723ZM5.00012 23L4.66084 22.6327L4.65357 22.6394L4.64657 22.6464L5.00012 23ZM3.50012 23.5L3.85368 23.1464L3.85366 23.1464L3.50012 23.5ZM2 22L1.64645 22.3536L1.64646 22.3536L2 22ZM2 21L1.64645 20.6464H1.64645L2 21ZM21.5001 1.5L21.8536 1.85355L21.8536 1.85355L21.5001 1.5ZM41.7791 47.5V48H42.2791V47.5H41.7791ZM41.7791 22L42.0973 21.6144L41.2791 20.9391V22H41.7791ZM42.9908 23L43.341 22.6431L43.3257 22.6281L43.3091 22.6144L42.9908 23ZM43.5001 23.4998L43.8537 23.1462L43.8503 23.1429L43.5001 23.4998ZM44.4999 23.5L44.8535 23.8536L44.4999 23.5ZM45.9999 22L45.6464 21.6464L45.6464 21.6464L45.9999 22ZM45.9999 21L45.6464 21.3536L45.6464 21.3536L45.9999 21ZM26.4998 1.5L26.1463 1.85355L26.1463 1.85355L26.4998 1.5ZM11.9999 36.5C11.7238 36.5 11.4999 36.7239 11.4999 37C11.4999 37.2761 11.7238 37.5 11.9999 37.5V36.5ZM21.9999 37.5C22.276 37.5 22.4999 37.2761 22.4999 37C22.4999 36.7239 22.276 36.5 21.9999 36.5V37.5ZM11.9999 25.5C11.7238 25.5 11.4999 25.7239 11.4999 26C11.4999 26.2761 11.7238 26.5 11.9999 26.5V25.5ZM21.9999 26.5C22.276 26.5 22.4999 26.2761 22.4999 26C22.4999 25.7239 22.276 25.5 21.9999 25.5V26.5ZM25.9999 24.5C25.7237 24.5 25.4999 24.7239 25.4999 25C25.4999 25.2761 25.7237 25.5 25.9999 25.5V24.5ZM35.9999 25.5C36.276 25.5 36.4999 25.2761 36.4999 25C36.4999 24.7239 36.276 24.5 35.9999 24.5V25.5ZM23.0001 5L23.3537 5.35355L23.3537 5.35353L23.0001 5ZM3.00012 47L2.5841 47.2774L3.06202 47.9942L3.44734 47.2236L3.00012 47ZM1.41615 43.7226C1.26297 43.4929 0.952536 43.4308 0.722772 43.584C0.493008 43.7372 0.430921 44.0476 0.584097 44.2774L1.41615 43.7226ZM4.44734 45.2236C4.57083 44.9766 4.47072 44.6763 4.22373 44.5528C3.97674 44.4293 3.6764 44.5294 3.55291 44.7764L4.44734 45.2236ZM45.0001 47L44.5529 47.2236L44.9382 47.9942L45.4161 47.2774L45.0001 47ZM47.4161 44.2774C47.5693 44.0476 47.5072 43.7372 47.2775 43.584C47.0477 43.4308 46.7373 43.4929 46.5841 43.7226L47.4161 44.2774ZM44.4473 44.7764C44.3238 44.5294 44.0235 44.4293 43.7765 44.5528C43.5295 44.6763 43.4294 44.9766 43.5529 45.2236L44.4473 44.7764ZM34.0001 40.25C34.0001 40.1119 34.112 40 34.2501 40V41C34.6643 41 35.0001 40.6642 35.0001 40.25H34.0001ZM34.2501 40C34.3882 40 34.5001 40.1119 34.5001 40.25H33.5001C33.5001 40.6642 33.8359 41 34.2501 41V40ZM34.5001 40.25C34.5001 40.3881 34.3882 40.5 34.2501 40.5V39.5C33.8359 39.5 33.5001 39.8358 33.5001 40.25H34.5001ZM34.2501 40.5C34.112 40.5 34.0001 40.3881 34.0001 40.25H35.0001C35.0001 39.8358 34.6643 39.5 34.2501 39.5V40.5ZM6.72086 47.5V21.8723H5.72086V47.5H6.72086ZM5.88157 21.505L4.66084 22.6327L5.33941 23.3673L6.56015 22.2395L5.88157 21.505ZM4.64657 22.6464L4.14657 23.1464L4.85368 23.8536L5.35368 23.3536L4.64657 22.6464ZM4.14657 23.1464C4.0275 23.2655 3.95888 23.3211 3.92075 23.3454C3.88822 23.3661 3.92727 23.3322 4.00789 23.3396C4.07993 23.3461 4.10655 23.3796 4.06409 23.3462C4.04509 23.3312 4.01928 23.3086 3.98246 23.2735C3.94563 23.2384 3.90479 23.1976 3.85368 23.1464L3.14657 23.8536C3.23881 23.9458 3.34353 24.0516 3.44553 24.1319C3.54995 24.2141 3.70781 24.3164 3.91735 24.3354C4.13548 24.3553 4.31827 24.2777 4.45762 24.189C4.59136 24.1039 4.72275 23.9845 4.85368 23.8536L4.14657 23.1464ZM2.35355 21.6464C2.28999 21.5829 2.23927 21.5321 2.19667 21.4878C2.15375 21.443 2.12665 21.4126 2.10924 21.3908C2.06593 21.3367 2.12503 21.3873 2.12505 21.5C2.12506 21.6127 2.06596 21.6633 2.10924 21.6092C2.12665 21.5874 2.15374 21.557 2.19666 21.5123C2.23926 21.4679 2.28999 21.4171 2.35355 21.3536L1.64645 20.6464C1.53006 20.7628 1.41229 20.8796 1.32829 20.9846C1.2466 21.0867 1.12502 21.2624 1.12505 21.5001C1.12507 21.7378 1.24668 21.9134 1.32836 22.0155C1.41236 22.1205 1.53011 22.2372 1.64645 22.3536L2.35355 21.6464ZM21.8536 1.85355C22.1234 1.58382 22.97 1 24.0001 1V0C22.6302 0 21.5435 0.749515 21.1465 1.14645L21.8536 1.85355ZM42.2791 47.5V22H41.2791V47.5H42.2791ZM41.4608 22.3856L42.6726 23.3856L43.3091 22.6144L42.0973 21.6144L41.4608 22.3856ZM42.6406 23.3569L43.1499 23.8567L43.8503 23.1429L43.341 22.6431L42.6406 23.3569ZM43.1466 23.8534C43.2775 23.9843 43.4088 24.1037 43.5425 24.1888C43.6817 24.2775 43.8645 24.3551 44.0826 24.3354C44.2922 24.3164 44.4501 24.2141 44.5545 24.1319C44.6565 24.0516 44.7613 23.9458 44.8535 23.8536L44.1464 23.1464C44.0953 23.1976 44.0544 23.2384 44.0176 23.2735C43.9808 23.3086 43.955 23.3312 43.936 23.3462C43.8936 23.3795 43.9203 23.346 43.9924 23.3394C44.0731 23.3321 44.1122 23.366 44.0796 23.3453C44.0414 23.321 43.9728 23.2653 43.8537 23.1463L43.1466 23.8534ZM46.3534 22.3536C46.4698 22.2373 46.5876 22.1205 46.6717 22.0155C46.7534 21.9135 46.8751 21.7378 46.8751 21.5C46.8751 21.2622 46.7534 21.0865 46.6717 20.9845C46.5876 20.8795 46.4698 20.7627 46.3534 20.6464L45.6464 21.3536C45.71 21.4172 45.7608 21.468 45.8034 21.5124C45.8464 21.5571 45.8735 21.5875 45.8909 21.6093C45.9343 21.6635 45.8751 21.6128 45.8751 21.5C45.8751 21.3872 45.9343 21.3365 45.8909 21.3907C45.8735 21.4125 45.8464 21.4429 45.8034 21.4876C45.7608 21.532 45.71 21.5828 45.6464 21.6464L46.3534 22.3536ZM26.8534 1.14645C26.4565 0.749546 25.37 0 24.0001 0V1C25.0301 1 25.8765 1.58379 26.1463 1.85355L26.8534 1.14645ZM12.9999 22.5H20.9999V21.5H12.9999V22.5ZM21.4999 23V29H22.4999V23H21.4999ZM20.9999 29.5H12.9999V30.5H20.9999V29.5ZM12.4999 29V23H11.4999V29H12.4999ZM12.9999 29.5C12.7238 29.5 12.4999 29.2761 12.4999 29H11.4999C11.4999 29.8284 12.1715 30.5 12.9999 30.5V29.5ZM21.4999 29C21.4999 29.2761 21.276 29.5 20.9999 29.5V30.5C21.8283 30.5 22.4999 29.8284 22.4999 29H21.4999ZM20.9999 22.5C21.276 22.5 21.4999 22.7239 21.4999 23H22.4999C22.4999 22.1716 21.8283 21.5 20.9999 21.5V22.5ZM12.9999 21.5C12.1715 21.5 11.4999 22.1716 11.4999 23H12.4999C12.4999 22.7239 12.7238 22.5 12.9999 22.5V21.5ZM26.9999 22.5H34.9999V21.5H26.9999V22.5ZM35.4999 23V29H36.4999V23H35.4999ZM34.9999 29.5H26.9999V30.5H34.9999V29.5ZM26.4999 29V23H25.4999V29H26.4999ZM26.9999 29.5C26.7238 29.5 26.4999 29.2761 26.4999 29H25.4999C25.4999 29.8284 26.1715 30.5 26.9999 30.5V29.5ZM35.4999 29C35.4999 29.2761 35.276 29.5 34.9999 29.5V30.5C35.8283 30.5 36.4999 29.8284 36.4999 29H35.4999ZM34.9999 22.5C35.276 22.5 35.4999 22.7239 35.4999 23H36.4999C36.4999 22.1716 35.8283 21.5 34.9999 21.5V22.5ZM26.9999 21.5C26.1715 21.5 25.4999 22.1716 25.4999 23H26.4999C26.4999 22.7239 26.7238 22.5 26.9999 22.5V21.5ZM26.9999 33.5H34.9999V32.5H26.9999V33.5ZM35.4999 34V47H36.4999V34H35.4999ZM34.9999 47.5H26.9999V48.5H34.9999V47.5ZM26.4999 47V34H25.4999V47H26.4999ZM26.9999 47.5C26.7238 47.5 26.4999 47.2761 26.4999 47H25.4999C25.4999 47.8284 26.1715 48.5 26.9999 48.5V47.5ZM35.4999 47C35.4999 47.2761 35.276 47.5 34.9999 47.5V48.5C35.8283 48.5 36.4999 47.8284 36.4999 47H35.4999ZM34.9999 33.5C35.276 33.5 35.4999 33.7239 35.4999 34H36.4999C36.4999 33.1716 35.8283 32.5 34.9999 32.5V33.5ZM26.9999 32.5C26.1715 32.5 25.4999 33.1716 25.4999 34H26.4999C26.4999 33.7239 26.7238 33.5 26.9999 33.5V32.5ZM12.9999 33.5H20.9999V32.5H12.9999V33.5ZM21.4999 34V40H22.4999V34H21.4999ZM20.9999 40.5H12.9999V41.5H20.9999V40.5ZM12.4999 40V34H11.4999V40H12.4999ZM12.9999 40.5C12.7238 40.5 12.4999 40.2761 12.4999 40H11.4999C11.4999 40.8284 12.1715 41.5 12.9999 41.5V40.5ZM21.4999 40C21.4999 40.2761 21.276 40.5 20.9999 40.5V41.5C21.8283 41.5 22.4999 40.8284 22.4999 40H21.4999ZM20.9999 33.5C21.276 33.5 21.4999 33.7239 21.4999 34H22.4999C22.4999 33.1716 21.8283 32.5 20.9999 32.5V33.5ZM12.9999 32.5C12.1715 32.5 11.4999 33.1716 11.4999 34H12.4999C12.4999 33.7239 12.7238 33.5 12.9999 33.5V32.5ZM17.4999 41V37H16.4999V41H17.4999ZM17.4999 37L17.4999 33L16.4999 33L16.4999 37L17.4999 37ZM17.4999 29.5V26H16.4999V29.5H17.4999ZM17.4999 26V22.5H16.4999V26H17.4999ZM11.9999 37.5H16.9999V36.5H11.9999V37.5ZM16.9999 37.5H21.9999V36.5H16.9999V37.5ZM11.9999 26.5H16.9999V25.5H11.9999V26.5ZM16.9999 26.5H21.9999V25.5H16.9999V26.5ZM25.9999 25.5H35.9999V24.5H25.9999V25.5ZM41.7791 47H6.22086V48H41.7791V47ZM3.85366 23.1464L2.35354 21.6464L1.64646 22.3536L3.14658 23.8536L3.85366 23.1464ZM2.35355 21.3536L21.8536 1.85355L21.1465 1.14645L1.64645 20.6464L2.35355 21.3536ZM44.8535 23.8536L46.3535 22.3536L45.6464 21.6464L44.1464 23.1464L44.8535 23.8536ZM46.3535 20.6464L26.8534 1.14645L26.1463 1.85355L45.6464 21.3536L46.3535 20.6464ZM47.5 47H0.5V48H47.5V47ZM4.85368 23.8536L23.3537 5.35355L22.6466 4.64645L4.14657 23.1464L4.85368 23.8536ZM23.3537 5.35353C23.4089 5.2983 23.525 5.20054 23.6639 5.11975C23.81 5.03483 23.9276 5 24.0001 5V4C23.6725 4 23.3735 4.13184 23.1613 4.25525C22.9419 4.3828 22.758 4.53503 22.6465 4.64647L23.3537 5.35353ZM24.0001 5C24.0725 5 24.1902 5.03483 24.3363 5.11976C24.4753 5.20055 24.5913 5.29832 24.6466 5.35355L25.3537 4.64645C25.2422 4.53501 25.0583 4.38278 24.8389 4.25524C24.6267 4.13184 24.3277 4 24.0001 4V5ZM43.3537 22.6649L25.1995 4.51067L24.4924 5.21778L42.6466 23.372L43.3537 22.6649ZM3.41615 46.7226L1.41615 43.7226L0.584097 44.2774L2.5841 47.2774L3.41615 46.7226ZM3.44734 47.2236L4.44734 45.2236L3.55291 44.7764L2.55291 46.7764L3.44734 47.2236ZM45.4161 47.2774L47.4161 44.2774L46.5841 43.7226L44.5841 46.7226L45.4161 47.2774ZM45.4473 46.7764L44.4473 44.7764L43.5529 45.2236L44.5529 47.2236L45.4473 46.7764Z" fill="#3B4857"/>
<g opacity="0.2">
<path d="M25.9999 33H35.9999V47H25.9999V33Z" fill="#3B4857"/>
<path d="M25.9999 22H35.9999V30H25.9999V22Z" fill="#3B4857"/>
<path d="M11.9999 22H21.9999V30H11.9999V22Z" fill="#3B4857"/>
<path d="M11.9999 33H21.9999V41H11.9999V33Z" fill="#3B4857"/>
<path d="M5.99994 45H25.9999V48H5.99994V45Z" fill="#3B4857"/>
<path d="M35.9999 45H41.9999V48H35.9999V45Z" fill="#3B4857"/>
<path d="M26 0.999939L46.647 21.2426L44.2426 23.647L24 4.49994L19.5 7.99994L4 23.5001L2 21.5001L21.5 1.99994L24 0.499939L26 0.999939Z" fill="#3B4857"/>
</g>
</g>
<defs>
<clipPath id="clip0">
<rect width="48" height="48" fill="white"/>
</clipPath>
</defs>
</svg>
