<svg width="48" height="48" viewBox="0 0 48 48" fill="none" xmlns="http://www.w3.org/2000/svg">
<path opacity="0.2" d="M30.5 6.5V8.5H17.5V6.5H26.5H27H30.5ZM27.5 5.5V1.5H32.5V5.5H31.5H31H27.5ZM30.5921 28.9914L30.9731 28.92L30.9989 28.5333L31.4989 21.0333L31.521 20.7015L31.2236 20.5528L29.2236 19.5528L29.118 19.5H29H27.5V10.5H31.7906L34.1402 11.4612L35.0636 11.857L37.4893 23.5L35.0156 35.3738L31.5218 46.5H27.5V29.5712L30.5921 28.9914Z" fill="#3B4857" stroke="#3B4857"/>
<path fill-rule="evenodd" clip-rule="evenodd" d="M15.75 1.52687V5C15.75 5.26338 15.8386 5.36676 15.8959 5.41391C15.9736 5.47789 16.074 5.5 16.125 5.5H31.875C31.9261 5.5 32.0265 5.47789 32.1042 5.41391C32.1615 5.36676 32.25 5.26338 32.25 5V1.52687C32.2483 1.51547 32.2448 1.49642 32.2384 1.47224C32.2241 1.41877 32.198 1.34943 32.1522 1.28244C32.0782 1.17439 31.9076 1 31.4375 1H16.5625C16.0924 1 15.9219 1.17439 15.8479 1.28244C15.8021 1.34943 15.7759 1.41877 15.7617 1.47224C15.7553 1.49642 15.7518 1.51547 15.75 1.52687ZM32.75 1.5L33.2492 1.47175L33.25 1.48586V5C33.25 5.53662 33.0469 5.93324 32.7396 6.18609C32.4528 6.42211 32.1157 6.5 31.875 6.5H31.5V9.12285L34.6956 10.0359L34.7481 10.0659C34.8985 10.1518 35.0117 10.2806 35.095 10.395C35.1827 10.5157 35.2638 10.6583 35.3394 10.8113C35.4908 11.1176 35.6415 11.5099 35.7902 11.9538C36.0886 12.844 36.3976 13.9989 36.6986 15.2162C36.9567 16.2598 37.2082 17.3448 37.4441 18.3626C37.7646 19.7457 38.0564 21.0045 38.2967 21.8656L38.3057 21.8978L38.3103 21.9309C38.3823 22.4468 38.4678 23.2902 38.4928 24.1606C38.5174 25.0168 38.4859 25.9567 38.2967 26.6344C37.9619 27.8342 34.2632 40.7546 32.4457 47.0999C32.4296 47.1939 32.3939 47.2688 32.3655 47.3183C32.325 47.3889 32.276 47.4478 32.2317 47.4941C32.1428 47.587 32.0338 47.6695 31.9252 47.7371C31.7224 47.8632 31.4185 48 31.1169 48H16.8832C16.5816 48 16.2777 47.8632 16.0749 47.7371C15.9662 47.6695 15.8572 47.587 15.7684 47.4941C15.7241 47.4478 15.6751 47.3889 15.6345 47.3183C15.6061 47.2688 15.5705 47.1939 15.5544 47.0999C13.7369 40.7546 10.0382 27.8342 9.70336 26.6344C9.51421 25.9567 9.48265 25.0168 9.50724 24.1606C9.53225 23.2902 9.61777 22.4468 9.68976 21.9309L9.69438 21.8978L9.70336 21.8656C9.9437 21.0045 10.2354 19.7457 10.556 18.3626C10.7919 17.3448 11.0433 16.2597 11.3014 15.2162C11.6025 13.9989 11.9115 12.844 12.2098 11.9538C12.3586 11.5099 12.5093 11.1176 12.6607 10.8113C12.7363 10.6583 12.8174 10.5157 12.9051 10.395C12.9883 10.2806 13.1016 10.1518 13.252 10.0659L13.3045 10.0359L16.5 9.12285V6.5H16.125C15.8844 6.5 15.5473 6.42211 15.2605 6.18609C14.9532 5.93324 14.75 5.53662 14.75 5V1.48586L14.7508 1.47174L15.25 1.5C14.7508 1.47174 14.7508 1.47206 14.7508 1.47174L14.7509 1.47047L14.751 1.4691L14.7512 1.46606L14.7517 1.45882L14.7534 1.43977C14.7548 1.42513 14.757 1.40658 14.7602 1.38465C14.7666 1.34095 14.7773 1.28293 14.7953 1.21526C14.8309 1.08123 14.8975 0.900568 15.0227 0.717562C15.2911 0.325606 15.7767 0 16.5625 0H31.4375C32.2233 0 32.709 0.325606 32.9773 0.717563C33.1026 0.900568 33.1691 1.08123 33.2048 1.21526C33.2228 1.28293 33.2335 1.34095 33.2399 1.38465C33.2431 1.40658 33.2452 1.42513 33.2467 1.43977L33.2484 1.45882L33.2489 1.46606L33.2491 1.4691L33.2492 1.47047L33.2492 1.47175C33.2493 1.47206 33.2492 1.47175 32.75 1.5ZM17.5 6.5V9H30.5V6.5H17.5ZM30.93 10H17.0701L13.7378 10.9521C13.7312 10.9601 13.7232 10.9703 13.714 10.983C13.6711 11.042 13.6183 11.1306 13.5572 11.2543C13.435 11.5017 13.3009 11.8452 13.158 12.2715C12.8732 13.1216 12.572 14.244 12.2722 15.4563C12.0238 16.4604 11.7755 17.531 11.54 18.5467C11.2171 19.9384 10.9182 21.2273 10.6757 22.1017C10.609 22.5889 10.5301 23.3782 10.5068 24.1894C10.4826 25.0332 10.5208 25.8433 10.6666 26.3656C11.0002 27.5611 14.6978 40.4777 16.5161 46.8259C16.5363 46.8428 16.5653 46.8644 16.6031 46.8879C16.6599 46.9233 16.7225 46.954 16.7802 46.9748C16.8415 46.9968 16.8761 47 16.8832 47H31.1169C31.1239 47 31.1586 46.9968 31.2199 46.9748C31.2776 46.954 31.3401 46.9233 31.397 46.8879C31.4348 46.8644 31.4638 46.8428 31.4839 46.8259C33.3023 40.4777 36.9999 27.5611 37.3335 26.3656C37.4793 25.8433 37.5175 25.0332 37.4932 24.1894C37.4699 23.3782 37.3911 22.5889 37.3244 22.1017C37.0819 21.2273 36.7829 19.9384 36.4601 18.5467C36.2245 17.531 35.9762 16.4604 35.7279 15.4563C35.4281 14.244 35.1269 13.1216 34.8421 12.2715C34.6992 11.8452 34.5651 11.5017 34.4429 11.2543C34.3818 11.1306 34.3289 11.042 34.2861 10.983C34.2769 10.9703 34.2689 10.9601 34.2623 10.9521L30.93 10ZM16.5 22C16.5 20.6193 17.6193 19.5 19 19.5H29C30.3808 19.5 31.5 20.6193 31.5 22V27C31.5 28.3807 30.3808 29.5 29 29.5H19C17.6193 29.5 16.5 28.3807 16.5 27V22ZM19 20.5C18.1716 20.5 17.5 21.1716 17.5 22V27C17.5 27.8284 18.1716 28.5 19 28.5H29C29.8285 28.5 30.5 27.8284 30.5 27V22C30.5 21.1716 29.8285 20.5 29 20.5H19ZM19.5 23C19.5 22.7239 19.7239 22.5 20 22.5H28C28.2762 22.5 28.5 22.7239 28.5 23C28.5 23.2761 28.2762 23.5 28 23.5H20C19.7239 23.5 19.5 23.2761 19.5 23ZM21.5 26C21.5 25.7239 21.7239 25.5 22 25.5H26C26.2762 25.5 26.5 25.7239 26.5 26C26.5 26.2761 26.2762 26.5 26 26.5H22C21.7239 26.5 21.5 26.2761 21.5 26Z" fill="#3B4857"/>
</svg>
