<svg width="48" height="48" viewBox="0 0 48 48" fill="none" xmlns="http://www.w3.org/2000/svg">
<rect opacity="0.2" x="7" y="41" width="34" height="6" fill="#3B4857"/>
<path fill-rule="evenodd" clip-rule="evenodd" d="M18.2271 1.89417C16.6159 2.57012 15.2193 3.72428 13.9587 5.6794L13.811 5.90845H7.65388C7.58138 5.90845 7.5596 5.92577 7.5596 5.92577C7.55528 5.92874 7.54468 5.93762 7.53185 5.96415C7.51826 5.99226 7.50896 6.02666 7.50384 6.05842C7.50148 6.07309 7.50048 6.08427 7.50009 6.08989L7.5 6.09124V47H40.5V6.09125L40.4999 6.0899C40.4995 6.08427 40.4985 6.07309 40.4962 6.05843C40.491 6.02666 40.4817 5.99226 40.4681 5.96415C40.4553 5.93762 40.4447 5.92874 40.4404 5.92577C40.4404 5.92577 40.4186 5.90845 40.3461 5.90845H34.189L34.0413 5.6794C32.7807 3.72428 31.3841 2.57012 29.7729 1.89417C28.1476 1.21229 26.2646 1 24 1C21.7354 1 19.8524 1.21229 18.2271 1.89417ZM47.5 48C47.7761 48 48 47.7761 48 47.5V47.5C48 47.2239 47.7761 47 47.5 47H41.5V6.08451H41.1342C41.5 6.08449 41.5 6.08451 41.5 6.08451L41.5 6.08251L41.5 6.0802L41.4999 6.07479L41.4996 6.06083C41.4992 6.05017 41.4986 6.03678 41.4975 6.02102C41.4954 5.98967 41.4913 5.94803 41.4834 5.89932C41.4681 5.80433 41.4366 5.66971 41.3684 5.52881C41.2995 5.38632 41.1875 5.22619 41.0079 5.1024C40.8244 4.97589 40.6006 4.90845 40.3461 4.90845H34.7312C33.4127 2.94119 31.9142 1.70806 30.1598 0.972031C28.3524 0.213769 26.3124 0 24 0C21.6876 0 19.6476 0.213769 17.8402 0.972031C16.0858 1.70806 14.5873 2.94119 13.2688 4.90845H7.65388C7.39943 4.90845 7.17564 4.97589 6.99208 5.1024C6.81249 5.22619 6.70049 5.38632 6.63159 5.52881C6.56345 5.66972 6.53189 5.80433 6.51658 5.89932C6.50873 5.94804 6.50463 5.98968 6.50246 6.02102C6.50138 6.03678 6.50076 6.05017 6.50042 6.06083L6.50008 6.0748L6.50002 6.08021L6.5 6.08251L6.5 6.08356C6.5 6.08356 6.5 6.08448 6.85561 6.08451L6.5 6.08356L6.5 47H0.5C0.223858 47 0 47.2239 0 47.5V47.5C0 47.7761 0.223858 48 0.5 48H47.5ZM41 6.08451H40.8635C40.9042 6.0845 40.9496 6.0845 41 6.08451ZM14.5 13C14.5 12.7239 14.7239 12.5 15 12.5H33C33.2761 12.5 33.5 12.7239 33.5 13C33.5 13.2761 33.2761 13.5 33 13.5H15C14.7239 13.5 14.5 13.2761 14.5 13ZM18.5 17C18.5 16.7239 18.7239 16.5 19 16.5H29C29.2761 16.5 29.5 16.7239 29.5 17C29.5 17.2761 29.2761 17.5 29 17.5H19C18.7239 17.5 18.5 17.2761 18.5 17ZM14.5 21C14.5 20.7239 14.7239 20.5 15 20.5H21C21.2761 20.5 21.5 20.7239 21.5 21C21.5 21.2761 21.2761 21.5 21 21.5H15C14.7239 21.5 14.5 21.2761 14.5 21ZM26.5 21C26.5 20.7239 26.7239 20.5 27 20.5H33C33.2761 20.5 33.5 20.7239 33.5 21C33.5 21.2761 33.2761 21.5 33 21.5H27C26.7239 21.5 26.5 21.2761 26.5 21ZM14.5 28C14.5 27.7239 14.7239 27.5 15 27.5H33C33.2761 27.5 33.5 27.7239 33.5 28C33.5 28.2761 33.2761 28.5 33 28.5H15C14.7239 28.5 14.5 28.2761 14.5 28ZM18.5 32C18.5 31.7239 18.7239 31.5 19 31.5H29C29.2761 31.5 29.5 31.7239 29.5 32C29.5 32.2761 29.2761 32.5 29 32.5H19C18.7239 32.5 18.5 32.2761 18.5 32Z" fill="#3B4857"/>
</svg>
