<svg width="48" height="48" viewBox="0 0 48 48" fill="none" xmlns="http://www.w3.org/2000/svg">
<g opacity="0.2">
<path d="M39 27H42V42H39V27Z" fill="#40052F"/>
<path d="M1 42.2727H47V46.3454H1V42.2727Z" fill="#40052F"/>
<path d="M6 23.5H41.5L42 27H6V23.5Z" fill="#40052F"/>
</g>
<path fill-rule="evenodd" clip-rule="evenodd" d="M6.76069 23.9088C6.55909 24.1188 6.5 24.3655 6.5 24.5V26.4999H41.5V24.5C41.5 24.1312 41.314 23.9028 41.0124 23.74C40.6892 23.5654 40.2773 23.5 40 23.5H8C7.31074 23.5 6.95015 23.7114 6.76069 23.9088ZM41.5 27.4999H6.5V41.2545H5.5V27.4999H4.5C4.22386 27.4999 4 27.2761 4 26.9999V26.9999C4 26.7238 4.22386 26.4999 4.5 26.4999H5.5V24.5C5.5 24.1345 5.64091 23.6312 6.03931 23.2162C6.44985 22.7886 7.08926 22.5 8 22.5H40C40.3894 22.5 40.9775 22.5846 41.4876 22.86C42.0194 23.1472 42.5 23.6688 42.5 24.5V26.4999H43.5C43.7761 26.4999 44 26.7238 44 26.9999V26.9999C44 27.2761 43.7761 27.4999 43.5 27.4999H42.5V41.2545H41.5V27.4999ZM18 33.109C18.2761 33.109 18.5 33.3329 18.5 33.609V34.7381C18.5 35.0689 18.3471 35.3211 18.1315 35.4728C17.9419 35.6063 17.7305 35.6454 17.5833 35.6454H13.4167C13.0918 35.6454 12.8379 35.5026 12.6808 35.2892C12.5419 35.1007 12.5 34.8884 12.5 34.7381V33.6091C12.5 33.333 12.7239 33.1091 13 33.1091V33.1091C13.2761 33.1091 13.5 33.333 13.5 33.6091V34.6454H17.5V33.609C17.5 33.3329 17.7239 33.109 18 33.109V33.109ZM35 33.109C35.2761 33.109 35.5 33.3329 35.5 33.609V34.7381C35.5 35.0689 35.3471 35.3211 35.1315 35.4728C34.9419 35.6063 34.7305 35.6454 34.5833 35.6454H30.4167C30.0918 35.6454 29.8379 35.5026 29.6808 35.2892C29.5419 35.1007 29.5 34.8884 29.5 34.7381V33.6091C29.5 33.333 29.7239 33.1091 30 33.1091V33.1091C30.2761 33.1091 30.5 33.333 30.5 33.6091V34.6454H34.5V33.609C34.5 33.3329 34.7239 33.109 35 33.109V33.109ZM0.391882 41.4621C0.599622 41.3099 0.834813 41.2636 1 41.2636H47C47.453 41.2636 47.7126 41.5638 47.8308 41.7643C47.8918 41.8678 47.9302 41.9669 47.9533 42.0376C47.9652 42.0738 47.9738 42.1048 47.9797 42.1284C47.9814 42.1352 47.9829 42.1414 47.9842 42.147C47.9852 42.1511 47.9861 42.1549 47.9868 42.1583L47.9891 42.1689L47.99 42.173L47.9903 42.1747L47.9906 42.1759C47.9906 42.1759 47.9906 42.1763 47.5 42.2727L47.9906 42.1759L48 42.224V47.3545H0V42.2727C0 41.9098 0.159156 41.6328 0.391882 41.4621ZM1 46.3545H47V42.34C46.9921 42.3175 46.9816 42.293 46.9692 42.272C46.9674 42.2688 46.9657 42.2661 46.9641 42.2636H1.00249L1.00135 42.2637L1.00017 42.2639C1.00006 42.2666 1 42.2695 1 42.2727V46.3545Z" fill="#40052F"/>
</svg>
