<svg width="48" height="48" viewBox="0 0 48 48" fill="none" xmlns="http://www.w3.org/2000/svg">
<g opacity="0.2">
<path d="M39 27.0001H42V42.0001H39V27.0001Z" fill="#3B4857"/>
<path d="M18 1.00012L44.0001 24.5001L42 27.0001L16.0001 3.00011L18 1.00012Z" fill="#3B4857"/>
<path d="M1 42.2728H47V46.3455H1V42.2728Z" fill="#3B4857"/>
</g>
<path fill-rule="evenodd" clip-rule="evenodd" d="M18.2518 0.730554C18.8148 0.868643 19.3076 1.20055 19.5963 1.46186L43.3213 22.9357C43.9965 23.5468 44.2769 24.1899 44.2943 24.7824C44.3112 25.3574 44.0779 25.8252 43.8327 26.0961L43.4672 26.4999H43.5C43.7761 26.4999 44 26.7238 44 26.9999V26.9999C44 27.2761 43.7761 27.4999 43.5 27.4999H42.5621L42.5 27.5685V41.2545H41.5V27.4999H6.5V41.2545H5.5V27.4999H4.5C4.22386 27.4999 4 27.2761 4 26.9999V26.9999C4 26.7238 4.22386 26.4999 4.5 26.4999H40.5534L14.723 3.12055L16.4007 1.26703C16.9584 0.650789 17.6648 0.586601 18.2518 0.730554ZM42.1184 26.4999H42.0436L16.1355 3.0502L17.1421 1.93809C17.3896 1.66464 17.6807 1.62015 18.0136 1.70177C18.3703 1.78927 18.7197 2.0172 18.9252 2.20327L42.6502 23.6771C43.1613 24.1396 43.2867 24.5383 43.2948 24.8118C43.3033 25.1028 43.1816 25.3253 43.0913 25.4251L42.1184 26.4999ZM18 33.109C18.2761 33.109 18.5 33.3328 18.5 33.609V34.7381C18.5 35.0688 18.3471 35.3211 18.1315 35.4728C17.9419 35.6062 17.7305 35.6454 17.5833 35.6454H13.4167C13.0918 35.6454 12.8379 35.5025 12.6808 35.2892C12.5419 35.1007 12.5 34.8883 12.5 34.7381V33.6091C12.5 33.3329 12.7239 33.1091 13 33.1091V33.1091C13.2761 33.1091 13.5 33.3329 13.5 33.6091V34.6454H17.5V33.609C17.5 33.3328 17.7239 33.109 18 33.109V33.109ZM35 33.109C35.2761 33.109 35.5 33.3328 35.5 33.609V34.7381C35.5 35.0688 35.3471 35.3211 35.1315 35.4728C34.9419 35.6062 34.7305 35.6454 34.5833 35.6454H30.4167C30.0918 35.6454 29.8379 35.5025 29.6808 35.2892C29.5419 35.1007 29.5 34.8883 29.5 34.7381V33.6091C29.5 33.3329 29.7239 33.1091 30 33.1091V33.1091C30.2761 33.1091 30.5 33.3329 30.5 33.6091V34.6454H34.5V33.609C34.5 33.3328 34.7239 33.109 35 33.109V33.109ZM0.391882 41.4621C0.599622 41.3098 0.834813 41.2636 1 41.2636H47C47.3668 41.2636 47.6421 41.4309 47.8082 41.6658C47.956 41.8747 48 42.1096 48 42.2726V47.3545H0V42.2726C0 41.9098 0.159156 41.6327 0.391882 41.4621ZM1 46.3545H47V42.2739L46.9996 42.2703C46.9993 42.2683 46.9989 42.266 46.9984 42.2636L1.00248 42.2636L1.00135 42.2637L1.00017 42.2639C1.00006 42.2665 1 42.2695 1 42.2726V46.3545Z" fill="#3B4857"/>
</svg>
