<svg width="48" height="48" viewBox="0 0 48 48" fill="none" xmlns="http://www.w3.org/2000/svg">
<g clip-path="url(#clip0)">
<g opacity="0.2">
<path d="M38 28L45 31.5V47H38V28Z" fill="#3B4857"/>
<path d="M10 28L3 31.5V47H10V28Z" fill="#3B4857"/>
<path d="M27 12C27 13.6569 25.6569 15 24 15C22.3431 15 21 13.6569 21 12C21 10.3431 22.3431 9 24 9C25.6569 9 27 10.3431 27 12Z" fill="#3B4857"/>
<path d="M34 21L38 24.5V47H34V21Z" fill="#3B4857"/>
<path d="M24 31L26.5 32L29 34V47H24V31Z" fill="#3B4857"/>
<path d="M24 31L21.5 32L19 34V47H24V31Z" fill="#3B4857"/>
</g>
<path fill-rule="evenodd" clip-rule="evenodd" d="M23.3295 1.2617C23.1338 1.42207 23.0016 1.61493 22.9472 1.72361L22.9346 1.74884L16.4347 11.7486C16.0525 12.5167 16 12.7916 16 13V19.7227L10.8478 24.3597L10.844 24.3636C10.8347 24.3737 10.8199 24.3899 10.8015 24.4113C10.7643 24.4547 10.7148 24.5167 10.666 24.5898C10.5576 24.7524 10.5 24.9003 10.5 25V47H18.5V35.4737C18.5 32.6759 21.0162 30.5 24 30.5C26.9838 30.5 29.5 32.6759 29.5 35.4737V47H37.5V25C37.5 24.9003 37.4424 24.7524 37.334 24.5898C37.2852 24.5167 37.2357 24.4547 37.1985 24.4113C37.1801 24.3899 37.1653 24.3737 37.156 24.3636L37.1522 24.3597L32 19.7227V13C32 12.7916 31.9475 12.5167 31.5653 11.7486L25.0654 1.74884L25.0528 1.72361C24.9984 1.61493 24.8662 1.42207 24.6705 1.2617C24.479 1.10473 24.254 1 24 1C23.746 1 23.521 1.10473 23.3295 1.2617ZM37.5 24C37.8536 23.6464 37.8537 23.6466 37.8537 23.6466L37.8553 23.6482L37.8578 23.6507L37.8649 23.658C37.8706 23.6639 37.878 23.6717 37.887 23.6813C37.905 23.7005 37.9292 23.7273 37.9578 23.7605C38.0143 23.8265 38.0898 23.9208 38.166 24.0352C38.3076 24.2476 38.5 24.5997 38.5 25V27.1913C39.4933 27.69 40.8712 28.3924 42.0836 29.0329C42.7478 29.3838 43.3657 29.7179 43.8443 29.9905C44.0833 30.1266 44.2916 30.2497 44.4553 30.3533C44.6033 30.447 44.7583 30.5512 44.8536 30.6464C45.1438 30.9367 45.2986 31.3267 45.3834 31.6471C45.4703 31.9753 45.5 32.2936 45.5 32.5V47H47.5C47.7761 47 48 47.2239 48 47.5V47.5C48 47.7761 47.7761 48 47.5 48H29.5V48.5H18.5V48H0.5C0.223858 48 0 47.7761 0 47.5V47.5C0 47.2239 0.223858 47 0.5 47H2.5L2.5 32.5C2.5 32.2936 2.52975 31.9753 2.61665 31.6471C2.70144 31.3267 2.85624 30.9367 3.14645 30.6464C3.24173 30.5512 3.39666 30.447 3.54471 30.3533C3.7084 30.2497 3.91673 30.1266 4.15567 29.9905C4.63433 29.7179 5.25221 29.3838 5.91644 29.0329C7.12875 28.3924 8.50673 27.69 9.5 27.1913V25C9.5 24.5997 9.69237 24.2476 9.83397 24.0352C9.9102 23.9208 9.98569 23.8265 10.0422 23.7605C10.0707 23.7273 10.095 23.7005 10.113 23.6813C10.122 23.6717 10.1294 23.6639 10.1351 23.658L10.1422 23.6507L10.1447 23.6482L10.1457 23.6472C10.1457 23.6472 10.1464 23.6464 10.5 24L10.1464 23.6464L10.1557 23.6371L15 19.2773V13C15 12.544 15.1464 12.0892 15.5528 11.2764L15.5654 11.2512L22.0667 1.24909C22.1827 1.02729 22.3953 0.734366 22.6955 0.488304C23.0124 0.228604 23.454 0 24 0C24.546 0 24.9876 0.228604 25.3045 0.488304C25.6047 0.734366 25.8173 1.02729 25.9333 1.24909L32.4346 11.2512L32.4472 11.2764C32.8536 12.0892 33 12.544 33 13V19.2773L37.8443 23.6371L37.8537 23.6466L37.5 24ZM9.5 28.3109C8.56871 28.7813 7.4149 29.3722 6.38356 29.9171C5.72279 30.2662 5.11567 30.5946 4.65057 30.8595C4.41764 30.9921 4.22441 31.1066 4.07951 31.1983C4.00696 31.2442 3.95008 31.2822 3.9081 31.3122C3.8742 31.3365 3.85829 31.3498 3.85394 31.3534C3.74415 31.4632 3.64856 31.6566 3.58335 31.9029C3.52025 32.1413 3.5 32.3731 3.5 32.5L3.5 47H9.5V28.3109ZM44.5 47V32.5C44.5 32.3731 44.4797 32.1413 44.4166 31.9029C44.3514 31.6566 44.2562 31.4633 44.1464 31.3536C44.1421 31.3499 44.1258 31.3365 44.0919 31.3122C44.0499 31.2822 43.993 31.2442 43.9205 31.1983C43.7756 31.1066 43.5824 30.9921 43.3494 30.8595C42.8843 30.5946 42.2772 30.2662 41.6164 29.9171C40.5851 29.3722 39.4313 28.7813 38.5 28.3109V47H44.5ZM28.5 47V35.4737C28.5 33.3299 26.539 31.5 24 31.5C21.461 31.5 19.5 33.3299 19.5 35.4737V47H28.5ZM24 9.5C22.6193 9.5 21.5 10.6193 21.5 12C21.5 13.3807 22.6193 14.5 24 14.5C25.3807 14.5 26.5 13.3807 26.5 12C26.5 10.6193 25.3807 9.5 24 9.5ZM20.5 12C20.5 10.067 22.067 8.5 24 8.5C25.933 8.5 27.5 10.067 27.5 12C27.5 13.933 25.933 15.5 24 15.5C22.067 15.5 20.5 13.933 20.5 12Z" fill="#3B4857"/>
</g>
<defs>
<clipPath id="clip0">
<rect width="48" height="48" fill="white"/>
</clipPath>
</defs>
</svg>
