<svg width="48" height="48" viewBox="0 0 48 48" fill="none" xmlns="http://www.w3.org/2000/svg">
<path fill-rule="evenodd" clip-rule="evenodd" d="M0.842633 22.6324C1.04568 22.5453 1.28084 22.6394 1.36786 22.8424L2.50932 25.5059L3.14739 24.3115C3.25149 24.1167 3.49384 24.0431 3.68869 24.1472C3.88354 24.2513 3.95711 24.4937 3.85301 24.6885L2.89942 26.4734C2.9104 26.638 2.81803 26.799 2.65777 26.8677C2.45472 26.9547 2.21956 26.8606 2.13254 26.6576L0.632542 23.1576C0.54552 22.9545 0.639581 22.7194 0.842633 22.6324ZM47.1578 22.6324C47.3608 22.7194 47.4549 22.9545 47.3679 23.1576L45.8679 26.6576C45.7808 26.8606 45.5457 26.9547 45.3426 26.8677C45.1824 26.799 45.09 26.638 45.101 26.4734L44.1474 24.6885C44.0433 24.4937 44.1169 24.2513 44.3117 24.1472C44.5066 24.0431 44.7489 24.1167 44.853 24.3115L45.4911 25.5059L46.6325 22.8424C46.7196 22.6394 46.9547 22.5453 47.1578 22.6324Z" fill="#3B4857"/>
<path fill-rule="evenodd" clip-rule="evenodd" d="M10.6042 11.368C10.6042 11.2759 10.646 11.1072 10.7888 10.9636C10.923 10.8286 11.1784 10.684 11.6667 10.684H34.3333C34.5297 10.684 34.8215 10.7287 35.0505 10.8481C35.2641 10.9595 35.3958 11.1157 35.3958 11.368V12.7359H10.6042V11.368ZM10.6042 13.4199H35.3958V21.804C35.6208 21.6527 35.8576 21.5204 36.1042 21.4091V13.4199H36.8247C37.0135 13.4199 37.1667 13.2667 37.1667 13.0779C37.1667 12.889 37.0135 12.7359 36.8247 12.7359H36.1042V11.368C36.1042 10.7995 35.7637 10.4427 35.387 10.2463C35.0257 10.0579 34.6092 10 34.3333 10H11.6667C11.0216 10 10.5686 10.1974 10.2778 10.4899C9.99565 10.7737 9.89583 11.118 9.89583 11.368V12.7359H9.17532C8.98645 12.7359 8.83333 12.889 8.83333 13.0779C8.83333 13.2667 8.98645 13.4199 9.17532 13.4199H9.89583V21.0012C9.93047 21.0004 9.96519 21 10 21C10.2045 21 10.4061 21.0135 10.6042 21.0397V13.4199ZM5.00274 26.316H0.341991C0.153114 26.316 0 26.4691 0 26.658C0 26.8469 0.153114 27 0.34199 27H5.02038C5.00689 26.8353 5 26.6685 5 26.5C5 26.4384 5.00092 26.3771 5.00274 26.316ZM14.9796 27H20.1429C20.3283 26.753 20.5331 26.524 20.7545 26.316H14.9973C14.9991 26.3771 15 26.4384 15 26.5C15 26.6685 14.9931 26.8353 14.9796 27ZM14.202 23.5179C14.0599 23.2762 13.9011 23.0476 13.7273 22.8339H34.2727C34.0989 23.0476 33.9401 23.2762 33.798 23.5179H14.202ZM33.0027 26.316H27.2455C27.4669 26.524 27.6717 26.753 27.8571 27H33.0204C33.0069 26.8353 33 26.6685 33 26.5C33 26.4384 33.0009 26.3771 33.0027 26.316ZM42.9796 27H47.658C47.8469 27 48 26.8469 48 26.658C48 26.4691 47.8469 26.316 47.658 26.316H42.9973C42.9991 26.3771 43 26.4384 43 26.5C43 26.6685 42.9931 26.8353 42.9796 27ZM19.1042 17.6105C19.1042 17.4149 18.9456 17.2564 18.75 17.2564C18.5544 17.2564 18.3958 17.4149 18.3958 17.6105V18.3072H15.5625V17.6106C15.5625 17.415 15.4039 17.2564 15.2083 17.2564C15.0127 17.2564 14.8542 17.415 14.8542 17.6106V18.3707C14.8542 18.4734 14.8839 18.6187 14.9822 18.7476C15.0935 18.8935 15.2734 18.9912 15.5035 18.9912H18.4549C18.5591 18.9912 18.7089 18.9644 18.8432 18.8732C18.9959 18.7694 19.1042 18.5969 19.1042 18.3707V17.6105ZM31.1458 17.6105C31.1458 17.4149 30.9873 17.2564 30.7917 17.2564C30.5961 17.2564 30.4375 17.4149 30.4375 17.6105V18.3072H27.6042V17.6106C27.6042 17.415 27.4456 17.2564 27.25 17.2564C27.0544 17.2564 26.8958 17.415 26.8958 17.6106V18.3707C26.8958 18.4734 26.9255 18.6187 27.0239 18.7476C27.1352 18.8935 27.315 18.9912 27.5451 18.9912H30.4965C30.6008 18.9912 30.7505 18.9644 30.8848 18.8732C31.0376 18.7694 31.1458 18.5969 31.1458 18.3707V17.6105Z" fill="#3B4857"/>
<path opacity="0.2" fill-rule="evenodd" clip-rule="evenodd" d="M35.5 10.5H10.5L10.25 12.7981H35.8478L33.4348 13.298V23.1468H13.9636C14.6135 24.075 15 25.2378 15 26.5H20.5682C21.4637 25.5701 22.6713 25 24 25C25.3287 25 26.5363 25.5701 27.4318 26.5H33C33 24.4337 34.0359 22.6336 35.5675 21.6936L35.8478 12.7981L35.5 10.5Z" fill="#3B4857"/>
<mask id="path-4-inside-1" fill="white">
<path fill-rule="evenodd" clip-rule="evenodd" d="M14.8333 47.1797V42.0881C14.8333 40.2806 16.3257 38.8153 18.1667 38.8153H29.8333C31.6743 38.8153 33.1667 40.2806 33.1667 42.0881V47.1797H14.8333ZM29 30.6335C29 33.3447 26.7614 35.5426 24 35.5426C21.2386 35.5426 19 33.3447 19 30.6335C19 27.9223 21.2386 25.7244 24 25.7244C26.7614 25.7244 29 27.9223 29 30.6335ZM29.8333 30.6335C29.8333 33.7966 27.2217 36.3608 24 36.3608C20.7783 36.3608 18.1667 33.7966 18.1667 30.6335C18.1667 27.4704 20.7783 24.9062 24 24.9062C27.2217 24.9062 29.8333 27.4704 29.8333 30.6335ZM14 42.0881C14 39.8287 15.8655 37.9972 18.1667 37.9972H29.8333C32.1345 37.9972 34 39.8287 34 42.0881V47.1797C34 47.6316 33.6269 48 33.1667 48H14V42.0881Z"/>
</mask>
<path fill-rule="evenodd" clip-rule="evenodd" d="M14.8333 47.1797V42.0881C14.8333 40.2806 16.3257 38.8153 18.1667 38.8153H29.8333C31.6743 38.8153 33.1667 40.2806 33.1667 42.0881V47.1797H14.8333ZM29 30.6335C29 33.3447 26.7614 35.5426 24 35.5426C21.2386 35.5426 19 33.3447 19 30.6335C19 27.9223 21.2386 25.7244 24 25.7244C26.7614 25.7244 29 27.9223 29 30.6335ZM29.8333 30.6335C29.8333 33.7966 27.2217 36.3608 24 36.3608C20.7783 36.3608 18.1667 33.7966 18.1667 30.6335C18.1667 27.4704 20.7783 24.9062 24 24.9062C27.2217 24.9062 29.8333 27.4704 29.8333 30.6335ZM14 42.0881C14 39.8287 15.8655 37.9972 18.1667 37.9972H29.8333C32.1345 37.9972 34 39.8287 34 42.0881V47.1797C34 47.6316 33.6269 48 33.1667 48H14V42.0881Z" fill="#3B4857"/>
<path d="M14.8333 47.1797H13.8333V48.1797H14.8333V47.1797ZM33.1667 47.1797V48.1797H34.1667V47.1797H33.1667ZM14 48H13V49H14V48ZM18.1667 37.8153C15.7908 37.8153 13.8333 39.7111 13.8333 42.0881H15.8333C15.8333 40.8501 16.8606 39.8153 18.1667 39.8153V37.8153ZM29.8333 37.8153H18.1667V39.8153H29.8333V37.8153ZM34.1667 42.0881C34.1667 39.7111 32.2092 37.8153 29.8333 37.8153V39.8153C31.1394 39.8153 32.1667 40.8501 32.1667 42.0881H34.1667ZM24 36.5426C27.2963 36.5426 30 33.9142 30 30.6335H28C28 32.7752 26.2265 34.5426 24 34.5426V36.5426ZM18 30.6335C18 33.9142 20.7037 36.5426 24 36.5426V34.5426C21.7735 34.5426 20 32.7752 20 30.6335H18ZM24 24.7244C20.7037 24.7244 18 27.3528 18 30.6335H20C20 28.4918 21.7735 26.7244 24 26.7244V24.7244ZM30 30.6335C30 27.3528 27.2963 24.7244 24 24.7244V26.7244C26.2265 26.7244 28 28.4918 28 30.6335H30ZM24 37.3608C27.7566 37.3608 30.8333 34.3661 30.8333 30.6335H28.8333C28.8333 33.2271 26.6868 35.3608 24 35.3608V37.3608ZM17.1667 30.6335C17.1667 34.3661 20.2434 37.3608 24 37.3608V35.3608C21.3132 35.3608 19.1667 33.2271 19.1667 30.6335H17.1667ZM24 23.9062C20.2434 23.9062 17.1667 26.9009 17.1667 30.6335H19.1667C19.1667 28.0399 21.3132 25.9062 24 25.9062V23.9062ZM30.8333 30.6335C30.8333 26.9009 27.7566 23.9062 24 23.9062V25.9062C26.6868 25.9062 28.8333 28.0399 28.8333 30.6335H30.8333ZM18.1667 36.9972C15.3306 36.9972 13 39.2592 13 42.0881H15C15 40.3982 16.4004 38.9972 18.1667 38.9972V36.9972ZM29.8333 36.9972H18.1667V38.9972H29.8333V36.9972ZM35 42.0881C35 39.2592 32.6694 36.9972 29.8333 36.9972V38.9972C31.5996 38.9972 33 40.3982 33 42.0881H35ZM35 47.1797V42.0881H33V47.1797H35ZM33.1667 49C34.1652 49 35 48.1977 35 47.1797H33C33 47.0654 33.0886 47 33.1667 47V49ZM14.8333 48.1797H33.1667V46.1797H14.8333V48.1797ZM13.8333 42.0881V47.1797H15.8333V42.0881H13.8333ZM34.1667 47.1797V42.0881H32.1667V47.1797H34.1667ZM14 49H33.1667V47H14V49ZM13 42.0881V48H15V42.0881H13Z" fill="#3B4857" mask="url(#path-4-inside-1)"/>
<mask id="path-6-inside-2" fill="white">
<path fill-rule="evenodd" clip-rule="evenodd" d="M29.9999 48H47.1665C47.6268 48 47.9999 47.6337 47.9999 47.1818V38.1818C47.9999 35.9225 46.1344 34.0909 43.8332 34.0909H32.1665C30.2839 34.0909 28.6928 35.3168 28.1764 37C28.083 37.3044 28.0247 37.6238 28.0062 37.9536C28.0054 37.969 28.0046 37.9845 28.0039 38H28.8383C28.9343 36.2771 30.3877 34.9091 32.1665 34.9091H43.8332C45.6741 34.9091 47.1665 36.3743 47.1665 38.1818V47.1818H29.9999V48ZM37.9999 31.6364C40.7613 31.6364 42.9999 29.4385 42.9999 26.7273C42.9999 24.0161 40.7613 21.8182 37.9999 21.8182C35.2384 21.8182 32.9999 24.0161 32.9999 26.7273C32.9999 29.4385 35.2384 31.6364 37.9999 31.6364ZM37.9999 32.4545C41.2215 32.4545 43.8332 29.8904 43.8332 26.7273C43.8332 23.5642 41.2215 21 37.9999 21C34.7782 21 32.1665 23.5642 32.1665 26.7273C32.1665 29.8904 34.7782 32.4545 37.9999 32.4545Z"/>
</mask>
<path fill-rule="evenodd" clip-rule="evenodd" d="M29.9999 48H47.1665C47.6268 48 47.9999 47.6337 47.9999 47.1818V38.1818C47.9999 35.9225 46.1344 34.0909 43.8332 34.0909H32.1665C30.2839 34.0909 28.6928 35.3168 28.1764 37C28.083 37.3044 28.0247 37.6238 28.0062 37.9536C28.0054 37.969 28.0046 37.9845 28.0039 38H28.8383C28.9343 36.2771 30.3877 34.9091 32.1665 34.9091H43.8332C45.6741 34.9091 47.1665 36.3743 47.1665 38.1818V47.1818H29.9999V48ZM37.9999 31.6364C40.7613 31.6364 42.9999 29.4385 42.9999 26.7273C42.9999 24.0161 40.7613 21.8182 37.9999 21.8182C35.2384 21.8182 32.9999 24.0161 32.9999 26.7273C32.9999 29.4385 35.2384 31.6364 37.9999 31.6364ZM37.9999 32.4545C41.2215 32.4545 43.8332 29.8904 43.8332 26.7273C43.8332 23.5642 41.2215 21 37.9999 21C34.7782 21 32.1665 23.5642 32.1665 26.7273C32.1665 29.8904 34.7782 32.4545 37.9999 32.4545Z" fill="#3B4857"/>
<path d="M29.9999 48H28.9999V49H29.9999V48ZM28.1764 37L29.1324 37.2933L29.1324 37.2933L28.1764 37ZM28.0062 37.9536L27.0078 37.8977L27.0078 37.8977L28.0062 37.9536ZM28.0039 38L27.0049 37.9555L26.9584 39H28.0039V38ZM28.8383 38V39H29.784L29.8367 38.0557L28.8383 38ZM47.1665 47.1818V48.1818H48.1665V47.1818H47.1665ZM29.9999 47.1818V46.1818H28.9999V47.1818H29.9999ZM47.1665 49C48.1617 49 48.9999 48.2032 48.9999 47.1818H46.9999C46.9999 47.0642 47.0919 47 47.1665 47V49ZM48.9999 47.1818V38.1818H46.9999V47.1818H48.9999ZM48.9999 38.1818C48.9999 35.353 46.6693 33.0909 43.8332 33.0909V35.0909C45.5995 35.0909 46.9999 36.492 46.9999 38.1818H48.9999ZM43.8332 33.0909H32.1665V35.0909H43.8332V33.0909ZM32.1665 33.0909C29.8427 33.0909 27.8651 34.6053 27.2204 36.7067L29.1324 37.2933C29.5205 36.0284 30.725 35.0909 32.1665 35.0909V33.0909ZM27.2204 36.7067C27.1036 37.0873 27.0308 37.4864 27.0078 37.8977L29.0047 38.0095C29.0186 37.7612 29.0624 37.5215 29.1324 37.2933L27.2204 36.7067ZM27.0078 37.8977C27.0067 37.9169 27.0058 37.9362 27.0049 37.9555L29.0029 38.0445C29.0034 38.0328 29.004 38.0212 29.0047 38.0095L27.0078 37.8977ZM28.0039 39H28.8383V37H28.0039V39ZM29.8367 38.0557C29.9025 36.8755 30.9054 35.9091 32.1665 35.9091V33.9091C29.8701 33.9091 27.9662 35.6787 27.8398 37.9443L29.8367 38.0557ZM32.1665 35.9091H43.8332V33.9091H32.1665V35.9091ZM43.8332 35.9091C45.1392 35.9091 46.1665 36.9438 46.1665 38.1818H48.1665C48.1665 35.8048 46.2091 33.9091 43.8332 33.9091V35.9091ZM28.9999 47.1818V48H30.9999V47.1818H28.9999ZM41.9999 26.7273C41.9999 28.869 40.2264 30.6364 37.9999 30.6364V32.6364C41.2962 32.6364 43.9999 30.008 43.9999 26.7273H41.9999ZM37.9999 22.8182C40.2264 22.8182 41.9999 24.5856 41.9999 26.7273H43.9999C43.9999 23.4466 41.2962 20.8182 37.9999 20.8182V22.8182ZM33.9999 26.7273C33.9999 24.5856 35.7733 22.8182 37.9999 22.8182V20.8182C34.7035 20.8182 31.9999 23.4466 31.9999 26.7273H33.9999ZM37.9999 30.6364C35.7733 30.6364 33.9999 28.869 33.9999 26.7273H31.9999C31.9999 30.008 34.7035 32.6364 37.9999 32.6364V30.6364ZM42.8332 26.7273C42.8332 29.3209 40.6866 31.4545 37.9999 31.4545V33.4545C41.7564 33.4545 44.8332 30.4599 44.8332 26.7273H42.8332ZM37.9999 22C40.6866 22 42.8332 24.1337 42.8332 26.7273H44.8332C44.8332 22.9947 41.7564 20 37.9999 20V22ZM33.1665 26.7273C33.1665 24.1337 35.3131 22 37.9999 22V20C34.2433 20 31.1665 22.9947 31.1665 26.7273H33.1665ZM37.9999 31.4545C35.3131 31.4545 33.1665 29.3209 33.1665 26.7273H31.1665C31.1665 30.4599 34.2433 33.4545 37.9999 33.4545V31.4545ZM29.9999 49H47.1665V47H29.9999V49ZM46.1665 38.1818V47.1818H48.1665V38.1818H46.1665ZM47.1665 46.1818H29.9999V48.1818H47.1665V46.1818Z" fill="#3B4857" mask="url(#path-6-inside-2)"/>
<mask id="path-8-inside-3" fill="white">
<path fill-rule="evenodd" clip-rule="evenodd" d="M19 48V47.1818H0.833333V38.1818C0.833333 36.3743 2.32572 34.9091 4.16667 34.9091H15.8333C17.6121 34.9091 19.0655 36.2771 19.1616 38H19.996C19.9953 37.9845 19.9945 37.969 19.9936 37.9536C19.9752 37.6238 19.9169 37.3044 19.8235 37C19.307 35.3168 17.716 34.0909 15.8333 34.0909H4.16667C1.86548 34.0909 0 35.9225 0 38.1818V47.1818C0 47.6337 0.373096 48 0.833334 48H19ZM10 31.6364C12.7614 31.6364 15 29.4385 15 26.7273C15 24.0161 12.7614 21.8182 10 21.8182C7.23858 21.8182 5 24.0161 5 26.7273C5 29.4385 7.23858 31.6364 10 31.6364ZM10 32.4545C13.2217 32.4545 15.8333 29.8904 15.8333 26.7273C15.8333 23.5642 13.2217 21 10 21C6.77834 21 4.16667 23.5642 4.16667 26.7273C4.16667 29.8904 6.77834 32.4545 10 32.4545Z"/>
</mask>
<path fill-rule="evenodd" clip-rule="evenodd" d="M19 48V47.1818H0.833333V38.1818C0.833333 36.3743 2.32572 34.9091 4.16667 34.9091H15.8333C17.6121 34.9091 19.0655 36.2771 19.1616 38H19.996C19.9953 37.9845 19.9945 37.969 19.9936 37.9536C19.9752 37.6238 19.9169 37.3044 19.8235 37C19.307 35.3168 17.716 34.0909 15.8333 34.0909H4.16667C1.86548 34.0909 0 35.9225 0 38.1818V47.1818C0 47.6337 0.373096 48 0.833334 48H19ZM10 31.6364C12.7614 31.6364 15 29.4385 15 26.7273C15 24.0161 12.7614 21.8182 10 21.8182C7.23858 21.8182 5 24.0161 5 26.7273C5 29.4385 7.23858 31.6364 10 31.6364ZM10 32.4545C13.2217 32.4545 15.8333 29.8904 15.8333 26.7273C15.8333 23.5642 13.2217 21 10 21C6.77834 21 4.16667 23.5642 4.16667 26.7273C4.16667 29.8904 6.77834 32.4545 10 32.4545Z" fill="#3B4857"/>
<path d="M19 47.1818H20V46.1818H19V47.1818ZM19 48V49H20V48H19ZM0.833333 47.1818H-0.166667V48.1818H0.833333V47.1818ZM19.1616 38L18.1632 38.0557L18.2158 39H19.1616V38ZM19.996 38V39H21.0415L20.995 37.9555L19.996 38ZM19.9936 37.9536L18.9952 38.0095L18.9952 38.0096L19.9936 37.9536ZM19.8235 37L18.8675 37.2933L18.8675 37.2933L19.8235 37ZM18 47.1818V48H20V47.1818H18ZM4.16667 33.9091C1.79081 33.9091 -0.166667 35.8048 -0.166667 38.1818H1.83333C1.83333 36.9438 2.86062 35.9091 4.16667 35.9091V33.9091ZM15.8333 33.9091H4.16667V35.9091H15.8333V33.9091ZM20.1601 37.9443C20.0337 35.6787 18.1298 33.9091 15.8333 33.9091V35.9091C17.0945 35.9091 18.0973 36.8755 18.1632 38.0557L20.1601 37.9443ZM19.996 37H19.1616V39H19.996V37ZM18.9952 38.0096C18.9958 38.0211 18.9964 38.0328 18.997 38.0445L20.995 37.9555C20.9941 37.9363 20.9931 37.917 20.9921 37.8976L18.9952 38.0096ZM18.8675 37.2933C18.9375 37.5215 18.9813 37.7612 18.9952 38.0095L20.9921 37.8977C20.969 37.4864 20.8963 37.0873 20.7795 36.7067L18.8675 37.2933ZM15.8333 35.0909C17.2749 35.0909 18.4794 36.0284 18.8675 37.2933L20.7795 36.7067C20.1347 34.6053 18.1571 33.0909 15.8333 33.0909V35.0909ZM4.16667 35.0909H15.8333V33.0909H4.16667V35.0909ZM1 38.1818C1 36.492 2.40039 35.0909 4.16667 35.0909V33.0909C1.33057 33.0909 -1 35.353 -1 38.1818H1ZM1 47.1818V38.1818H-1V47.1818H1ZM0.833334 47C0.908004 47 1 47.0642 1 47.1818H-1C-1 48.2032 -0.161811 49 0.833334 49V47ZM14 26.7273C14 28.869 12.2265 30.6364 10 30.6364V32.6364C13.2963 32.6364 16 30.008 16 26.7273H14ZM10 22.8182C12.2265 22.8182 14 24.5856 14 26.7273H16C16 23.4466 13.2963 20.8182 10 20.8182V22.8182ZM6 26.7273C6 24.5856 7.77348 22.8182 10 22.8182V20.8182C6.70367 20.8182 4 23.4466 4 26.7273H6ZM10 30.6364C7.77348 30.6364 6 28.869 6 26.7273H4C4 30.008 6.70367 32.6364 10 32.6364V30.6364ZM14.8333 26.7273C14.8333 29.3209 12.6868 31.4545 10 31.4545V33.4545C13.7566 33.4545 16.8333 30.4599 16.8333 26.7273H14.8333ZM10 22C12.6868 22 14.8333 24.1337 14.8333 26.7273H16.8333C16.8333 22.9947 13.7566 20 10 20V22ZM5.16667 26.7273C5.16667 24.1337 7.31325 22 10 22V20C6.24343 20 3.16667 22.9947 3.16667 26.7273H5.16667ZM10 31.4545C7.31325 31.4545 5.16667 29.3209 5.16667 26.7273H3.16667C3.16667 30.4599 6.24343 33.4545 10 33.4545V31.4545ZM0.833333 48.1818H19V46.1818H0.833333V48.1818ZM-0.166667 38.1818V47.1818H1.83333V38.1818H-0.166667ZM19 47H0.833334V49H19V47Z" fill="#3B4857" mask="url(#path-8-inside-3)"/>
</svg>
