<svg width="48" height="48" viewBox="0 0 48 48" fill="none" xmlns="http://www.w3.org/2000/svg">
<path fill-rule="evenodd" clip-rule="evenodd" d="M0.842633 22.6324C1.04568 22.5453 1.28084 22.6394 1.36786 22.8424L2.50932 25.5059L3.14739 24.3115C3.25149 24.1167 3.49384 24.0431 3.68869 24.1472C3.88354 24.2513 3.95711 24.4937 3.85301 24.6885L2.89942 26.4734C2.9104 26.638 2.81803 26.799 2.65777 26.8677C2.45472 26.9547 2.21956 26.8606 2.13254 26.6576L0.632542 23.1576C0.54552 22.9545 0.639581 22.7194 0.842633 22.6324ZM47.1578 22.6324C47.3608 22.7194 47.4549 22.9545 47.3679 23.1576L45.8679 26.6576C45.7808 26.8606 45.5457 26.9547 45.3426 26.8677C45.1824 26.799 45.09 26.638 45.101 26.4734L44.1474 24.6885C44.0433 24.4937 44.1169 24.2513 44.3117 24.1472C44.5066 24.0431 44.7489 24.1167 44.853 24.3115L45.4911 25.5059L46.6325 22.8424C46.7196 22.6394 46.9547 22.5453 47.1578 22.6324Z" fill="#40052F"/>
<path fill-rule="evenodd" clip-rule="evenodd" d="M10.6042 11.368C10.6042 11.2759 10.646 11.1072 10.7888 10.9636C10.923 10.8286 11.1784 10.684 11.6667 10.684H34.3333C34.5297 10.684 34.8215 10.7287 35.0505 10.8481C35.2641 10.9595 35.3958 11.1157 35.3958 11.368V12.7359H10.6042V11.368ZM10.6042 13.4199H35.3958V21.804C35.6208 21.6527 35.8576 21.5204 36.1042 21.4091V13.4199H36.8247C37.0135 13.4199 37.1667 13.2667 37.1667 13.0779C37.1667 12.889 37.0135 12.7359 36.8247 12.7359H36.1042V11.368C36.1042 10.7995 35.7637 10.4427 35.387 10.2463C35.0257 10.0579 34.6092 10 34.3333 10H11.6667C11.0216 10 10.5686 10.1974 10.2778 10.4899C9.99565 10.7737 9.89583 11.118 9.89583 11.368V12.7359H9.17532C8.98645 12.7359 8.83333 12.889 8.83333 13.0779C8.83333 13.2667 8.98645 13.4199 9.17532 13.4199H9.89583V21.0012C9.93047 21.0004 9.96519 21 10 21C10.2045 21 10.4061 21.0135 10.6042 21.0397V13.4199ZM5.00274 26.316H0.341991C0.153114 26.316 0 26.4691 0 26.658C0 26.8469 0.153114 27 0.34199 27H5.02038C5.00689 26.8353 5 26.6685 5 26.5C5 26.4384 5.00092 26.3771 5.00274 26.316ZM14.9796 27H20.1429C20.3283 26.753 20.5331 26.524 20.7545 26.316H14.9973C14.9991 26.3771 15 26.4384 15 26.5C15 26.6685 14.9931 26.8353 14.9796 27ZM14.202 23.5179C14.0599 23.2762 13.9011 23.0476 13.7273 22.8339H34.2727C34.0989 23.0476 33.9401 23.2762 33.798 23.5179H14.202ZM33.0027 26.316H27.2455C27.4669 26.524 27.6717 26.753 27.8571 27H33.0204C33.0069 26.8353 33 26.6685 33 26.5C33 26.4384 33.0009 26.3771 33.0027 26.316ZM42.9796 27H47.658C47.8469 27 48 26.8469 48 26.658C48 26.4691 47.8469 26.316 47.658 26.316H42.9973C42.9991 26.3771 43 26.4384 43 26.5C43 26.6685 42.9931 26.8353 42.9796 27ZM19.1042 17.6105C19.1042 17.4149 18.9456 17.2564 18.75 17.2564C18.5544 17.2564 18.3958 17.4149 18.3958 17.6105V18.3072H15.5625V17.6106C15.5625 17.415 15.4039 17.2564 15.2083 17.2564C15.0127 17.2564 14.8542 17.415 14.8542 17.6106V18.3707C14.8542 18.4734 14.8839 18.6187 14.9822 18.7476C15.0935 18.8935 15.2734 18.9912 15.5035 18.9912H18.4549C18.5591 18.9912 18.7089 18.9644 18.8432 18.8732C18.9959 18.7694 19.1042 18.5969 19.1042 18.3707V17.6105ZM31.1458 17.6105C31.1458 17.4149 30.9873 17.2564 30.7917 17.2564C30.5961 17.2564 30.4375 17.4149 30.4375 17.6105V18.3072H27.6042V17.6106C27.6042 17.415 27.4456 17.2564 27.25 17.2564C27.0544 17.2564 26.8958 17.415 26.8958 17.6106V18.3707C26.8958 18.4734 26.9255 18.6187 27.0239 18.7476C27.1352 18.8935 27.315 18.9912 27.5451 18.9912H30.4965C30.6008 18.9912 30.7505 18.9644 30.8848 18.8732C31.0376 18.7694 31.1458 18.5969 31.1458 18.3707V17.6105Z" fill="#40052F"/>
<path opacity="0.2" fill-rule="evenodd" clip-rule="evenodd" d="M35.5 10.5H10.5L10.25 12.7981H35.8478L33.4348 13.298V23.1468H13.9636C14.6135 24.075 15 25.2378 15 26.5H20.5682C21.4637 25.5701 22.6713 25 24 25C25.3287 25 26.5363 25.5701 27.4318 26.5H33C33 24.4337 34.0359 22.6336 35.5675 21.6936L35.8478 12.7981L35.5 10.5Z" fill="#40052F"/>
<mask id="path-4-inside-1" fill="white">
<path fill-rule="evenodd" clip-rule="evenodd" d="M24 35.5426C26.7614 35.5426 29 33.3447 29 30.6335C29 27.9223 26.7614 25.7244 24 25.7244C21.2386 25.7244 19 27.9223 19 30.6335C19 33.3447 21.2386 35.5426 24 35.5426ZM33.1667 47.1797V42.0881C33.1667 40.2806 31.6743 38.8153 29.8333 38.8153H18.1667C16.3257 38.8153 14.8333 40.2806 14.8333 42.0881V47.1797H33.1667ZM24 36.3608C27.2217 36.3608 29.8333 33.7966 29.8333 30.6335C29.8333 27.4704 27.2217 24.9062 24 24.9062C20.7784 24.9062 18.1667 27.4704 18.1667 30.6335C18.1667 33.7966 20.7784 36.3608 24 36.3608ZM18.1667 37.9972C15.8655 37.9972 14 39.8287 14 42.0881V46.9062C14 47.3581 14 47.5 14 48H33.1667C33.6269 48 34 47.6316 34 47.1797V42.0881C34 39.8287 32.1345 37.9972 29.8333 37.9972H18.1667Z"/>
</mask>
<path fill-rule="evenodd" clip-rule="evenodd" d="M24 35.5426C26.7614 35.5426 29 33.3447 29 30.6335C29 27.9223 26.7614 25.7244 24 25.7244C21.2386 25.7244 19 27.9223 19 30.6335C19 33.3447 21.2386 35.5426 24 35.5426ZM33.1667 47.1797V42.0881C33.1667 40.2806 31.6743 38.8153 29.8333 38.8153H18.1667C16.3257 38.8153 14.8333 40.2806 14.8333 42.0881V47.1797H33.1667ZM24 36.3608C27.2217 36.3608 29.8333 33.7966 29.8333 30.6335C29.8333 27.4704 27.2217 24.9062 24 24.9062C20.7784 24.9062 18.1667 27.4704 18.1667 30.6335C18.1667 33.7966 20.7784 36.3608 24 36.3608ZM18.1667 37.9972C15.8655 37.9972 14 39.8287 14 42.0881V46.9062C14 47.3581 14 47.5 14 48H33.1667C33.6269 48 34 47.6316 34 47.1797V42.0881C34 39.8287 32.1345 37.9972 29.8333 37.9972H18.1667Z" fill="white"/>
<path d="M33.1667 47.1797V48.1797H34.1667V47.1797H33.1667ZM14.8333 47.1797H13.8333V48.1797H14.8333V47.1797ZM14 48H13V49H14V48ZM28 30.6335C28 32.7752 26.2265 34.5426 24 34.5426V36.5426C27.2963 36.5426 30 33.9142 30 30.6335H28ZM24 26.7244C26.2265 26.7244 28 28.4918 28 30.6335H30C30 27.3528 27.2963 24.7244 24 24.7244V26.7244ZM20 30.6335C20 28.4918 21.7735 26.7244 24 26.7244V24.7244C20.7037 24.7244 18 27.3528 18 30.6335H20ZM24 34.5426C21.7735 34.5426 20 32.7752 20 30.6335H18C18 33.9142 20.7037 36.5426 24 36.5426V34.5426ZM32.1667 42.0881V47.1797H34.1667V42.0881H32.1667ZM29.8333 39.8153C31.1394 39.8153 32.1667 40.8501 32.1667 42.0881H34.1667C34.1667 39.7111 32.2092 37.8153 29.8333 37.8153V39.8153ZM18.1667 39.8153H29.8333V37.8153H18.1667V39.8153ZM15.8333 42.0881C15.8333 40.8501 16.8606 39.8153 18.1667 39.8153V37.8153C15.7908 37.8153 13.8333 39.7111 13.8333 42.0881H15.8333ZM15.8333 47.1797V42.0881H13.8333V47.1797H15.8333ZM33.1667 46.1797H14.8333V48.1797H33.1667V46.1797ZM28.8333 30.6335C28.8333 33.2271 26.6868 35.3608 24 35.3608V37.3608C27.7566 37.3608 30.8333 34.3661 30.8333 30.6335H28.8333ZM24 25.9062C26.6868 25.9062 28.8333 28.0399 28.8333 30.6335H30.8333C30.8333 26.9009 27.7566 23.9062 24 23.9062V25.9062ZM19.1667 30.6335C19.1667 28.0399 21.3133 25.9062 24 25.9062V23.9062C20.2434 23.9062 17.1667 26.9009 17.1667 30.6335H19.1667ZM24 35.3608C21.3133 35.3608 19.1667 33.2271 19.1667 30.6335H17.1667C17.1667 34.3661 20.2434 37.3608 24 37.3608V35.3608ZM15 42.0881C15 40.3982 16.4004 38.9972 18.1667 38.9972V36.9972C15.3306 36.9972 13 39.2592 13 42.0881H15ZM15 46.9062V42.0881H13V46.9062H15ZM15 48C15 47.999 15 47.998 15 47.9971C15 47.9961 15 47.9951 15 47.9942C15 47.9932 15 47.9922 15 47.9912C15 47.9903 15 47.9893 15 47.9883C15 47.9874 15 47.9864 15 47.9855C15 47.9845 15 47.9835 15 47.9826C15 47.9816 15 47.9806 15 47.9797C15 47.9787 15 47.9778 15 47.9768C15 47.9759 15 47.9749 15 47.974C15 47.973 15 47.9721 15 47.9711C15 47.9702 15 47.9692 15 47.9683C15 47.9673 15 47.9664 15 47.9654C15 47.9645 15 47.9635 15 47.9626C15 47.9617 15 47.9607 15 47.9598C15 47.9588 15 47.9579 15 47.957C15 47.956 15 47.9551 15 47.9542C15 47.9532 15 47.9523 15 47.9514C15 47.9504 15 47.9495 15 47.9486C15 47.9476 15 47.9467 15 47.9458C15 47.9449 15 47.9439 15 47.943C15 47.9421 15 47.9412 15 47.9402C15 47.9393 15 47.9384 15 47.9375C15 47.9366 15 47.9356 15 47.9347C15 47.9338 15 47.9329 15 47.932C15 47.9311 15 47.9302 15 47.9292C15 47.9283 15 47.9274 15 47.9265C15 47.9256 15 47.9247 15 47.9238C15 47.9229 15 47.922 15 47.9211C15 47.9202 15 47.9193 15 47.9184C15 47.9175 15 47.9166 15 47.9157C15 47.9148 15 47.9139 15 47.913C15 47.9121 15 47.9112 15 47.9103C15 47.9094 15 47.9085 15 47.9076C15 47.9067 15 47.9058 15 47.9049C15 47.904 15 47.9032 15 47.9023C15 47.9014 15 47.9005 15 47.8996C15 47.8987 15 47.8978 15 47.897C15 47.8961 15 47.8952 15 47.8943C15 47.8934 15 47.8926 15 47.8917C15 47.8908 15 47.8899 15 47.8891C15 47.8882 15 47.8873 15 47.8864C15 47.8856 15 47.8847 15 47.8838C15 47.8829 15 47.8821 15 47.8812C15 47.8803 15 47.8795 15 47.8786C15 47.8777 15 47.8769 15 47.876C15 47.8751 15 47.8743 15 47.8734C15 47.8726 15 47.8717 15 47.8708C15 47.87 15 47.8691 15 47.8683C15 47.8674 15 47.8666 15 47.8657C15 47.8648 15 47.864 15 47.8631C15 47.8623 15 47.8614 15 47.8606C15 47.8597 15 47.8589 15 47.858C15 47.8572 15 47.8563 15 47.8555C15 47.8547 15 47.8538 15 47.853C15 47.8521 15 47.8513 15 47.8504C15 47.8496 15 47.8488 15 47.8479C15 47.8471 15 47.8462 15 47.8454C15 47.8446 15 47.8437 15 47.8429C15 47.8421 15 47.8412 15 47.8404C15 47.8396 15 47.8387 15 47.8379C15 47.8371 15 47.8362 15 47.8354C15 47.8346 15 47.8338 15 47.8329C15 47.8321 15 47.8313 15 47.8305C15 47.8296 15 47.8288 15 47.828C15 47.8272 15 47.8263 15 47.8255C15 47.8247 15 47.8239 15 47.8231C15 47.8222 15 47.8214 15 47.8206C15 47.8198 15 47.819 15 47.8182C15 47.8174 15 47.8165 15 47.8157C15 47.8149 15 47.8141 15 47.8133C15 47.8125 15 47.8117 15 47.8109C15 47.8101 15 47.8093 15 47.8085C15 47.8076 15 47.8068 15 47.806C15 47.8052 15 47.8044 15 47.8036C15 47.8028 15 47.802 15 47.8012C15 47.8004 15 47.7996 15 47.7988C15 47.798 15 47.7972 15 47.7964C15 47.7956 15 47.7948 15 47.7941C15 47.7933 15 47.7925 15 47.7917C15 47.7909 15 47.7901 15 47.7893C15 47.7885 15 47.7877 15 47.7869C15 47.7862 15 47.7854 15 47.7846C15 47.7838 15 47.783 15 47.7822C15 47.7814 15 47.7807 15 47.7799C15 47.7791 15 47.7783 15 47.7775C15 47.7768 15 47.776 15 47.7752C15 47.7744 15 47.7736 15 47.7729C15 47.7721 15 47.7713 15 47.7705C15 47.7698 15 47.769 15 47.7682C15 47.7674 15 47.7667 15 47.7659C15 47.7651 15 47.7644 15 47.7636C15 47.7628 15 47.762 15 47.7613C15 47.7605 15 47.7597 15 47.759C15 47.7582 15 47.7575 15 47.7567C15 47.7559 15 47.7552 15 47.7544C15 47.7536 15 47.7529 15 47.7521C15 47.7514 15 47.7506 15 47.7498C15 47.7491 15 47.7483 15 47.7476C15 47.7468 15 47.7461 15 47.7453C15 47.7445 15 47.7438 15 47.743C15 47.7423 15 47.7415 15 47.7408C15 47.74 15 47.7393 15 47.7385C15 47.7378 15 47.737 15 47.7363C15 47.7355 15 47.7348 15 47.734C15 47.7333 15 47.7325 15 47.7318C15 47.7311 15 47.7303 15 47.7296C15 47.7288 15 47.7281 15 47.7273C15 47.7266 15 47.7259 15 47.7251C15 47.7244 15 47.7236 15 47.7229C15 47.7222 15 47.7214 15 47.7207C15 47.72 15 47.7192 15 47.7185C15 47.7178 15 47.717 15 47.7163C15 47.7156 15 47.7148 15 47.7141C15 47.7134 15 47.7126 15 47.7119C15 47.7112 15 47.7104 15 47.7097C15 47.709 15 47.7083 15 47.7075C15 47.7068 15 47.7061 15 47.7054C15 47.7046 15 47.7039 15 47.7032C15 47.7025 15 47.7017 15 47.701C15 47.7003 15 47.6996 15 47.6989C15 47.6981 15 47.6974 15 47.6967C15 47.696 15 47.6953 15 47.6945C15 47.6938 15 47.6931 15 47.6924C15 47.6917 15 47.691 15 47.6902C15 47.6895 15 47.6888 15 47.6881C15 47.6874 15 47.6867 15 47.686C15 47.6853 15 47.6845 15 47.6838C15 47.6831 15 47.6824 15 47.6817C15 47.681 15 47.6803 15 47.6796C15 47.6789 15 47.6782 15 47.6775C15 47.6768 15 47.6761 15 47.6754C15 47.6746 15 47.6739 15 47.6732C15 47.6725 15 47.6718 15 47.6711C15 47.6704 15 47.6697 15 47.669C15 47.6683 15 47.6676 15 47.6669C15 47.6662 15 47.6655 15 47.6648C15 47.6641 15 47.6635 15 47.6628C15 47.6621 15 47.6614 15 47.6607C15 47.66 15 47.6593 15 47.6586C15 47.6579 15 47.6572 15 47.6565C15 47.6558 15 47.6551 15 47.6544C15 47.6537 15 47.6531 15 47.6524C15 47.6517 15 47.651 15 47.6503C15 47.6496 15 47.6489 15 47.6482C15 47.6476 15 47.6469 15 47.6462C15 47.6455 15 47.6448 15 47.6441C15 47.6434 15 47.6428 15 47.6421C15 47.6414 15 47.6407 15 47.64C15 47.6394 15 47.6387 15 47.638C15 47.6373 15 47.6366 15 47.636C15 47.6353 15 47.6346 15 47.6339C15 47.6332 15 47.6326 15 47.6319C15 47.6312 15 47.6305 15 47.6299C15 47.6292 15 47.6285 15 47.6278C15 47.6272 15 47.6265 15 47.6258C15 47.6252 15 47.6245 15 47.6238C15 47.6231 15 47.6225 15 47.6218C15 47.6211 15 47.6205 15 47.6198C15 47.6191 15 47.6184 15 47.6178C15 47.6171 15 47.6164 15 47.6158C15 47.6151 15 47.6144 15 47.6138C15 47.6131 15 47.6124 15 47.6118C15 47.6111 15 47.6105 15 47.6098C15 47.6091 15 47.6085 15 47.6078C15 47.6071 15 47.6065 15 47.6058C15 47.6052 15 47.6045 15 47.6038C15 47.6032 15 47.6025 15 47.6019C15 47.6012 15 47.6005 15 47.5999C15 47.5992 15 47.5986 15 47.5979C15 47.5973 15 47.5966 15 47.5959C15 47.5953 15 47.5946 15 47.594C15 47.5933 15 47.5927 15 47.592C15 47.5914 15 47.5907 15 47.59C15 47.5894 15 47.5887 15 47.5881C15 47.5874 15 47.5868 15 47.5861C15 47.5855 15 47.5848 15 47.5842C15 47.5835 15 47.5829 15 47.5822C15 47.5816 15 47.5809 15 47.5803C15 47.5796 15 47.579 15 47.5784C15 47.5777 15 47.5771 15 47.5764C15 47.5758 15 47.5751 15 47.5745C15 47.5738 15 47.5732 15 47.5725C15 47.5719 15 47.5713 15 47.5706C15 47.57 15 47.5693 15 47.5687C15 47.568 15 47.5674 15 47.5668C15 47.5661 15 47.5655 15 47.5648C15 47.5642 15 47.5636 15 47.5629C15 47.5623 15 47.5616 15 47.561C15 47.5604 15 47.5597 15 47.5591C15 47.5584 15 47.5578 15 47.5572C15 47.5565 15 47.5559 15 47.5553C15 47.5546 15 47.554 15 47.5533C15 47.5527 15 47.5521 15 47.5514C15 47.5508 15 47.5502 15 47.5495C15 47.5489 15 47.5483 15 47.5476C15 47.547 15 47.5464 15 47.5457C15 47.5451 15 47.5445 15 47.5438C15 47.5432 15 47.5426 15 47.542C15 47.5413 15 47.5407 15 47.5401C15 47.5394 15 47.5388 15 47.5382C15 47.5375 15 47.5369 15 47.5363C15 47.5357 15 47.535 15 47.5344C15 47.5338 15 47.5331 15 47.5325C15 47.5319 15 47.5313 15 47.5306C15 47.53 15 47.5294 15 47.5288C15 47.5281 15 47.5275 15 47.5269C15 47.5263 15 47.5256 15 47.525C15 47.5244 15 47.5238 15 47.5231C15 47.5225 15 47.5219 15 47.5213C15 47.5206 15 47.52 15 47.5194C15 47.5188 15 47.5182 15 47.5175C15 47.5169 15 47.5163 15 47.5157C15 47.5151 15 47.5144 15 47.5138C15 47.5132 15 47.5126 15 47.512C15 47.5113 15 47.5107 15 47.5101C15 47.5095 15 47.5089 15 47.5082C15 47.5076 15 47.507 15 47.5064C15 47.5058 15 47.5051 15 47.5045C15 47.5039 15 47.5033 15 47.5027C15 47.5021 15 47.5014 15 47.5008C15 47.5002 15 47.4996 15 47.499C15 47.4984 15 47.4977 15 47.4971C15 47.4965 15 47.4959 15 47.4953C15 47.4947 15 47.4941 15 47.4934C15 47.4928 15 47.4922 15 47.4916C15 47.491 15 47.4904 15 47.4898C15 47.4891 15 47.4885 15 47.4879C15 47.4873 15 47.4867 15 47.4861C15 47.4855 15 47.4849 15 47.4842C15 47.4836 15 47.483 15 47.4824C15 47.4818 15 47.4812 15 47.4806C15 47.48 15 47.4794 15 47.4787C15 47.4781 15 47.4775 15 47.4769C15 47.4763 15 47.4757 15 47.4751C15 47.4745 15 47.4739 15 47.4733C15 47.4726 15 47.472 15 47.4714C15 47.4708 15 47.4702 15 47.4696C15 47.469 15 47.4684 15 47.4678C15 47.4672 15 47.4666 15 47.466C15 47.4653 15 47.4647 15 47.4641C15 47.4635 15 47.4629 15 47.4623C15 47.4617 15 47.4611 15 47.4605C15 47.4599 15 47.4593 15 47.4587C15 47.4581 15 47.4575 15 47.4568C15 47.4562 15 47.4556 15 47.455C15 47.4544 15 47.4538 15 47.4532C15 47.4526 15 47.452 15 47.4514C15 47.4508 15 47.4502 15 47.4496C15 47.449 15 47.4484 15 47.4478C15 47.4472 15 47.4466 15 47.4459C15 47.4453 15 47.4447 15 47.4441C15 47.4435 15 47.4429 15 47.4423C15 47.4417 15 47.4411 15 47.4405C15 47.4399 15 47.4393 15 47.4387C15 47.4381 15 47.4375 15 47.4369C15 47.4363 15 47.4357 15 47.4351C15 47.4345 15 47.4339 15 47.4333C15 47.4327 15 47.4321 15 47.4315C15 47.4309 15 47.4303 15 47.4296C15 47.429 15 47.4284 15 47.4278C15 47.4272 15 47.4266 15 47.426C15 47.4254 15 47.4248 15 47.4242C15 47.4236 15 47.423 15 47.4224C15 47.4218 15 47.4212 15 47.4206C15 47.42 15 47.4194 15 47.4188C15 47.4182 15 47.4176 15 47.417C15 47.4164 15 47.4158 15 47.4152C15 47.4146 15 47.414 15 47.4134C15 47.4128 15 47.4122 15 47.4116C15 47.411 15 47.4104 15 47.4098C15 47.4092 15 47.4086 15 47.408C15 47.4074 15 47.4068 15 47.4062C15 47.4056 15 47.405 15 47.4044C15 47.4038 15 47.4032 15 47.4026C15 47.402 15 47.4014 15 47.4008C15 47.4002 15 47.3995 15 47.3989C15 47.3983 15 47.3977 15 47.3971C15 47.3965 15 47.3959 15 47.3953C15 47.3947 15 47.3941 15 47.3935C15 47.3929 15 47.3923 15 47.3917C15 47.3911 15 47.3905 15 47.3899C15 47.3893 15 47.3887 15 47.3881C15 47.3875 15 47.3869 15 47.3863C15 47.3857 15 47.3851 15 47.3845C15 47.3839 15 47.3833 15 47.3827C15 47.3821 15 47.3815 15 47.3809C15 47.3803 15 47.3797 15 47.3791C15 47.3785 15 47.3779 15 47.3773C15 47.3767 15 47.3761 15 47.3755C15 47.3749 15 47.3743 15 47.3737C15 47.3731 15 47.3725 15 47.3718C15 47.3712 15 47.3706 15 47.37C15 47.3694 15 47.3688 15 47.3682C15 47.3676 15 47.367 15 47.3664C15 47.3658 15 47.3652 15 47.3646C15 47.364 15 47.3634 15 47.3628C15 47.3622 15 47.3616 15 47.361C15 47.3604 15 47.3598 15 47.3592C15 47.3586 15 47.358 15 47.3574C15 47.3568 15 47.3561 15 47.3555C15 47.3549 15 47.3543 15 47.3537C15 47.3531 15 47.3525 15 47.3519C15 47.3513 15 47.3507 15 47.3501C15 47.3495 15 47.3489 15 47.3483C15 47.3477 15 47.3471 15 47.3465C15 47.3459 15 47.3452 15 47.3446C15 47.344 15 47.3434 15 47.3428C15 47.3422 15 47.3416 15 47.341C15 47.3404 15 47.3398 15 47.3392C15 47.3386 15 47.338 15 47.3374C15 47.3367 15 47.3361 15 47.3355C15 47.3349 15 47.3343 15 47.3337C15 47.3331 15 47.3325 15 47.3319C15 47.3313 15 47.3307 15 47.3301C15 47.3294 15 47.3288 15 47.3282C15 47.3276 15 47.327 15 47.3264C15 47.3258 15 47.3252 15 47.3246C15 47.3239 15 47.3233 15 47.3227C15 47.3221 15 47.3215 15 47.3209C15 47.3203 15 47.3197 15 47.3191C15 47.3184 15 47.3178 15 47.3172C15 47.3166 15 47.316 15 47.3154C15 47.3148 15 47.3142 15 47.3135C15 47.3129 15 47.3123 15 47.3117C15 47.3111 15 47.3105 15 47.3099C15 47.3092 15 47.3086 15 47.308C15 47.3074 15 47.3068 15 47.3062C15 47.3056 15 47.3049 15 47.3043C15 47.3037 15 47.3031 15 47.3025C15 47.3019 15 47.3012 15 47.3006C15 47.3 15 47.2994 15 47.2988C15 47.2982 15 47.2975 15 47.2969C15 47.2963 15 47.2957 15 47.2951C15 47.2944 15 47.2938 15 47.2932C15 47.2926 15 47.292 15 47.2913C15 47.2907 15 47.2901 15 47.2895C15 47.2889 15 47.2882 15 47.2876C15 47.287 15 47.2864 15 47.2858C15 47.2851 15 47.2845 15 47.2839C15 47.2833 15 47.2827 15 47.282C15 47.2814 15 47.2808 15 47.2802C15 47.2795 15 47.2789 15 47.2783C15 47.2777 15 47.277 15 47.2764C15 47.2758 15 47.2752 15 47.2745C15 47.2739 15 47.2733 15 47.2727C15 47.272 15 47.2714 15 47.2708C15 47.2701 15 47.2695 15 47.2689C15 47.2683 15 47.2676 15 47.267C15 47.2664 15 47.2658 15 47.2651C15 47.2645 15 47.2639 15 47.2632C15 47.2626 15 47.262 15 47.2613C15 47.2607 15 47.2601 15 47.2594C15 47.2588 15 47.2582 15 47.2576C15 47.2569 15 47.2563 15 47.2557C15 47.255 15 47.2544 15 47.2538C15 47.2531 15 47.2525 15 47.2519C15 47.2512 15 47.2506 15 47.2499C15 47.2493 15 47.2487 15 47.248C15 47.2474 15 47.2468 15 47.2461C15 47.2455 15 47.2449 15 47.2442C15 47.2436 15 47.2429 15 47.2423C15 47.2417 15 47.241 15 47.2404C15 47.2397 15 47.2391 15 47.2385C15 47.2378 15 47.2372 15 47.2365C15 47.2359 15 47.2353 15 47.2346C15 47.234 15 47.2333 15 47.2327C15 47.232 15 47.2314 15 47.2308C15 47.2301 15 47.2295 15 47.2288C15 47.2282 15 47.2275 15 47.2269C15 47.2262 15 47.2256 15 47.2249C15 47.2243 15 47.2236 15 47.223C15 47.2223 15 47.2217 15 47.2211C15 47.2204 15 47.2198 15 47.2191C15 47.2185 15 47.2178 15 47.2172C15 47.2165 15 47.2158 15 47.2152C15 47.2145 15 47.2139 15 47.2132C15 47.2126 15 47.2119 15 47.2113C15 47.2106 15 47.21 15 47.2093C15 47.2087 15 47.208 15 47.2073C15 47.2067 15 47.206 15 47.2054C15 47.2047 15 47.2041 15 47.2034C15 47.2027 15 47.2021 15 47.2014C15 47.2008 15 47.2001 15 47.1995C15 47.1988 15 47.1981 15 47.1975C15 47.1968 15 47.1961 15 47.1955C15 47.1948 15 47.1942 15 47.1935C15 47.1928 15 47.1922 15 47.1915C15 47.1908 15 47.1902 15 47.1895C15 47.1888 15 47.1882 15 47.1875C15 47.1868 15 47.1862 15 47.1855C15 47.1848 15 47.1842 15 47.1835C15 47.1828 15 47.1822 15 47.1815C15 47.1808 15 47.1801 15 47.1795C15 47.1788 15 47.1781 15 47.1775C15 47.1768 15 47.1761 15 47.1754C15 47.1748 15 47.1741 15 47.1734C15 47.1727 15 47.1721 15 47.1714C15 47.1707 15 47.17 15 47.1694C15 47.1687 15 47.168 15 47.1673C15 47.1666 15 47.166 15 47.1653C15 47.1646 15 47.1639 15 47.1632C15 47.1626 15 47.1619 15 47.1612C15 47.1605 15 47.1598 15 47.1591C15 47.1585 15 47.1578 15 47.1571C15 47.1564 15 47.1557 15 47.155C15 47.1543 15 47.1537 15 47.153C15 47.1523 15 47.1516 15 47.1509C15 47.1502 15 47.1495 15 47.1488C15 47.1481 15 47.1475 15 47.1468C15 47.1461 15 47.1454 15 47.1447C15 47.144 15 47.1433 15 47.1426C15 47.1419 15 47.1412 15 47.1405C15 47.1398 15 47.1391 15 47.1384C15 47.1377 15 47.137 15 47.1363C15 47.1356 15 47.1349 15 47.1342C15 47.1335 15 47.1328 15 47.1321C15 47.1314 15 47.1307 15 47.13C15 47.1293 15 47.1286 15 47.1279C15 47.1272 15 47.1265 15 47.1258C15 47.1251 15 47.1244 15 47.1237C15 47.123 15 47.1223 15 47.1216C15 47.1209 15 47.1201 15 47.1194C15 47.1187 15 47.118 15 47.1173C15 47.1166 15 47.1159 15 47.1152C15 47.1145 15 47.1137 15 47.113C15 47.1123 15 47.1116 15 47.1109C15 47.1102 15 47.1094 15 47.1087C15 47.108 15 47.1073 15 47.1066C15 47.1059 15 47.1051 15 47.1044C15 47.1037 15 47.103 15 47.1022C15 47.1015 15 47.1008 15 47.1001C15 47.0994 15 47.0986 15 47.0979C15 47.0972 15 47.0965 15 47.0957C15 47.095 15 47.0943 15 47.0935C15 47.0928 15 47.0921 15 47.0914C15 47.0906 15 47.0899 15 47.0892C15 47.0884 15 47.0877 15 47.087C15 47.0862 15 47.0855 15 47.0848C15 47.084 15 47.0833 15 47.0826C15 47.0818 15 47.0811 15 47.0803C15 47.0796 15 47.0789 15 47.0781C15 47.0774 15 47.0767 15 47.0759C15 47.0752 15 47.0744 15 47.0737C15 47.0729 15 47.0722 15 47.0715C15 47.0707 15 47.07 15 47.0692C15 47.0685 15 47.0677 15 47.067C15 47.0662 15 47.0655 15 47.0647C15 47.064 15 47.0632 15 47.0625C15 47.0617 15 47.061 15 47.0602C15 47.0595 15 47.0587 15 47.058C15 47.0572 15 47.0564 15 47.0557C15 47.0549 15 47.0542 15 47.0534C15 47.0527 15 47.0519 15 47.0511C15 47.0504 15 47.0496 15 47.0489C15 47.0481 15 47.0473 15 47.0466C15 47.0458 15 47.045 15 47.0443C15 47.0435 15 47.0427 15 47.042C15 47.0412 15 47.0404 15 47.0397C15 47.0389 15 47.0381 15 47.0374C15 47.0366 15 47.0358 15 47.035C15 47.0343 15 47.0335 15 47.0327C15 47.0319 15 47.0312 15 47.0304C15 47.0296 15 47.0288 15 47.0281C15 47.0273 15 47.0265 15 47.0257C15 47.0249 15 47.0242 15 47.0234C15 47.0226 15 47.0218 15 47.021C15 47.0202 15 47.0195 15 47.0187C15 47.0179 15 47.0171 15 47.0163C15 47.0155 15 47.0147 15 47.0139C15 47.0131 15 47.0124 15 47.0116C15 47.0108 15 47.01 15 47.0092C15 47.0084 15 47.0076 15 47.0068C15 47.006 15 47.0052 15 47.0044C15 47.0036 15 47.0028 15 47.002C15 47.0012 15 47.0004 15 46.9996C15 46.9988 15 46.998 15 46.9972C15 46.9964 15 46.9956 15 46.9948C15 46.994 15 46.9932 15 46.9924C15 46.9916 15 46.9907 15 46.9899C15 46.9891 15 46.9883 15 46.9875C15 46.9867 15 46.9859 15 46.9851C15 46.9843 15 46.9834 15 46.9826C15 46.9818 15 46.981 15 46.9802C15 46.9794 15 46.9785 15 46.9777C15 46.9769 15 46.9761 15 46.9752C15 46.9744 15 46.9736 15 46.9728C15 46.972 15 46.9711 15 46.9703C15 46.9695 15 46.9686 15 46.9678C15 46.967 15 46.9662 15 46.9653C15 46.9645 15 46.9637 15 46.9628C15 46.962 15 46.9612 15 46.9603C15 46.9595 15 46.9587 15 46.9578C15 46.957 15 46.9561 15 46.9553C15 46.9545 15 46.9536 15 46.9528C15 46.9519 15 46.9511 15 46.9503C15 46.9494 15 46.9486 15 46.9477C15 46.9469 15 46.946 15 46.9452C15 46.9443 15 46.9435 15 46.9426C15 46.9418 15 46.9409 15 46.9401C15 46.9392 15 46.9384 15 46.9375C15 46.9367 15 46.9358 15 46.935C15 46.9341 15 46.9332 15 46.9324C15 46.9315 15 46.9307 15 46.9298C15 46.9289 15 46.9281 15 46.9272C15 46.9263 15 46.9255 15 46.9246C15 46.9237 15 46.9229 15 46.922C15 46.9211 15 46.9203 15 46.9194C15 46.9185 15 46.9177 15 46.9168C15 46.9159 15 46.915 15 46.9142C15 46.9133 15 46.9124 15 46.9115C15 46.9107 15 46.9098 15 46.9089C15 46.908 15 46.9071 15 46.9062H13C13 46.9071 13 46.908 13 46.9089C13 46.9098 13 46.9107 13 46.9115C13 46.9124 13 46.9133 13 46.9142C13 46.915 13 46.9159 13 46.9168C13 46.9177 13 46.9185 13 46.9194C13 46.9203 13 46.9211 13 46.922C13 46.9229 13 46.9237 13 46.9246C13 46.9255 13 46.9263 13 46.9272C13 46.9281 13 46.9289 13 46.9298C13 46.9307 13 46.9315 13 46.9324C13 46.9332 13 46.9341 13 46.935C13 46.9358 13 46.9367 13 46.9375C13 46.9384 13 46.9392 13 46.9401C13 46.9409 13 46.9418 13 46.9426C13 46.9435 13 46.9443 13 46.9452C13 46.946 13 46.9469 13 46.9477C13 46.9486 13 46.9494 13 46.9503C13 46.9511 13 46.9519 13 46.9528C13 46.9536 13 46.9545 13 46.9553C13 46.9561 13 46.957 13 46.9578C13 46.9587 13 46.9595 13 46.9603C13 46.9612 13 46.962 13 46.9628C13 46.9637 13 46.9645 13 46.9653C13 46.9662 13 46.967 13 46.9678C13 46.9686 13 46.9695 13 46.9703C13 46.9711 13 46.972 13 46.9728C13 46.9736 13 46.9744 13 46.9752C13 46.9761 13 46.9769 13 46.9777C13 46.9785 13 46.9794 13 46.9802C13 46.981 13 46.9818 13 46.9826C13 46.9834 13 46.9843 13 46.9851C13 46.9859 13 46.9867 13 46.9875C13 46.9883 13 46.9891 13 46.9899C13 46.9907 13 46.9916 13 46.9924C13 46.9932 13 46.994 13 46.9948C13 46.9956 13 46.9964 13 46.9972C13 46.998 13 46.9988 13 46.9996C13 47.0004 13 47.0012 13 47.002C13 47.0028 13 47.0036 13 47.0044C13 47.0052 13 47.006 13 47.0068C13 47.0076 13 47.0084 13 47.0092C13 47.01 13 47.0108 13 47.0116C13 47.0124 13 47.0131 13 47.0139C13 47.0147 13 47.0155 13 47.0163C13 47.0171 13 47.0179 13 47.0187C13 47.0195 13 47.0202 13 47.021C13 47.0218 13 47.0226 13 47.0234C13 47.0242 13 47.0249 13 47.0257C13 47.0265 13 47.0273 13 47.0281C13 47.0288 13 47.0296 13 47.0304C13 47.0312 13 47.0319 13 47.0327C13 47.0335 13 47.0343 13 47.035C13 47.0358 13 47.0366 13 47.0374C13 47.0381 13 47.0389 13 47.0397C13 47.0404 13 47.0412 13 47.042C13 47.0427 13 47.0435 13 47.0443C13 47.045 13 47.0458 13 47.0466C13 47.0473 13 47.0481 13 47.0489C13 47.0496 13 47.0504 13 47.0511C13 47.0519 13 47.0527 13 47.0534C13 47.0542 13 47.0549 13 47.0557C13 47.0564 13 47.0572 13 47.058C13 47.0587 13 47.0595 13 47.0602C13 47.061 13 47.0617 13 47.0625C13 47.0632 13 47.064 13 47.0647C13 47.0655 13 47.0662 13 47.067C13 47.0677 13 47.0685 13 47.0692C13 47.07 13 47.0707 13 47.0715C13 47.0722 13 47.0729 13 47.0737C13 47.0744 13 47.0752 13 47.0759C13 47.0767 13 47.0774 13 47.0781C13 47.0789 13 47.0796 13 47.0803C13 47.0811 13 47.0818 13 47.0826C13 47.0833 13 47.084 13 47.0848C13 47.0855 13 47.0862 13 47.087C13 47.0877 13 47.0884 13 47.0892C13 47.0899 13 47.0906 13 47.0914C13 47.0921 13 47.0928 13 47.0935C13 47.0943 13 47.095 13 47.0957C13 47.0965 13 47.0972 13 47.0979C13 47.0986 13 47.0994 13 47.1001C13 47.1008 13 47.1015 13 47.1022C13 47.103 13 47.1037 13 47.1044C13 47.1051 13 47.1059 13 47.1066C13 47.1073 13 47.108 13 47.1087C13 47.1094 13 47.1102 13 47.1109C13 47.1116 13 47.1123 13 47.113C13 47.1137 13 47.1145 13 47.1152C13 47.1159 13 47.1166 13 47.1173C13 47.118 13 47.1187 13 47.1194C13 47.1201 13 47.1209 13 47.1216C13 47.1223 13 47.123 13 47.1237C13 47.1244 13 47.1251 13 47.1258C13 47.1265 13 47.1272 13 47.1279C13 47.1286 13 47.1293 13 47.13C13 47.1307 13 47.1314 13 47.1321C13 47.1328 13 47.1335 13 47.1342C13 47.1349 13 47.1356 13 47.1363C13 47.137 13 47.1377 13 47.1384C13 47.1391 13 47.1398 13 47.1405C13 47.1412 13 47.1419 13 47.1426C13 47.1433 13 47.144 13 47.1447C13 47.1454 13 47.1461 13 47.1468C13 47.1475 13 47.1481 13 47.1488C13 47.1495 13 47.1502 13 47.1509C13 47.1516 13 47.1523 13 47.153C13 47.1537 13 47.1543 13 47.155C13 47.1557 13 47.1564 13 47.1571C13 47.1578 13 47.1585 13 47.1591C13 47.1598 13 47.1605 13 47.1612C13 47.1619 13 47.1626 13 47.1632C13 47.1639 13 47.1646 13 47.1653C13 47.166 13 47.1666 13 47.1673C13 47.168 13 47.1687 13 47.1694C13 47.17 13 47.1707 13 47.1714C13 47.1721 13 47.1727 13 47.1734C13 47.1741 13 47.1748 13 47.1754C13 47.1761 13 47.1768 13 47.1775C13 47.1781 13 47.1788 13 47.1795C13 47.1801 13 47.1808 13 47.1815C13 47.1822 13 47.1828 13 47.1835C13 47.1842 13 47.1848 13 47.1855C13 47.1862 13 47.1868 13 47.1875C13 47.1882 13 47.1888 13 47.1895C13 47.1902 13 47.1908 13 47.1915C13 47.1922 13 47.1928 13 47.1935C13 47.1942 13 47.1948 13 47.1955C13 47.1961 13 47.1968 13 47.1975C13 47.1981 13 47.1988 13 47.1995C13 47.2001 13 47.2008 13 47.2014C13 47.2021 13 47.2027 13 47.2034C13 47.2041 13 47.2047 13 47.2054C13 47.206 13 47.2067 13 47.2073C13 47.208 13 47.2087 13 47.2093C13 47.21 13 47.2106 13 47.2113C13 47.2119 13 47.2126 13 47.2132C13 47.2139 13 47.2145 13 47.2152C13 47.2158 13 47.2165 13 47.2172C13 47.2178 13 47.2185 13 47.2191C13 47.2198 13 47.2204 13 47.2211C13 47.2217 13 47.2223 13 47.223C13 47.2236 13 47.2243 13 47.2249C13 47.2256 13 47.2262 13 47.2269C13 47.2275 13 47.2282 13 47.2288C13 47.2295 13 47.2301 13 47.2308C13 47.2314 13 47.232 13 47.2327C13 47.2333 13 47.234 13 47.2346C13 47.2353 13 47.2359 13 47.2365C13 47.2372 13 47.2378 13 47.2385C13 47.2391 13 47.2397 13 47.2404C13 47.241 13 47.2417 13 47.2423C13 47.2429 13 47.2436 13 47.2442C13 47.2449 13 47.2455 13 47.2461C13 47.2468 13 47.2474 13 47.248C13 47.2487 13 47.2493 13 47.2499C13 47.2506 13 47.2512 13 47.2519C13 47.2525 13 47.2531 13 47.2538C13 47.2544 13 47.255 13 47.2557C13 47.2563 13 47.2569 13 47.2576C13 47.2582 13 47.2588 13 47.2594C13 47.2601 13 47.2607 13 47.2613C13 47.262 13 47.2626 13 47.2632C13 47.2639 13 47.2645 13 47.2651C13 47.2658 13 47.2664 13 47.267C13 47.2676 13 47.2683 13 47.2689C13 47.2695 13 47.2701 13 47.2708C13 47.2714 13 47.272 13 47.2727C13 47.2733 13 47.2739 13 47.2745C13 47.2752 13 47.2758 13 47.2764C13 47.277 13 47.2777 13 47.2783C13 47.2789 13 47.2795 13 47.2802C13 47.2808 13 47.2814 13 47.282C13 47.2827 13 47.2833 13 47.2839C13 47.2845 13 47.2851 13 47.2858C13 47.2864 13 47.287 13 47.2876C13 47.2882 13 47.2889 13 47.2895C13 47.2901 13 47.2907 13 47.2913C13 47.292 13 47.2926 13 47.2932C13 47.2938 13 47.2944 13 47.2951C13 47.2957 13 47.2963 13 47.2969C13 47.2975 13 47.2982 13 47.2988C13 47.2994 13 47.3 13 47.3006C13 47.3012 13 47.3019 13 47.3025C13 47.3031 13 47.3037 13 47.3043C13 47.3049 13 47.3056 13 47.3062C13 47.3068 13 47.3074 13 47.308C13 47.3086 13 47.3092 13 47.3099C13 47.3105 13 47.3111 13 47.3117C13 47.3123 13 47.3129 13 47.3135C13 47.3142 13 47.3148 13 47.3154C13 47.316 13 47.3166 13 47.3172C13 47.3178 13 47.3184 13 47.3191C13 47.3197 13 47.3203 13 47.3209C13 47.3215 13 47.3221 13 47.3227C13 47.3233 13 47.3239 13 47.3246C13 47.3252 13 47.3258 13 47.3264C13 47.327 13 47.3276 13 47.3282C13 47.3288 13 47.3294 13 47.3301C13 47.3307 13 47.3313 13 47.3319C13 47.3325 13 47.3331 13 47.3337C13 47.3343 13 47.3349 13 47.3355C13 47.3361 13 47.3367 13 47.3374C13 47.338 13 47.3386 13 47.3392C13 47.3398 13 47.3404 13 47.341C13 47.3416 13 47.3422 13 47.3428C13 47.3434 13 47.344 13 47.3446C13 47.3452 13 47.3459 13 47.3465C13 47.3471 13 47.3477 13 47.3483C13 47.3489 13 47.3495 13 47.3501C13 47.3507 13 47.3513 13 47.3519C13 47.3525 13 47.3531 13 47.3537C13 47.3543 13 47.3549 13 47.3555C13 47.3561 13 47.3568 13 47.3574C13 47.358 13 47.3586 13 47.3592C13 47.3598 13 47.3604 13 47.361C13 47.3616 13 47.3622 13 47.3628C13 47.3634 13 47.364 13 47.3646C13 47.3652 13 47.3658 13 47.3664C13 47.367 13 47.3676 13 47.3682C13 47.3688 13 47.3694 13 47.37C13 47.3706 13 47.3712 13 47.3718C13 47.3725 13 47.3731 13 47.3737C13 47.3743 13 47.3749 13 47.3755C13 47.3761 13 47.3767 13 47.3773C13 47.3779 13 47.3785 13 47.3791C13 47.3797 13 47.3803 13 47.3809C13 47.3815 13 47.3821 13 47.3827C13 47.3833 13 47.3839 13 47.3845C13 47.3851 13 47.3857 13 47.3863C13 47.3869 13 47.3875 13 47.3881C13 47.3887 13 47.3893 13 47.3899C13 47.3905 13 47.3911 13 47.3917C13 47.3923 13 47.3929 13 47.3935C13 47.3941 13 47.3947 13 47.3953C13 47.3959 13 47.3965 13 47.3971C13 47.3977 13 47.3983 13 47.3989C13 47.3995 13 47.4002 13 47.4008C13 47.4014 13 47.402 13 47.4026C13 47.4032 13 47.4038 13 47.4044C13 47.405 13 47.4056 13 47.4062C13 47.4068 13 47.4074 13 47.408C13 47.4086 13 47.4092 13 47.4098C13 47.4104 13 47.411 13 47.4116C13 47.4122 13 47.4128 13 47.4134C13 47.414 13 47.4146 13 47.4152C13 47.4158 13 47.4164 13 47.417C13 47.4176 13 47.4182 13 47.4188C13 47.4194 13 47.42 13 47.4206C13 47.4212 13 47.4218 13 47.4224C13 47.423 13 47.4236 13 47.4242C13 47.4248 13 47.4254 13 47.426C13 47.4266 13 47.4272 13 47.4278C13 47.4284 13 47.429 13 47.4296C13 47.4303 13 47.4309 13 47.4315C13 47.4321 13 47.4327 13 47.4333C13 47.4339 13 47.4345 13 47.4351C13 47.4357 13 47.4363 13 47.4369C13 47.4375 13 47.4381 13 47.4387C13 47.4393 13 47.4399 13 47.4405C13 47.4411 13 47.4417 13 47.4423C13 47.4429 13 47.4435 13 47.4441C13 47.4447 13 47.4453 13 47.4459C13 47.4466 13 47.4472 13 47.4478C13 47.4484 13 47.449 13 47.4496C13 47.4502 13 47.4508 13 47.4514C13 47.452 13 47.4526 13 47.4532C13 47.4538 13 47.4544 13 47.455C13 47.4556 13 47.4562 13 47.4568C13 47.4575 13 47.4581 13 47.4587C13 47.4593 13 47.4599 13 47.4605C13 47.4611 13 47.4617 13 47.4623C13 47.4629 13 47.4635 13 47.4641C13 47.4647 13 47.4653 13 47.466C13 47.4666 13 47.4672 13 47.4678C13 47.4684 13 47.469 13 47.4696C13 47.4702 13 47.4708 13 47.4714C13 47.472 13 47.4726 13 47.4733C13 47.4739 13 47.4745 13 47.4751C13 47.4757 13 47.4763 13 47.4769C13 47.4775 13 47.4781 13 47.4787C13 47.4794 13 47.48 13 47.4806C13 47.4812 13 47.4818 13 47.4824C13 47.483 13 47.4836 13 47.4842C13 47.4849 13 47.4855 13 47.4861C13 47.4867 13 47.4873 13 47.4879C13 47.4885 13 47.4891 13 47.4898C13 47.4904 13 47.491 13 47.4916C13 47.4922 13 47.4928 13 47.4934C13 47.4941 13 47.4947 13 47.4953C13 47.4959 13 47.4965 13 47.4971C13 47.4977 13 47.4984 13 47.499C13 47.4996 13 47.5002 13 47.5008C13 47.5014 13 47.5021 13 47.5027C13 47.5033 13 47.5039 13 47.5045C13 47.5051 13 47.5058 13 47.5064C13 47.507 13 47.5076 13 47.5082C13 47.5089 13 47.5095 13 47.5101C13 47.5107 13 47.5113 13 47.512C13 47.5126 13 47.5132 13 47.5138C13 47.5144 13 47.5151 13 47.5157C13 47.5163 13 47.5169 13 47.5175C13 47.5182 13 47.5188 13 47.5194C13 47.52 13 47.5206 13 47.5213C13 47.5219 13 47.5225 13 47.5231C13 47.5238 13 47.5244 13 47.525C13 47.5256 13 47.5263 13 47.5269C13 47.5275 13 47.5281 13 47.5288C13 47.5294 13 47.53 13 47.5306C13 47.5313 13 47.5319 13 47.5325C13 47.5331 13 47.5338 13 47.5344C13 47.535 13 47.5357 13 47.5363C13 47.5369 13 47.5375 13 47.5382C13 47.5388 13 47.5394 13 47.5401C13 47.5407 13 47.5413 13 47.542C13 47.5426 13 47.5432 13 47.5438C13 47.5445 13 47.5451 13 47.5457C13 47.5464 13 47.547 13 47.5476C13 47.5483 13 47.5489 13 47.5495C13 47.5502 13 47.5508 13 47.5514C13 47.5521 13 47.5527 13 47.5533C13 47.554 13 47.5546 13 47.5553C13 47.5559 13 47.5565 13 47.5572C13 47.5578 13 47.5584 13 47.5591C13 47.5597 13 47.5604 13 47.561C13 47.5616 13 47.5623 13 47.5629C13 47.5636 13 47.5642 13 47.5648C13 47.5655 13 47.5661 13 47.5668C13 47.5674 13 47.568 13 47.5687C13 47.5693 13 47.57 13 47.5706C13 47.5713 13 47.5719 13 47.5725C13 47.5732 13 47.5738 13 47.5745C13 47.5751 13 47.5758 13 47.5764C13 47.5771 13 47.5777 13 47.5784C13 47.579 13 47.5796 13 47.5803C13 47.5809 13 47.5816 13 47.5822C13 47.5829 13 47.5835 13 47.5842C13 47.5848 13 47.5855 13 47.5861C13 47.5868 13 47.5874 13 47.5881C13 47.5887 13 47.5894 13 47.59C13 47.5907 13 47.5914 13 47.592C13 47.5927 13 47.5933 13 47.594C13 47.5946 13 47.5953 13 47.5959C13 47.5966 13 47.5973 13 47.5979C13 47.5986 13 47.5992 13 47.5999C13 47.6005 13 47.6012 13 47.6019C13 47.6025 13 47.6032 13 47.6038C13 47.6045 13 47.6052 13 47.6058C13 47.6065 13 47.6071 13 47.6078C13 47.6085 13 47.6091 13 47.6098C13 47.6105 13 47.6111 13 47.6118C13 47.6124 13 47.6131 13 47.6138C13 47.6144 13 47.6151 13 47.6158C13 47.6164 13 47.6171 13 47.6178C13 47.6184 13 47.6191 13 47.6198C13 47.6205 13 47.6211 13 47.6218C13 47.6225 13 47.6231 13 47.6238C13 47.6245 13 47.6252 13 47.6258C13 47.6265 13 47.6272 13 47.6278C13 47.6285 13 47.6292 13 47.6299C13 47.6305 13 47.6312 13 47.6319C13 47.6326 13 47.6332 13 47.6339C13 47.6346 13 47.6353 13 47.636C13 47.6366 13 47.6373 13 47.638C13 47.6387 13 47.6394 13 47.64C13 47.6407 13 47.6414 13 47.6421C13 47.6428 13 47.6434 13 47.6441C13 47.6448 13 47.6455 13 47.6462C13 47.6469 13 47.6476 13 47.6482C13 47.6489 13 47.6496 13 47.6503C13 47.651 13 47.6517 13 47.6524C13 47.6531 13 47.6537 13 47.6544C13 47.6551 13 47.6558 13 47.6565C13 47.6572 13 47.6579 13 47.6586C13 47.6593 13 47.66 13 47.6607C13 47.6614 13 47.6621 13 47.6628C13 47.6635 13 47.6641 13 47.6648C13 47.6655 13 47.6662 13 47.6669C13 47.6676 13 47.6683 13 47.669C13 47.6697 13 47.6704 13 47.6711C13 47.6718 13 47.6725 13 47.6732C13 47.6739 13 47.6746 13 47.6754C13 47.6761 13 47.6768 13 47.6775C13 47.6782 13 47.6789 13 47.6796C13 47.6803 13 47.681 13 47.6817C13 47.6824 13 47.6831 13 47.6838C13 47.6845 13 47.6853 13 47.686C13 47.6867 13 47.6874 13 47.6881C13 47.6888 13 47.6895 13 47.6902C13 47.691 13 47.6917 13 47.6924C13 47.6931 13 47.6938 13 47.6945C13 47.6953 13 47.696 13 47.6967C13 47.6974 13 47.6981 13 47.6989C13 47.6996 13 47.7003 13 47.701C13 47.7017 13 47.7025 13 47.7032C13 47.7039 13 47.7046 13 47.7054C13 47.7061 13 47.7068 13 47.7075C13 47.7083 13 47.709 13 47.7097C13 47.7104 13 47.7112 13 47.7119C13 47.7126 13 47.7134 13 47.7141C13 47.7148 13 47.7156 13 47.7163C13 47.717 13 47.7178 13 47.7185C13 47.7192 13 47.72 13 47.7207C13 47.7214 13 47.7222 13 47.7229C13 47.7236 13 47.7244 13 47.7251C13 47.7259 13 47.7266 13 47.7273C13 47.7281 13 47.7288 13 47.7296C13 47.7303 13 47.7311 13 47.7318C13 47.7325 13 47.7333 13 47.734C13 47.7348 13 47.7355 13 47.7363C13 47.737 13 47.7378 13 47.7385C13 47.7393 13 47.74 13 47.7408C13 47.7415 13 47.7423 13 47.743C13 47.7438 13 47.7445 13 47.7453C13 47.7461 13 47.7468 13 47.7476C13 47.7483 13 47.7491 13 47.7498C13 47.7506 13 47.7514 13 47.7521C13 47.7529 13 47.7536 13 47.7544C13 47.7552 13 47.7559 13 47.7567C13 47.7575 13 47.7582 13 47.759C13 47.7597 13 47.7605 13 47.7613C13 47.762 13 47.7628 13 47.7636C13 47.7644 13 47.7651 13 47.7659C13 47.7667 13 47.7674 13 47.7682C13 47.769 13 47.7698 13 47.7705C13 47.7713 13 47.7721 13 47.7729C13 47.7736 13 47.7744 13 47.7752C13 47.776 13 47.7768 13 47.7775C13 47.7783 13 47.7791 13 47.7799C13 47.7807 13 47.7814 13 47.7822C13 47.783 13 47.7838 13 47.7846C13 47.7854 13 47.7862 13 47.7869C13 47.7877 13 47.7885 13 47.7893C13 47.7901 13 47.7909 13 47.7917C13 47.7925 13 47.7933 13 47.7941C13 47.7948 13 47.7956 13 47.7964C13 47.7972 13 47.798 13 47.7988C13 47.7996 13 47.8004 13 47.8012C13 47.802 13 47.8028 13 47.8036C13 47.8044 13 47.8052 13 47.806C13 47.8068 13 47.8076 13 47.8085C13 47.8093 13 47.8101 13 47.8109C13 47.8117 13 47.8125 13 47.8133C13 47.8141 13 47.8149 13 47.8157C13 47.8165 13 47.8174 13 47.8182C13 47.819 13 47.8198 13 47.8206C13 47.8214 13 47.8222 13 47.8231C13 47.8239 13 47.8247 13 47.8255C13 47.8263 13 47.8272 13 47.828C13 47.8288 13 47.8296 13 47.8305C13 47.8313 13 47.8321 13 47.8329C13 47.8338 13 47.8346 13 47.8354C13 47.8362 13 47.8371 13 47.8379C13 47.8387 13 47.8396 13 47.8404C13 47.8412 13 47.8421 13 47.8429C13 47.8437 13 47.8446 13 47.8454C13 47.8462 13 47.8471 13 47.8479C13 47.8488 13 47.8496 13 47.8504C13 47.8513 13 47.8521 13 47.853C13 47.8538 13 47.8547 13 47.8555C13 47.8563 13 47.8572 13 47.858C13 47.8589 13 47.8597 13 47.8606C13 47.8614 13 47.8623 13 47.8631C13 47.864 13 47.8648 13 47.8657C13 47.8666 13 47.8674 13 47.8683C13 47.8691 13 47.87 13 47.8708C13 47.8717 13 47.8726 13 47.8734C13 47.8743 13 47.8751 13 47.876C13 47.8769 13 47.8777 13 47.8786C13 47.8795 13 47.8803 13 47.8812C13 47.8821 13 47.8829 13 47.8838C13 47.8847 13 47.8856 13 47.8864C13 47.8873 13 47.8882 13 47.8891C13 47.8899 13 47.8908 13 47.8917C13 47.8926 13 47.8934 13 47.8943C13 47.8952 13 47.8961 13 47.897C13 47.8978 13 47.8987 13 47.8996C13 47.9005 13 47.9014 13 47.9023C13 47.9032 13 47.904 13 47.9049C13 47.9058 13 47.9067 13 47.9076C13 47.9085 13 47.9094 13 47.9103C13 47.9112 13 47.9121 13 47.913C13 47.9139 13 47.9148 13 47.9157C13 47.9166 13 47.9175 13 47.9184C13 47.9193 13 47.9202 13 47.9211C13 47.922 13 47.9229 13 47.9238C13 47.9247 13 47.9256 13 47.9265C13 47.9274 13 47.9283 13 47.9292C13 47.9302 13 47.9311 13 47.932C13 47.9329 13 47.9338 13 47.9347C13 47.9356 13 47.9366 13 47.9375C13 47.9384 13 47.9393 13 47.9402C13 47.9412 13 47.9421 13 47.943C13 47.9439 13 47.9449 13 47.9458C13 47.9467 13 47.9476 13 47.9486C13 47.9495 13 47.9504 13 47.9514C13 47.9523 13 47.9532 13 47.9542C13 47.9551 13 47.956 13 47.957C13 47.9579 13 47.9588 13 47.9598C13 47.9607 13 47.9617 13 47.9626C13 47.9635 13 47.9645 13 47.9654C13 47.9664 13 47.9673 13 47.9683C13 47.9692 13 47.9702 13 47.9711C13 47.9721 13 47.973 13 47.974C13 47.9749 13 47.9759 13 47.9768C13 47.9778 13 47.9787 13 47.9797C13 47.9806 13 47.9816 13 47.9826C13 47.9835 13 47.9845 13 47.9855C13 47.9864 13 47.9874 13 47.9883C13 47.9893 13 47.9903 13 47.9912C13 47.9922 13 47.9932 13 47.9942C13 47.9951 13 47.9961 13 47.9971C13 47.998 13 47.999 13 48H15ZM33.1667 47H14V49H33.1667V47ZM33 47.1797C33 47.0654 33.0886 47 33.1667 47V49C34.1652 49 35 48.1977 35 47.1797H33ZM33 42.0881V47.1797H35V42.0881H33ZM29.8333 38.9972C31.5996 38.9972 33 40.3982 33 42.0881H35C35 39.2592 32.6694 36.9972 29.8333 36.9972V38.9972ZM18.1667 38.9972H29.8333V36.9972H18.1667V38.9972Z" fill="#40052F" mask="url(#path-4-inside-1)"/>
<mask id="path-6-inside-2" fill="white">
<path fill-rule="evenodd" clip-rule="evenodd" d="M29.9999 48H47.1665C47.6268 48 47.9999 47.6337 47.9999 47.1818V38.1818C47.9999 35.9225 46.1344 34.0909 43.8332 34.0909H32.1665C30.2839 34.0909 28.6928 35.3168 28.1764 37C28.083 37.3044 28.0247 37.6238 28.0062 37.9536C28.0054 37.969 28.0046 37.9845 28.0039 38H28.8383C28.9343 36.2771 30.3877 34.9091 32.1665 34.9091H43.8332C45.6741 34.9091 47.1665 36.3743 47.1665 38.1818V47.1818H29.9999V48ZM37.9999 32.4545C41.2215 32.4545 43.8332 29.8904 43.8332 26.7273C43.8332 23.5642 41.2215 21 37.9999 21C34.7782 21 32.1665 23.5642 32.1665 26.7273C32.1665 29.8904 34.7782 32.4545 37.9999 32.4545ZM37.9999 31.6364C40.7613 31.6364 42.9999 29.4385 42.9999 26.7273C42.9999 24.0161 40.7613 21.8182 37.9999 21.8182C35.2384 21.8182 32.9999 24.0161 32.9999 26.7273C32.9999 29.4385 35.2384 31.6364 37.9999 31.6364Z"/>
</mask>
<path fill-rule="evenodd" clip-rule="evenodd" d="M29.9999 48H47.1665C47.6268 48 47.9999 47.6337 47.9999 47.1818V38.1818C47.9999 35.9225 46.1344 34.0909 43.8332 34.0909H32.1665C30.2839 34.0909 28.6928 35.3168 28.1764 37C28.083 37.3044 28.0247 37.6238 28.0062 37.9536C28.0054 37.969 28.0046 37.9845 28.0039 38H28.8383C28.9343 36.2771 30.3877 34.9091 32.1665 34.9091H43.8332C45.6741 34.9091 47.1665 36.3743 47.1665 38.1818V47.1818H29.9999V48ZM37.9999 32.4545C41.2215 32.4545 43.8332 29.8904 43.8332 26.7273C43.8332 23.5642 41.2215 21 37.9999 21C34.7782 21 32.1665 23.5642 32.1665 26.7273C32.1665 29.8904 34.7782 32.4545 37.9999 32.4545ZM37.9999 31.6364C40.7613 31.6364 42.9999 29.4385 42.9999 26.7273C42.9999 24.0161 40.7613 21.8182 37.9999 21.8182C35.2384 21.8182 32.9999 24.0161 32.9999 26.7273C32.9999 29.4385 35.2384 31.6364 37.9999 31.6364Z" fill="#40052F"/>
<path d="M29.9999 48H28.9999V49H29.9999V48ZM28.1764 37L29.1324 37.2933L29.1324 37.2933L28.1764 37ZM28.0062 37.9536L27.0078 37.8977L27.0078 37.8977L28.0062 37.9536ZM28.0039 38L27.0049 37.9555L26.9584 39H28.0039V38ZM28.8383 38V39H29.784L29.8367 38.0557L28.8383 38ZM47.1665 47.1818V48.1818H48.1665V47.1818H47.1665ZM29.9999 47.1818V46.1818H28.9999V47.1818H29.9999ZM47.1665 49C48.1617 49 48.9999 48.2032 48.9999 47.1818H46.9999C46.9999 47.0642 47.0919 47 47.1665 47V49ZM48.9999 47.1818V38.1818H46.9999V47.1818H48.9999ZM48.9999 38.1818C48.9999 35.353 46.6693 33.0909 43.8332 33.0909V35.0909C45.5995 35.0909 46.9999 36.492 46.9999 38.1818H48.9999ZM43.8332 33.0909H32.1665V35.0909H43.8332V33.0909ZM32.1665 33.0909C29.8427 33.0909 27.8651 34.6053 27.2204 36.7067L29.1324 37.2933C29.5205 36.0284 30.725 35.0909 32.1665 35.0909V33.0909ZM27.2204 36.7067C27.1036 37.0873 27.0308 37.4864 27.0078 37.8977L29.0047 38.0095C29.0186 37.7612 29.0624 37.5215 29.1324 37.2933L27.2204 36.7067ZM27.0078 37.8977C27.0067 37.9169 27.0058 37.9362 27.0049 37.9555L29.0029 38.0445C29.0034 38.0328 29.004 38.0212 29.0047 38.0095L27.0078 37.8977ZM28.0039 39H28.8383V37H28.0039V39ZM29.8367 38.0557C29.9025 36.8755 30.9054 35.9091 32.1665 35.9091V33.9091C29.8701 33.9091 27.9662 35.6787 27.8398 37.9443L29.8367 38.0557ZM32.1665 35.9091H43.8332V33.9091H32.1665V35.9091ZM43.8332 35.9091C45.1392 35.9091 46.1665 36.9438 46.1665 38.1818H48.1665C48.1665 35.8048 46.2091 33.9091 43.8332 33.9091V35.9091ZM28.9999 47.1818V48H30.9999V47.1818H28.9999ZM42.8332 26.7273C42.8332 29.3209 40.6866 31.4545 37.9999 31.4545V33.4545C41.7564 33.4545 44.8332 30.4599 44.8332 26.7273H42.8332ZM37.9999 22C40.6866 22 42.8332 24.1337 42.8332 26.7273H44.8332C44.8332 22.9947 41.7564 20 37.9999 20V22ZM33.1665 26.7273C33.1665 24.1337 35.3131 22 37.9999 22V20C34.2433 20 31.1665 22.9947 31.1665 26.7273H33.1665ZM37.9999 31.4545C35.3131 31.4545 33.1665 29.3209 33.1665 26.7273H31.1665C31.1665 30.4599 34.2433 33.4545 37.9999 33.4545V31.4545ZM41.9999 26.7273C41.9999 28.869 40.2264 30.6364 37.9999 30.6364V32.6364C41.2962 32.6364 43.9999 30.008 43.9999 26.7273H41.9999ZM37.9999 22.8182C40.2264 22.8182 41.9999 24.5856 41.9999 26.7273H43.9999C43.9999 23.4466 41.2962 20.8182 37.9999 20.8182V22.8182ZM33.9999 26.7273C33.9999 24.5856 35.7733 22.8182 37.9999 22.8182V20.8182C34.7035 20.8182 31.9999 23.4466 31.9999 26.7273H33.9999ZM37.9999 30.6364C35.7733 30.6364 33.9999 28.869 33.9999 26.7273H31.9999C31.9999 30.008 34.7035 32.6364 37.9999 32.6364V30.6364ZM29.9999 49H47.1665V47H29.9999V49ZM46.1665 38.1818V47.1818H48.1665V38.1818H46.1665ZM47.1665 46.1818H29.9999V48.1818H47.1665V46.1818Z" fill="#40052F" mask="url(#path-6-inside-2)"/>
<mask id="path-8-inside-3" fill="white">
<path fill-rule="evenodd" clip-rule="evenodd" d="M19 48V47.1818H0.833333V38.1818C0.833333 36.3743 2.32572 34.9091 4.16667 34.9091H15.8333C17.6121 34.9091 19.0655 36.2771 19.1616 38H19.996C19.9953 37.9845 19.9945 37.969 19.9936 37.9536C19.9752 37.6238 19.9169 37.3044 19.8235 37C19.307 35.3168 17.716 34.0909 15.8333 34.0909H4.16667C1.86548 34.0909 0 35.9225 0 38.1818V47.1818C0 47.6337 0.373096 48 0.833334 48H19ZM10 32.4545C13.2217 32.4545 15.8333 29.8904 15.8333 26.7273C15.8333 23.5642 13.2217 21 10 21C6.77834 21 4.16667 23.5642 4.16667 26.7273C4.16667 29.8904 6.77834 32.4545 10 32.4545ZM10 31.6364C12.7614 31.6364 15 29.4385 15 26.7273C15 24.0161 12.7614 21.8182 10 21.8182C7.23858 21.8182 5 24.0161 5 26.7273C5 29.4385 7.23858 31.6364 10 31.6364Z"/>
</mask>
<path fill-rule="evenodd" clip-rule="evenodd" d="M19 48V47.1818H0.833333V38.1818C0.833333 36.3743 2.32572 34.9091 4.16667 34.9091H15.8333C17.6121 34.9091 19.0655 36.2771 19.1616 38H19.996C19.9953 37.9845 19.9945 37.969 19.9936 37.9536C19.9752 37.6238 19.9169 37.3044 19.8235 37C19.307 35.3168 17.716 34.0909 15.8333 34.0909H4.16667C1.86548 34.0909 0 35.9225 0 38.1818V47.1818C0 47.6337 0.373096 48 0.833334 48H19ZM10 32.4545C13.2217 32.4545 15.8333 29.8904 15.8333 26.7273C15.8333 23.5642 13.2217 21 10 21C6.77834 21 4.16667 23.5642 4.16667 26.7273C4.16667 29.8904 6.77834 32.4545 10 32.4545ZM10 31.6364C12.7614 31.6364 15 29.4385 15 26.7273C15 24.0161 12.7614 21.8182 10 21.8182C7.23858 21.8182 5 24.0161 5 26.7273C5 29.4385 7.23858 31.6364 10 31.6364Z" fill="#40052F"/>
<path d="M19 47.1818H20V46.1818H19V47.1818ZM19 48V49H20V48H19ZM0.833333 47.1818H-0.166667V48.1818H0.833333V47.1818ZM19.1616 38L18.1632 38.0557L18.2158 39H19.1616V38ZM19.996 38V39H21.0415L20.995 37.9555L19.996 38ZM19.9936 37.9536L18.9952 38.0095L18.9952 38.0096L19.9936 37.9536ZM19.8235 37L18.8675 37.2933V37.2933L19.8235 37ZM18 47.1818V48H20V47.1818H18ZM4.16667 33.9091C1.79081 33.9091 -0.166667 35.8048 -0.166667 38.1818H1.83333C1.83333 36.9438 2.86062 35.9091 4.16667 35.9091V33.9091ZM15.8333 33.9091H4.16667V35.9091H15.8333V33.9091ZM20.1601 37.9443C20.0337 35.6787 18.1298 33.9091 15.8333 33.9091V35.9091C17.0945 35.9091 18.0973 36.8755 18.1632 38.0557L20.1601 37.9443ZM19.996 37H19.1616V39H19.996V37ZM18.9952 38.0096C18.9958 38.0211 18.9964 38.0328 18.997 38.0445L20.995 37.9555C20.9941 37.9363 20.9931 37.917 20.9921 37.8976L18.9952 38.0096ZM18.8675 37.2933C18.9375 37.5215 18.9813 37.7612 18.9952 38.0095L20.9921 37.8977C20.969 37.4864 20.8963 37.0873 20.7795 36.7067L18.8675 37.2933ZM15.8333 35.0909C17.2749 35.0909 18.4794 36.0284 18.8675 37.2933L20.7795 36.7067C20.1347 34.6053 18.1571 33.0909 15.8333 33.0909V35.0909ZM4.16667 35.0909H15.8333V33.0909H4.16667V35.0909ZM1 38.1818C1 36.492 2.40039 35.0909 4.16667 35.0909V33.0909C1.33057 33.0909 -1 35.353 -1 38.1818H1ZM1 47.1818V38.1818H-1V47.1818H1ZM0.833334 47C0.908004 47 1 47.0642 1 47.1818H-1C-1 48.2032 -0.161811 49 0.833334 49V47ZM14.8333 26.7273C14.8333 29.3209 12.6868 31.4545 10 31.4545V33.4545C13.7566 33.4545 16.8333 30.4599 16.8333 26.7273H14.8333ZM10 22C12.6868 22 14.8333 24.1337 14.8333 26.7273H16.8333C16.8333 22.9947 13.7566 20 10 20V22ZM5.16667 26.7273C5.16667 24.1337 7.31325 22 10 22V20C6.24343 20 3.16667 22.9947 3.16667 26.7273H5.16667ZM10 31.4545C7.31325 31.4545 5.16667 29.3209 5.16667 26.7273H3.16667C3.16667 30.4599 6.24343 33.4545 10 33.4545V31.4545ZM14 26.7273C14 28.869 12.2265 30.6364 10 30.6364V32.6364C13.2963 32.6364 16 30.008 16 26.7273H14ZM10 22.8182C12.2265 22.8182 14 24.5856 14 26.7273H16C16 23.4466 13.2963 20.8182 10 20.8182V22.8182ZM6 26.7273C6 24.5856 7.77348 22.8182 10 22.8182V20.8182C6.70367 20.8182 4 23.4466 4 26.7273H6ZM10 30.6364C7.77348 30.6364 6 28.869 6 26.7273H4C4 30.008 6.70367 32.6364 10 32.6364V30.6364ZM0.833333 48.1818H19V46.1818H0.833333V48.1818ZM-0.166667 38.1818V47.1818H1.83333V38.1818H-0.166667ZM19 47H0.833334V49H19V47Z" fill="#40052F" mask="url(#path-8-inside-3)"/>
</svg>
