<svg width="48" height="48" viewBox="0 0 48 48" fill="none" xmlns="http://www.w3.org/2000/svg">
<path d="M15.3108 12.3581C15.3108 12.082 15.087 11.8581 14.8108 11.8581C14.5347 11.8581 14.3108 12.082 14.3108 12.3581H15.3108ZM14.8108 14.8108H14.3108C14.3108 14.9434 14.3635 15.0706 14.4573 15.1644L14.8108 14.8108ZM15.6836 16.3907C15.8789 16.586 16.1955 16.586 16.3907 16.3907C16.586 16.1955 16.586 15.8789 16.3907 15.6836L15.6836 16.3907ZM18.9959 19.2303C19.0211 18.9554 18.8185 18.712 18.5435 18.6869C18.2685 18.6618 18.0252 18.8643 18.0001 19.1393L18.9959 19.2303ZM18.2119 22.3161L17.714 22.2706L17.7139 22.2711L18.2119 22.3161ZM16.5767 23.8041L16.5788 23.3041H16.5767V23.8041ZM13.0367 23.8041L13.0367 23.3041L13.0346 23.3041L13.0367 23.8041ZM11.4015 22.3161L11.8995 22.2711L11.8995 22.2706L11.4015 22.3161ZM11.6133 19.1393C11.5882 18.8643 11.3449 18.6618 11.0699 18.6869C10.7949 18.712 10.5923 18.9554 10.6175 19.2303L11.6133 19.1393ZM10.6256 10.3914C10.6005 10.6664 10.8031 10.9097 11.0781 10.9348C11.3531 10.9599 11.5964 10.7574 11.6215 10.4824L10.6256 10.3914ZM11.4097 7.30559L11.9076 7.35109L11.9077 7.35059L11.4097 7.30559ZM13.0367 5.81762L13.0367 5.31762L13.0362 5.31762L13.0367 5.81762ZM16.5931 5.81762L16.5931 6.31762L16.5951 6.31761L16.5931 5.81762ZM18.2282 7.30559L17.7303 7.35058L17.7303 7.35109L18.2282 7.30559ZM18.0165 10.4824C18.0416 10.7574 18.2849 10.9599 18.5599 10.9348C18.8349 10.9097 19.0374 10.6664 19.0123 10.3914L18.0165 10.4824ZM27.75 14.5C27.75 21.8178 21.8178 27.75 14.5 27.75V28.75C22.3701 28.75 28.75 22.3701 28.75 14.5H27.75ZM14.5 27.75C7.18223 27.75 1.25 21.8178 1.25 14.5H0.25C0.25 22.3701 6.62994 28.75 14.5 28.75V27.75ZM1.25 14.5C1.25 7.18223 7.18223 1.25 14.5 1.25V0.25C6.62994 0.25 0.25 6.62994 0.25 14.5H1.25ZM14.5 1.25C21.8178 1.25 27.75 7.18223 27.75 14.5H28.75C28.75 6.62994 22.3701 0.25 14.5 0.25V1.25ZM20.0338 14.8108C20.0338 17.6954 17.6954 20.0338 14.8108 20.0338V21.0338C18.2477 21.0338 21.0338 18.2477 21.0338 14.8108H20.0338ZM14.8108 20.0338C11.9262 20.0338 9.58784 17.6954 9.58784 14.8108H8.58784C8.58784 18.2477 11.374 21.0338 14.8108 21.0338V20.0338ZM9.58784 14.8108C9.58784 11.9262 11.9262 9.58784 14.8108 9.58784V8.58784C11.374 8.58784 8.58784 11.374 8.58784 14.8108H9.58784ZM14.8108 9.58784C17.6954 9.58784 20.0338 11.9262 20.0338 14.8108H21.0338C21.0338 11.374 18.2477 8.58784 14.8108 8.58784V9.58784ZM14.3108 12.3581V14.8108H15.3108V12.3581H14.3108ZM14.4573 15.1644L15.6836 16.3907L16.3907 15.6836L15.1644 14.4573L14.4573 15.1644ZM18.0001 19.1393L17.714 22.2706L18.7098 22.3616L18.9959 19.2303L18.0001 19.1393ZM17.7139 22.2711C17.6883 22.5541 17.5575 22.8173 17.3474 23.0085L18.0204 23.7481C18.4157 23.3884 18.6617 22.8935 18.7098 22.3611L17.7139 22.2711ZM17.3474 23.0085C17.1372 23.1998 16.8629 23.3053 16.5788 23.3041L16.5747 24.3041C17.1092 24.3063 17.6251 24.1079 18.0204 23.7481L17.3474 23.0085ZM16.5767 23.3041H13.0367V24.3041H16.5767V23.3041ZM13.0346 23.3041C12.7505 23.3053 12.4762 23.1998 12.266 23.0085L11.593 23.7481C11.9883 24.1079 12.5042 24.3063 13.0387 24.3041L13.0346 23.3041ZM12.266 23.0085C12.0559 22.8173 11.9251 22.5541 11.8995 22.2711L10.9036 22.3611C10.9517 22.8935 11.1977 23.3884 11.593 23.7481L12.266 23.0085ZM11.8995 22.2706L11.6133 19.1393L10.6175 19.2303L10.9036 22.3616L11.8995 22.2706ZM11.6215 10.4824L11.9076 7.35109L10.9118 7.26009L10.6256 10.3914L11.6215 10.4824ZM11.9077 7.35059C11.9332 7.06855 12.0632 6.80623 12.2721 6.61511L11.5972 5.87718C11.2042 6.23667 10.9597 6.73009 10.9117 7.26059L11.9077 7.35059ZM12.2721 6.61511C12.4811 6.42399 12.754 6.31788 13.0371 6.31762L13.0362 5.31762C12.5035 5.31812 11.9903 5.5177 11.5972 5.87718L12.2721 6.61511ZM13.0367 6.31762H16.5931V5.31762H13.0367V6.31762ZM16.5951 6.31761C16.8793 6.31646 17.1535 6.42193 17.3637 6.61319L18.0368 5.87358C17.6414 5.51384 17.1256 5.31545 16.5911 5.31762L16.5951 6.31761ZM17.3637 6.61319C17.5739 6.80444 17.7047 7.06757 17.7303 7.35058L18.7262 7.26059C18.6781 6.72826 18.4321 6.23332 18.0368 5.87358L17.3637 6.61319ZM17.7303 7.35109L18.0165 10.4824L19.0123 10.3914L18.7262 7.26009L17.7303 7.35109ZM5.34439 24.3625L25.3444 5.36251L24.6556 4.63751L4.65564 23.6375L5.34439 24.3625Z" fill="#40052F"/>
<mask id="path-2-inside-1" fill="white">
<path fill-rule="evenodd" clip-rule="evenodd" d="M36 28C39.3137 28 42 25.3137 42 22C42 18.6863 39.3137 16 36 16C32.6863 16 30 18.6863 30 22C30 25.3137 32.6863 28 36 28ZM47 47V36C47 33.7909 45.2091 32 43 32H29C26.7909 32 25 33.7909 25 36V47H47ZM36 29C39.866 29 43 25.866 43 22C43 18.134 39.866 15 36 15C32.134 15 29 18.134 29 22C29 25.866 32.134 29 36 29ZM29 31C26.2386 31 24 33.2386 24 36V47C24 47.5523 24.4477 48 25 48H47C47.5523 48 48 47.5523 48 47V36C48 33.2386 45.7614 31 43 31H29Z"/>
</mask>
<path fill-rule="evenodd" clip-rule="evenodd" d="M36 28C39.3137 28 42 25.3137 42 22C42 18.6863 39.3137 16 36 16C32.6863 16 30 18.6863 30 22C30 25.3137 32.6863 28 36 28ZM47 47V36C47 33.7909 45.2091 32 43 32H29C26.7909 32 25 33.7909 25 36V47H47ZM36 29C39.866 29 43 25.866 43 22C43 18.134 39.866 15 36 15C32.134 15 29 18.134 29 22C29 25.866 32.134 29 36 29ZM29 31C26.2386 31 24 33.2386 24 36V47C24 47.5523 24.4477 48 25 48H47C47.5523 48 48 47.5523 48 47V36C48 33.2386 45.7614 31 43 31H29Z" fill="#40052F"/>
<path d="M47 47V48H48V47H47ZM25 47H24V48H25V47ZM41 22C41 24.7614 38.7614 27 36 27V29C39.866 29 43 25.866 43 22H41ZM36 17C38.7614 17 41 19.2386 41 22H43C43 18.134 39.866 15 36 15V17ZM31 22C31 19.2386 33.2386 17 36 17V15C32.134 15 29 18.134 29 22H31ZM36 27C33.2386 27 31 24.7614 31 22H29C29 25.866 32.134 29 36 29V27ZM46 36V47H48V36H46ZM43 33C44.6569 33 46 34.3431 46 36H48C48 33.2386 45.7614 31 43 31V33ZM29 33H43V31H29V33ZM26 36C26 34.3431 27.3431 33 29 33V31C26.2386 31 24 33.2386 24 36H26ZM26 47V36H24V47H26ZM47 46H25V48H47V46ZM42 22C42 25.3137 39.3137 28 36 28V30C40.4183 30 44 26.4183 44 22H42ZM36 16C39.3137 16 42 18.6863 42 22H44C44 17.5817 40.4183 14 36 14V16ZM30 22C30 18.6863 32.6863 16 36 16V14C31.5817 14 28 17.5817 28 22H30ZM36 28C32.6863 28 30 25.3137 30 22H28C28 26.4183 31.5817 30 36 30V28ZM25 36C25 33.7909 26.7909 32 29 32V30C25.6863 30 23 32.6863 23 36H25ZM25 47V36H23V47H25ZM25 47H25H23C23 48.1046 23.8954 49 25 49V47ZM47 47H25V49H47V47ZM47 47V49C48.1046 49 49 48.1046 49 47H47ZM47 36V47H49V36H47ZM43 32C45.2091 32 47 33.7909 47 36H49C49 32.6863 46.3137 30 43 30V32ZM29 32H43V30H29V32Z" fill="#40052F" mask="url(#path-2-inside-1)"/>
<g opacity="0.2">
<path d="M18 10L14.5 9L11 10L11.5 6.5L13 5.5L17.5 6L18 7V10Z" fill="#40052F"/>
<path d="M18 20L14.5 21L11 20L11.5 23.5L13.5 24H17.5L18 23V20Z" fill="#40052F"/>
</g>
</svg>
