<svg width="48" height="48" viewBox="0 0 48 48" fill="none" xmlns="http://www.w3.org/2000/svg">
<g opacity="0.2">
<path d="M1 13.0001H4V35.1876L5 36.0001H6.5C6.5 36.0001 19.3864 35.0001 20.5 35.0001C21.6136 35.0001 24 36.0001 24 36.0001L28.1818 35.0001L43.5 36.0001L44 13.0001L47 13.5001V39.5001L1 40.0001V13.0001Z" fill="#40052F"/>
<path d="M24.6667 10.5001L26 9.00009V35.0001L24.6667 36.0001V10.5001Z" fill="#40052F"/>
<path d="M23.5 9.83337L22.1666 8.83337V34.8334L23.5 35.8333V9.83337Z" fill="#40052F"/>
</g>
<path fill-rule="evenodd" clip-rule="evenodd" d="M22.0106 8.39367C22.2786 8.42606 22.521 8.46928 22.6871 8.53634C23.1841 8.73694 23.5612 9.03891 23.8176 9.35524C23.9121 9.47182 23.9958 9.59772 24.063 9.72764C24.1003 9.67244 24.1403 9.61863 24.1824 9.56666C24.4388 9.25033 24.8159 8.94837 25.3129 8.74777C25.479 8.6807 25.7214 8.63748 25.9894 8.60509C26.2735 8.57076 26.6378 8.54323 27.0782 8.52497C27.96 8.48841 29.1672 8.48818 30.6879 8.55001C33.7303 8.67372 38.0425 9.04649 43.5417 9.88071C43.7495 9.91225 44.0078 10.0296 44.2052 10.304C44.3971 10.571 44.5 10.9421 44.5 11.4296V12.5H46.5C47.3284 12.5 48 13.1716 48 14V39C48 39.8284 47.3284 40.5 46.5 40.5H1.5C0.671573 40.5 0 39.8284 0 39V14C0 13.1716 0.671573 12.5 1.5 12.5H3.5V11.2182C3.5 10.7307 3.60285 10.3595 3.79483 10.0926C3.99216 9.81821 4.25047 9.70082 4.45834 9.66929C9.95754 8.83506 14.2697 8.4623 17.3121 8.33859C18.8328 8.27675 20.04 8.27698 20.9218 8.31355C21.3622 8.33181 21.7265 8.35933 22.0106 8.39367ZM3.5 13.5H1.5C1.22386 13.5 1 13.7239 1 14V39C1 39.2761 1.22386 39.5 1.5 39.5H46.5C46.7761 39.5 47 39.2761 47 39V14C47 13.7239 46.7761 13.5 46.5 13.5H44.5V34.6332C44.5 34.7339 44.5002 35.1991 44.3376 35.6545C44.254 35.8887 44.1164 36.1526 43.8839 36.3611C43.6409 36.5792 43.3215 36.7114 42.9334 36.7114C42.1877 36.7114 39.5542 36.5051 36.6445 36.2771C36.3317 36.2526 36.0157 36.2279 35.6986 36.2031C32.4021 35.9456 28.9552 35.6837 27.4577 35.6568C25.9782 35.6302 25.3238 35.8394 25.0354 35.9968C24.8998 36.0709 24.8354 36.1386 24.7948 36.1859C24.7822 36.2006 24.7713 36.2141 24.7562 36.2328C24.7439 36.2478 24.7218 36.2752 24.6976 36.3013L24.696 36.303C24.662 36.3399 24.514 36.5 24.2667 36.5H23.7333C23.5801 36.5 23.4646 36.4368 23.3944 36.3822C23.3312 36.3331 23.2891 36.2791 23.269 36.2522C23.2474 36.2233 23.2273 36.1928 23.2148 36.1737L23.214 36.1724C23.199 36.1496 23.1873 36.1317 23.1737 36.1121C23.1268 36.0442 23.0581 35.9574 22.9234 35.866C22.6453 35.6773 22.0084 35.419 20.5423 35.4454C19.0448 35.4723 15.5979 35.7341 12.3014 35.9917C11.9843 36.0164 11.6683 36.0412 11.3556 36.0657C8.44585 36.2937 5.81226 36.5 5.0666 36.5C4.67846 36.5 4.35911 36.3678 4.11607 36.1497C3.88359 35.9411 3.74601 35.6772 3.66243 35.4431C3.49984 34.9876 3.49997 34.5225 3.5 34.4218L3.5 13.5ZM24.7667 35.0172C25.2929 34.7915 26.1183 34.6325 27.4757 34.657C29.0114 34.6846 32.4979 34.95 35.7765 35.2061C36.0793 35.2298 36.3801 35.2533 36.6775 35.2766C39.6278 35.5076 42.2301 35.7114 42.9334 35.7114C43.0786 35.7114 43.1592 35.6679 43.2161 35.6168C43.2836 35.5562 43.346 35.4577 43.3958 35.3183C43.4978 35.0326 43.5 34.7127 43.5 34.6296V11.4296C43.5 11.0734 43.4241 10.9307 43.3933 10.8879C43.3853 10.8768 43.379 10.8703 43.3751 10.8669C37.9156 10.0392 33.6457 9.67111 30.6473 9.54919C29.146 9.48814 27.9672 9.48897 27.1196 9.52411C26.6954 9.5417 26.3591 9.5677 26.1094 9.59787C25.8436 9.62999 25.7188 9.66229 25.6871 9.67507C25.3508 9.81083 25.1112 10.0089 24.9593 10.1963C24.883 10.2904 24.8319 10.3781 24.8012 10.4491C24.7859 10.4844 24.7768 10.5131 24.7717 10.5342C24.7669 10.5542 24.7667 10.5636 24.7667 10.5633V35.0172ZM23.2333 34.89L23.2333 10.3518C23.2333 10.3513 23.2329 10.3419 23.2283 10.3228C23.2232 10.3017 23.2141 10.273 23.1988 10.2377C23.1681 10.1666 23.117 10.079 23.0407 9.9849C22.8888 9.79745 22.6492 9.59941 22.3129 9.46365C22.2812 9.45086 22.1564 9.41857 21.8906 9.38644C21.6409 9.35627 21.3046 9.33028 20.8804 9.31269C20.0328 9.27754 18.854 9.27672 17.3527 9.33776C14.3543 9.45969 10.0844 9.82782 4.62488 10.6555C4.621 10.6589 4.61469 10.6653 4.60668 10.6765C4.57593 10.7192 4.5 10.862 4.5 11.2182V34.4182C4.5 34.5013 4.50221 34.8211 4.60422 35.1069C4.65396 35.2462 4.71637 35.3448 4.78387 35.4054C4.84081 35.4565 4.92143 35.5 5.0666 35.5C5.7699 35.5 8.37226 35.2962 11.3225 35.0652C11.6199 35.0419 11.9207 35.0183 12.2235 34.9947C15.5021 34.7386 18.9886 34.4731 20.5243 34.4455C21.8624 34.4215 22.6953 34.614 23.2333 34.89ZM6.5 14C6.5 13.7239 6.72386 13.5 7 13.5H19C19.2761 13.5 19.5 13.7239 19.5 14C19.5 14.2761 19.2761 14.5 19 14.5H7C6.72386 14.5 6.5 14.2761 6.5 14ZM28.5 14C28.5 13.7239 28.7239 13.5 29 13.5H41C41.2761 13.5 41.5 13.7239 41.5 14C41.5 14.2761 41.2761 14.5 41 14.5H29C28.7239 14.5 28.5 14.2761 28.5 14ZM8.5 18C8.5 17.7239 8.72386 17.5 9 17.5H17C17.2761 17.5 17.5 17.7239 17.5 18C17.5 18.2761 17.2761 18.5 17 18.5H9C8.72386 18.5 8.5 18.2761 8.5 18ZM30.5 18C30.5 17.7239 30.7239 17.5 31 17.5H39C39.2761 17.5 39.5 17.7239 39.5 18C39.5 18.2761 39.2761 18.5 39 18.5H31C30.7239 18.5 30.5 18.2761 30.5 18ZM6.5 22C6.5 21.7239 6.72386 21.5 7 21.5H19C19.2761 21.5 19.5 21.7239 19.5 22C19.5 22.2761 19.2761 22.5 19 22.5H7C6.72386 22.5 6.5 22.2761 6.5 22ZM28.5 22C28.5 21.7239 28.7239 21.5 29 21.5H41C41.2761 21.5 41.5 21.7239 41.5 22C41.5 22.2761 41.2761 22.5 41 22.5H29C28.7239 22.5 28.5 22.2761 28.5 22ZM8.5 26C8.5 25.7239 8.72386 25.5 9 25.5H17C17.2761 25.5 17.5 25.7239 17.5 26C17.5 26.2761 17.2761 26.5 17 26.5H9C8.72386 26.5 8.5 26.2761 8.5 26ZM30.5 26C30.5 25.7239 30.7239 25.5 31 25.5H39C39.2761 25.5 39.5 25.7239 39.5 26C39.5 26.2761 39.2761 26.5 39 26.5H31C30.7239 26.5 30.5 26.2761 30.5 26ZM6.5 30C6.5 29.7239 6.72386 29.5 7 29.5H19C19.2761 29.5 19.5 29.7239 19.5 30C19.5 30.2761 19.2761 30.5 19 30.5H7C6.72386 30.5 6.5 30.2761 6.5 30ZM28.5 30C28.5 29.7239 28.7239 29.5 29 29.5H41C41.2761 29.5 41.5 29.7239 41.5 30C41.5 30.2761 41.2761 30.5 41 30.5H29C28.7239 30.5 28.5 30.2761 28.5 30Z" fill="#40052F"/>
</svg>
