<svg width="48" height="48" viewBox="0 0 48 48" fill="none" xmlns="http://www.w3.org/2000/svg">
<g opacity="0.2">
<mask id="path-1-inside-1" fill="white">
<path fill-rule="evenodd" clip-rule="evenodd" d="M4 35.1876V13.0001H1V40.0001L47 39.5001V13.5001L44 13.0001L43.5 36.0001L28.1818 35.0001L24.9787 35.766L26 35.0001V9.00009L24.6667 10.5001V35.8406L24 36.0001C24 36.0001 23.8741 35.9473 23.6667 35.866C23.64 35.8556 23.612 35.8447 23.5828 35.8333C23.562 35.8253 23.5406 35.817 23.5185 35.8086C23.5124 35.8062 23.5062 35.8038 23.5 35.8014V9.83337L22.1666 8.83337V34.8334L23.4135 35.7685C23.1581 35.6717 22.8397 35.5559 22.5 35.4439C22.2904 35.3749 22.0728 35.3072 21.8569 35.2464C21.6204 35.1798 21.3861 35.1214 21.1666 35.0782C20.9193 35.0295 20.6909 35.0001 20.5 35.0001C19.3864 35.0001 6.5 36.0001 6.5 36.0001H5L4 35.1876ZM22.9279 36.6543C22.7531 36.5893 22.5551 36.518 22.3459 36.4469C21.5906 36.1903 20.867 36.0001 20.5 36.0001C19.9921 36.0001 16.5523 36.2447 13.1566 36.4973C11.4771 36.6222 9.83226 36.7472 8.60717 36.8409C7.99466 36.8877 7.48714 36.9268 7.13278 36.9541L6.57794 36.997C6.57785 36.997 6.57737 36.9971 6.5 36.0001L6.57794 36.997L6.53874 37.0001H4.64496L3 35.6635V14.0001H2V38.9891L46 38.5109V14.3472L44.9747 14.1763L44.4771 37.066L28.2674 36.0078L25.4129 36.6904L24.5 37.3751V37.8333L24.1945 37.6042L23.6667 38V37.2084L22.9279 36.6543Z"/>
</mask>
<path fill-rule="evenodd" clip-rule="evenodd" d="M4 35.1876V13.0001H1V40.0001L47 39.5001V13.5001L44 13.0001L43.5 36.0001L28.1818 35.0001L24.9787 35.766L26 35.0001V9.00009L24.6667 10.5001V35.8406L24 36.0001C24 36.0001 23.8741 35.9473 23.6667 35.866C23.64 35.8556 23.612 35.8447 23.5828 35.8333C23.562 35.8253 23.5406 35.817 23.5185 35.8086C23.5124 35.8062 23.5062 35.8038 23.5 35.8014V9.83337L22.1666 8.83337V34.8334L23.4135 35.7685C23.1581 35.6717 22.8397 35.5559 22.5 35.4439C22.2904 35.3749 22.0728 35.3072 21.8569 35.2464C21.6204 35.1798 21.3861 35.1214 21.1666 35.0782C20.9193 35.0295 20.6909 35.0001 20.5 35.0001C19.3864 35.0001 6.5 36.0001 6.5 36.0001H5L4 35.1876ZM22.9279 36.6543C22.7531 36.5893 22.5551 36.518 22.3459 36.4469C21.5906 36.1903 20.867 36.0001 20.5 36.0001C19.9921 36.0001 16.5523 36.2447 13.1566 36.4973C11.4771 36.6222 9.83226 36.7472 8.60717 36.8409C7.99466 36.8877 7.48714 36.9268 7.13278 36.9541L6.57794 36.997C6.57785 36.997 6.57737 36.9971 6.5 36.0001L6.57794 36.997L6.53874 37.0001H4.64496L3 35.6635V14.0001H2V38.9891L46 38.5109V14.3472L44.9747 14.1763L44.4771 37.066L28.2674 36.0078L25.4129 36.6904L24.5 37.3751V37.8333L24.1945 37.6042L23.6667 38V37.2084L22.9279 36.6543Z" fill="#3B4857"/>
<path d="M4 35.1876H3V35.6635L3.36941 35.9637L4 35.1876ZM4 13.0001H5V12.0001H4V13.0001ZM1 13.0001V12.0001H0V13.0001H1ZM1 40.0001H0V41.011L1.01087 41L1 40.0001ZM47 39.5001L47.0109 40.5L48 40.4892V39.5001H47ZM47 13.5001H48V12.6529L47.1644 12.5137L47 13.5001ZM44 13.0001L44.1644 12.0137L43.0253 11.8238L43.0002 12.9783L44 13.0001ZM43.5 36.0001L43.4349 36.9979L44.4771 37.066L44.4998 36.0218L43.5 36.0001ZM28.1818 35.0001L28.247 34.0022L28.0962 33.9923L27.9492 34.0275L28.1818 35.0001ZM24.9787 35.766L24.3787 34.966L25.2113 36.7386L24.9787 35.766ZM26 35.0001L26.6 35.8001L27 35.5001V35.0001H26ZM26 9.00009H27V6.36993L25.2526 8.33572L26 9.00009ZM24.6667 10.5001L23.9193 9.83568L23.6667 10.1198V10.5001H24.6667ZM24.6667 35.8406L24.8992 36.8132L25.6667 36.6297V35.8406H24.6667ZM24 36.0001L23.6135 36.9224L23.9148 37.0486L24.2326 36.9726L24 36.0001ZM23.6667 35.866L23.3019 36.7971L23.3019 36.7971L23.6667 35.866ZM23.5828 35.8333L23.2215 36.7658L23.2215 36.7658L23.5828 35.8333ZM23.5185 35.8086L23.8772 34.8751L23.8771 34.8751L23.5185 35.8086ZM23.5 35.8014H22.5V36.4891L23.1421 36.7352L23.5 35.8014ZM23.5 9.83337H24.5V9.33337L24.1 9.03337L23.5 9.83337ZM22.1666 8.83337L22.7666 8.03337L21.1666 6.83337V8.83337H22.1666ZM22.1666 34.8334H21.1666V35.3334L21.5666 35.6334L22.1666 34.8334ZM23.4135 35.7685L23.0591 36.7036L24.0135 34.9685L23.4135 35.7685ZM22.5 35.4439L22.813 34.4942H22.813L22.5 35.4439ZM21.8569 35.2464L22.128 34.2839L22.128 34.2839L21.8569 35.2464ZM21.1666 35.0782L20.9734 36.0593L21.1666 35.0782ZM5 36.0001L4.36941 36.7762L4.64496 37.0001H5V36.0001ZM22.3459 36.4469L22.0242 37.3937H22.0242L22.3459 36.4469ZM22.9279 36.6543L23.5279 35.8543L23.4122 35.7675L23.2767 35.7171L22.9279 36.6543ZM13.1566 36.4973L13.0824 35.5001L13.1566 36.4973ZM8.60717 36.8409L8.68345 37.838H8.68345L8.60717 36.8409ZM7.13278 36.9541L7.05589 35.9571L7.05572 35.9571L7.13278 36.9541ZM6.53874 37.0001V38.0001H6.57749L6.61611 37.9971L6.53874 37.0001ZM4.64496 37.0001L4.01437 37.7762L4.28992 38.0001H4.64496V37.0001ZM3 35.6635H2V36.1395L2.36941 36.4396L3 35.6635ZM3 14.0001H4V13.0001H3V14.0001ZM2 14.0001V13.0001H1V14.0001H2ZM2 38.9891H1V40.0001L2.01087 39.9891L2 38.9891ZM46 38.5109L46.0109 39.5108L47 39.5001V38.5109H46ZM46 14.3472H47V13.5001L46.1644 13.3608L46 14.3472ZM44.9747 14.1763L45.1391 13.1899L44 13.0001L43.9749 14.1546L44.9747 14.1763ZM44.4771 37.066L44.4119 38.0638L45.4541 38.1319L45.4768 37.0877L44.4771 37.066ZM28.2674 36.0078L28.3326 35.0099L28.1818 35.0001L28.0349 35.0352L28.2674 36.0078ZM25.4129 36.6904L25.1803 35.7178L24.9787 35.766L24.8129 35.8904L25.4129 36.6904ZM24.5 37.3751L23.9 36.5751L23.5 36.8751V37.3751H24.5ZM24.5 37.8333L23.9 38.6333L25.5 39.8333V37.8333H24.5ZM24.1945 37.6042L24.7944 36.8042L24.1945 36.3542L23.5945 36.8042L24.1945 37.6042ZM23.6667 38H22.6667V40L24.2667 38.8L23.6667 38ZM23.6667 37.2084H24.6667V36.7083L24.2667 36.4083L23.6667 37.2084ZM48 39.5001V13.5001H46V39.5001H48ZM24 36.0001C24.3865 35.0778 24.3865 35.0778 24.3864 35.0777C24.3864 35.0777 24.3864 35.0777 24.3864 35.0777C24.3864 35.0777 24.3864 35.0777 24.3863 35.0777C24.3863 35.0777 24.3862 35.0776 24.3861 35.0776C24.386 35.0775 24.3858 35.0775 24.3856 35.0774C24.3851 35.0772 24.3846 35.077 24.3839 35.0767C24.3826 35.0761 24.3807 35.0754 24.3784 35.0744C24.3738 35.0725 24.3673 35.0698 24.3589 35.0663C24.3423 35.0594 24.3184 35.0496 24.2879 35.0372C24.2269 35.0124 24.1396 34.9773 24.0315 34.9349L23.3019 36.7971C23.4012 36.836 23.4805 36.8679 23.5344 36.8898C23.5613 36.9008 23.5818 36.9092 23.5952 36.9148C23.6019 36.9175 23.6069 36.9196 23.61 36.9209C23.6115 36.9215 23.6126 36.922 23.6132 36.9222C23.6135 36.9223 23.6136 36.9224 23.6137 36.9224C23.6137 36.9224 23.6137 36.9224 23.6137 36.9224C23.6137 36.9224 23.6137 36.9224 23.6136 36.9224C23.6136 36.9224 23.6136 36.9224 23.6136 36.9224C23.6136 36.9224 23.6136 36.9224 23.6136 36.9224C23.6135 36.9224 23.6135 36.9224 24 36.0001ZM24.0315 34.9349C24.0037 34.9241 23.9745 34.9127 23.944 34.9009L23.2215 36.7658C23.2495 36.7767 23.2763 36.7871 23.3019 36.7971L24.0315 34.9349ZM23.944 34.9009C23.9224 34.8925 23.9001 34.8839 23.8772 34.8751L23.1599 36.742C23.1811 36.7502 23.2016 36.7581 23.2215 36.7658L23.944 34.9009ZM23.8771 34.8751C23.8708 34.8726 23.8643 34.8702 23.8578 34.8677L23.1421 36.7352C23.1481 36.7375 23.154 36.7398 23.16 36.7421L23.8771 34.8751ZM23.7678 34.8334C23.5028 34.7329 23.1701 34.6119 22.813 34.4942L22.1869 36.3937C22.5093 36.4999 22.8135 36.6105 23.0591 36.7036L23.7678 34.8334ZM22.813 34.4942C22.5927 34.4216 22.3608 34.3494 22.128 34.2839L21.5857 36.209C21.7848 36.265 21.9881 36.3281 22.1869 36.3937L22.813 34.4942ZM22.128 34.2839C21.874 34.2123 21.6127 34.1468 21.3599 34.097L20.9734 36.0593C21.1595 36.096 21.3669 36.1473 21.5858 36.209L22.128 34.2839ZM21.3599 34.097C21.0816 34.0422 20.7823 34.0001 20.5 34.0001V36.0001C20.5996 36.0001 20.757 36.0167 20.9734 36.0593L21.3599 34.097ZM20.5 34.0001C19.8942 34.0001 16.3341 34.2554 13.0082 34.5028C11.3269 34.6279 9.68053 34.7529 8.45462 34.8467C7.84163 34.8936 7.3337 34.9327 6.97899 34.96C6.80163 34.9737 6.66258 34.9845 6.56784 34.9918C6.52048 34.9955 6.48419 34.9983 6.45974 35.0002C6.44751 35.0011 6.43824 35.0018 6.43203 35.0023C6.42892 35.0026 6.42658 35.0027 6.425 35.0029C6.42422 35.0029 6.42363 35.003 6.42323 35.003C6.42303 35.003 6.42288 35.003 6.42278 35.003C6.42268 35.003 6.42263 35.0031 6.5 36.0001C6.57737 36.9971 6.57741 36.9971 6.57751 36.997C6.57761 36.997 6.57775 36.997 6.57794 36.997C6.57833 36.997 6.57891 36.9969 6.57969 36.9969C6.58124 36.9968 6.58357 36.9966 6.58666 36.9963C6.59284 36.9959 6.60207 36.9951 6.61426 36.9942C6.63864 36.9923 6.67485 36.9895 6.72214 36.9858C6.81672 36.9785 6.9556 36.9678 7.13278 36.9541C7.48714 36.9268 7.99466 36.8877 8.60717 36.8409C9.83226 36.7472 11.4771 36.6222 13.1566 36.4973C16.5523 36.2447 19.9921 36.0001 20.5 36.0001V34.0001ZM6.5 35.0001H5V37.0001H6.5V35.0001ZM5.63059 35.2239L4.63059 34.4114L3.36941 35.9637L4.36941 36.7762L5.63059 35.2239ZM22.0242 37.3937C22.2228 37.4612 22.4116 37.5292 22.5792 37.5915L23.2767 35.7171C23.0945 35.6493 22.8874 35.5747 22.6676 35.5001L22.0242 37.3937ZM20.5 37.0001C20.5545 37.0001 20.7276 37.0212 21.0367 37.0979C21.3232 37.1689 21.665 37.2717 22.0242 37.3937L22.6676 35.5001C22.2716 35.3655 21.8739 35.2449 21.518 35.1566C21.1847 35.074 20.8125 35.0001 20.5 35.0001V37.0001ZM13.2308 37.4945C16.6616 37.2393 20.0411 37.0001 20.5 37.0001V35.0001C19.9432 35.0001 16.4429 35.2501 13.0824 35.5001L13.2308 37.4945ZM8.68345 37.838C9.90812 37.7443 11.5522 37.6194 13.2308 37.4945L13.0824 35.5001C11.402 35.6251 9.75639 35.7501 8.53089 35.8438L8.68345 37.838ZM7.20968 37.9512C7.56387 37.9238 8.07117 37.8848 8.68345 37.838L8.5309 35.8438C7.91815 35.8907 7.41042 35.9297 7.05589 35.9571L7.20968 37.9512ZM5.503 36.0774C5.54169 36.576 5.56118 36.8257 5.57103 36.9508C5.57593 37.0132 5.57851 37.0455 5.5799 37.0626C5.58053 37.0703 5.58114 37.0776 5.58169 37.0838C5.58171 37.0841 5.58273 37.0959 5.58432 37.1098C5.58481 37.1142 5.58578 37.1225 5.5872 37.1328C5.58821 37.1402 5.59149 37.1639 5.59752 37.1939C5.60053 37.2089 5.60665 37.2378 5.61692 37.2735C5.62494 37.3014 5.64788 37.3784 5.69612 37.4686C5.74085 37.5522 5.86572 37.759 6.13082 37.8915C6.26695 37.9595 6.39788 37.9864 6.50385 37.9943C6.54184 37.9964 6.59927 37.9968 6.61863 37.9962C6.63835 37.9952 6.65806 37.9938 6.65809 37.9938L6.4978 36.0002C6.49783 36.0002 6.51754 35.9988 6.53725 35.9978C6.55662 35.9972 6.61405 35.9977 6.65204 35.9998C6.758 36.0076 6.88893 36.0345 7.02506 36.1025C7.29016 36.2351 7.41503 36.4418 7.45976 36.5254C7.508 36.6156 7.53094 36.6926 7.53895 36.7205C7.54922 36.7562 7.55533 36.785 7.55835 36.8C7.56437 36.83 7.56764 36.8537 7.56864 36.861C7.57005 36.8713 7.57101 36.8795 7.57149 36.8837C7.57246 36.8922 7.57309 36.8987 7.57327 36.9007C7.57354 36.9034 7.57372 36.9055 7.5738 36.9063C7.574 36.9086 7.57395 36.9082 7.57331 36.9003C7.57216 36.8862 7.56977 36.8563 7.56487 36.794C7.55511 36.6699 7.53568 36.4211 7.497 35.9227L5.503 36.0774ZM7.5749 36.9191L7.49696 35.9221L5.50304 36.078L5.58099 37.075L7.5749 36.9191ZM6.61611 37.9971L6.65532 37.994L6.50057 36L6.46137 36.0031L6.61611 37.9971ZM2 15.0001H3V13.0001H2V15.0001ZM3 38.9891V14.0001H1V38.9891H3ZM45.9891 37.5109L1.98913 37.9892L2.01087 39.9891L46.0109 39.5108L45.9891 37.5109ZM45 14.3472V38.5109H47V14.3472H45ZM44.8103 15.1627L45.8356 15.3336L46.1644 13.3608L45.1391 13.1899L44.8103 15.1627ZM25.6455 37.663L28.5 36.9804L28.0349 35.0352L25.1803 35.7178L25.6455 37.663ZM25.5 37.8333V37.3751H23.5V37.8333H25.5ZM23.5945 38.4042L23.9 38.6333L25.0999 37.0333L24.7944 36.8042L23.5945 38.4042ZM24.2667 38.8L24.7944 38.4042L23.5945 36.8042L23.0667 37.2L24.2667 38.8ZM22.6667 37.2084V38H24.6667V37.2084H22.6667ZM22.328 37.4543L23.0667 38.0084L24.2667 36.4083L23.5279 35.8543L22.328 37.4543ZM5 35.1876V13.0001H3V35.1876H5ZM4 12.0001H1V14.0001H4V12.0001ZM0 13.0001V40.0001H2V13.0001H0ZM1.01087 41L47.0109 40.5L46.9891 38.5001L0.989131 39.0001L1.01087 41ZM47.1644 12.5137L44.1644 12.0137L43.8356 13.9864L46.8356 14.4864L47.1644 12.5137ZM43.0002 12.9783L42.5002 35.9783L44.4998 36.0218L44.9998 13.0218L43.0002 12.9783ZM43.5651 35.0022L28.247 34.0022L28.1167 35.9979L43.4349 36.9979L43.5651 35.0022ZM27.9492 34.0275L24.7462 34.7934L25.2113 36.7386L28.4144 35.9726L27.9492 34.0275ZM25.5787 36.566L26.6 35.8001L25.4 34.2001L24.3787 34.966L25.5787 36.566ZM27 35.0001V9.00009H25V35.0001H27ZM25.2526 8.33572L23.9193 9.83568L25.4141 11.1644L26.7474 9.66446L25.2526 8.33572ZM23.6667 10.5001V35.8406H25.6667V10.5001H23.6667ZM24.4341 34.8681L23.7674 35.0275L24.2326 36.9726L24.8992 36.8132L24.4341 34.8681ZM24.5 35.8014V9.83337H22.5V35.8014H24.5ZM24.1 9.03337L22.7666 8.03337L21.5666 9.63337L22.9 10.6334L24.1 9.03337ZM21.1666 8.83337V34.8334H23.1666V8.83337H21.1666ZM21.5666 35.6334L22.8135 36.5685L24.0135 34.9685L22.7666 34.0334L21.5666 35.6334ZM6.65501 37.994L7.20985 37.9512L7.05572 35.9571L6.50088 36L6.65501 37.994ZM4.64496 38.0001H6.53874V36.0001H4.64496V38.0001ZM2.36941 36.4396L4.01437 37.7762L5.27555 36.2239L3.63059 34.8874L2.36941 36.4396ZM2 14.0001V35.6635H4V14.0001H2ZM45.4768 37.0877L45.9744 14.198L43.9749 14.1546L43.4773 37.0442L45.4768 37.0877ZM28.2023 37.0056L44.4119 38.0638L44.5422 36.0681L28.3326 35.0099L28.2023 37.0056ZM25.0999 38.1751L26.0129 37.4904L24.8129 35.8904L23.9 36.5751L25.0999 38.1751Z" fill="#3B4857" mask="url(#path-1-inside-1)"/>
</g>
<path fill-rule="evenodd" clip-rule="evenodd" d="M22.0106 8.39367C22.2786 8.42606 22.521 8.46928 22.6871 8.53634C23.1841 8.73694 23.5612 9.03891 23.8176 9.35524C23.9121 9.47182 23.9958 9.59772 24.063 9.72764C24.1003 9.67244 24.1403 9.61863 24.1824 9.56666C24.4388 9.25033 24.8159 8.94837 25.3129 8.74777C25.479 8.6807 25.7214 8.63748 25.9894 8.60509C26.2735 8.57076 26.6378 8.54323 27.0782 8.52497C27.96 8.48841 29.1672 8.48818 30.6879 8.55001C33.7303 8.67372 38.0425 9.04649 43.5417 9.88071C43.7495 9.91225 44.0078 10.0296 44.2052 10.304C44.3971 10.571 44.5 10.9421 44.5 11.4296V12.5H46.5C47.3284 12.5 48 13.1716 48 14V39C48 39.8284 47.3284 40.5 46.5 40.5H1.5C0.671573 40.5 0 39.8284 0 39V14C0 13.1716 0.671573 12.5 1.5 12.5H3.5V11.2182C3.5 10.7307 3.60285 10.3595 3.79483 10.0926C3.99216 9.81821 4.25047 9.70082 4.45834 9.66929C9.95754 8.83506 14.2697 8.4623 17.3121 8.33859C18.8328 8.27675 20.04 8.27698 20.9218 8.31355C21.3622 8.33181 21.7265 8.35933 22.0106 8.39367ZM3.5 13.5H1.5C1.22386 13.5 1 13.7239 1 14V39C1 39.2761 1.22386 39.5 1.5 39.5H46.5C46.7761 39.5 47 39.2761 47 39V14C47 13.7239 46.7761 13.5 46.5 13.5H44.5V34.6332C44.5 34.7339 44.5002 35.1991 44.3376 35.6545C44.254 35.8887 44.1164 36.1526 43.8839 36.3611C43.6409 36.5792 43.3215 36.7114 42.9334 36.7114C42.1877 36.7114 39.5542 36.5051 36.6445 36.2771C36.3317 36.2526 36.0157 36.2279 35.6986 36.2031C32.4021 35.9456 28.9552 35.6837 27.4577 35.6568C25.9782 35.6302 25.3238 35.8394 25.0354 35.9968C24.8998 36.0709 24.8354 36.1386 24.7948 36.1859C24.7822 36.2006 24.7713 36.2141 24.7562 36.2328C24.7439 36.2478 24.7218 36.2752 24.6976 36.3013L24.696 36.303C24.662 36.3399 24.514 36.5 24.2667 36.5H23.7333C23.5801 36.5 23.4646 36.4368 23.3944 36.3822C23.3312 36.3331 23.2891 36.2791 23.269 36.2522C23.2474 36.2233 23.2273 36.1928 23.2148 36.1737L23.214 36.1724C23.199 36.1496 23.1873 36.1317 23.1737 36.1121C23.1268 36.0442 23.0581 35.9574 22.9234 35.866C22.6453 35.6773 22.0084 35.419 20.5423 35.4454C19.0448 35.4723 15.5979 35.7341 12.3014 35.9917C11.9843 36.0164 11.6683 36.0412 11.3556 36.0657C8.44585 36.2937 5.81226 36.5 5.0666 36.5C4.67846 36.5 4.35911 36.3678 4.11607 36.1497C3.88359 35.9411 3.74601 35.6772 3.66243 35.4431C3.49984 34.9876 3.49997 34.5225 3.5 34.4218L3.5 13.5ZM24.7667 35.0172C25.2929 34.7915 26.1183 34.6325 27.4757 34.657C29.0114 34.6846 32.4979 34.95 35.7765 35.2061C36.0793 35.2298 36.3801 35.2533 36.6775 35.2766C39.6278 35.5076 42.2301 35.7114 42.9334 35.7114C43.0786 35.7114 43.1592 35.6679 43.2161 35.6168C43.2836 35.5562 43.346 35.4577 43.3958 35.3183C43.4978 35.0326 43.5 34.7127 43.5 34.6296V11.4296C43.5 11.0734 43.4241 10.9307 43.3933 10.8879C43.3853 10.8768 43.379 10.8703 43.3751 10.8669C37.9156 10.0392 33.6457 9.67111 30.6473 9.54919C29.146 9.48814 27.9672 9.48897 27.1196 9.52411C26.6954 9.5417 26.3591 9.5677 26.1094 9.59787C25.8436 9.62999 25.7188 9.66229 25.6871 9.67507C25.3508 9.81083 25.1112 10.0089 24.9593 10.1963C24.883 10.2904 24.8319 10.3781 24.8012 10.4491C24.7859 10.4844 24.7768 10.5131 24.7717 10.5342C24.7669 10.5542 24.7667 10.5636 24.7667 10.5633V35.0172ZM23.2333 34.89L23.2333 10.3518C23.2333 10.3513 23.2329 10.3419 23.2283 10.3228C23.2232 10.3017 23.2141 10.273 23.1988 10.2377C23.1681 10.1666 23.117 10.079 23.0407 9.9849C22.8888 9.79745 22.6492 9.59941 22.3129 9.46365C22.2812 9.45086 22.1564 9.41857 21.8906 9.38644C21.6409 9.35627 21.3046 9.33028 20.8804 9.31269C20.0328 9.27754 18.854 9.27672 17.3527 9.33776C14.3543 9.45969 10.0844 9.82782 4.62488 10.6555C4.621 10.6589 4.61469 10.6653 4.60668 10.6765C4.57593 10.7192 4.5 10.862 4.5 11.2182V34.4182C4.5 34.5013 4.50221 34.8211 4.60422 35.1069C4.65396 35.2462 4.71637 35.3448 4.78387 35.4054C4.84081 35.4565 4.92143 35.5 5.0666 35.5C5.7699 35.5 8.37226 35.2962 11.3225 35.0652C11.6199 35.0419 11.9207 35.0183 12.2235 34.9947C15.5021 34.7386 18.9886 34.4731 20.5243 34.4455C21.8624 34.4215 22.6953 34.614 23.2333 34.89ZM6.5 14C6.5 13.7239 6.72386 13.5 7 13.5H19C19.2761 13.5 19.5 13.7239 19.5 14C19.5 14.2761 19.2761 14.5 19 14.5H7C6.72386 14.5 6.5 14.2761 6.5 14ZM28.5 14C28.5 13.7239 28.7239 13.5 29 13.5H41C41.2761 13.5 41.5 13.7239 41.5 14C41.5 14.2761 41.2761 14.5 41 14.5H29C28.7239 14.5 28.5 14.2761 28.5 14ZM8.5 18C8.5 17.7239 8.72386 17.5 9 17.5H17C17.2761 17.5 17.5 17.7239 17.5 18C17.5 18.2761 17.2761 18.5 17 18.5H9C8.72386 18.5 8.5 18.2761 8.5 18ZM30.5 18C30.5 17.7239 30.7239 17.5 31 17.5H39C39.2761 17.5 39.5 17.7239 39.5 18C39.5 18.2761 39.2761 18.5 39 18.5H31C30.7239 18.5 30.5 18.2761 30.5 18ZM6.5 22C6.5 21.7239 6.72386 21.5 7 21.5H19C19.2761 21.5 19.5 21.7239 19.5 22C19.5 22.2761 19.2761 22.5 19 22.5H7C6.72386 22.5 6.5 22.2761 6.5 22ZM28.5 22C28.5 21.7239 28.7239 21.5 29 21.5H41C41.2761 21.5 41.5 21.7239 41.5 22C41.5 22.2761 41.2761 22.5 41 22.5H29C28.7239 22.5 28.5 22.2761 28.5 22ZM8.5 26C8.5 25.7239 8.72386 25.5 9 25.5H17C17.2761 25.5 17.5 25.7239 17.5 26C17.5 26.2761 17.2761 26.5 17 26.5H9C8.72386 26.5 8.5 26.2761 8.5 26ZM30.5 26C30.5 25.7239 30.7239 25.5 31 25.5H39C39.2761 25.5 39.5 25.7239 39.5 26C39.5 26.2761 39.2761 26.5 39 26.5H31C30.7239 26.5 30.5 26.2761 30.5 26ZM6.5 30C6.5 29.7239 6.72386 29.5 7 29.5H19C19.2761 29.5 19.5 29.7239 19.5 30C19.5 30.2761 19.2761 30.5 19 30.5H7C6.72386 30.5 6.5 30.2761 6.5 30ZM28.5 30C28.5 29.7239 28.7239 29.5 29 29.5H41C41.2761 29.5 41.5 29.7239 41.5 30C41.5 30.2761 41.2761 30.5 41 30.5H29C28.7239 30.5 28.5 30.2761 28.5 30Z" fill="#3B4857"/>
</svg>
